<svg width="199" height="135" viewBox="0 0 199 135" fill="none" xmlns="http://www.w3.org/2000/svg">
<path d="M15.2522 1.06416C15.1334 0.689729 14.8759 0.372096 14.5295 0.183137C14.1832 -0.00584137 13.7774 -0.0510014 13.4002 0.0579646C13.023 0.166931 12.7039 0.421512 12.5117 0.766076C12.3194 1.11066 12.2709 1.51667 12.3701 1.89678C12.3701 1.89678 12.3701 1.89678 12.3701 1.89678C14.729 11.6045 20.7309 23.1473 32.3375 25.4302C36.0652 26.3086 39.7999 26.396 43.3112 26.474C78.8112 27.2719 114.311 27.911 149.811 28.3913C166.026 28.2765 187.719 34.0864 188.297 46.8145C187.391 59.3994 165.916 64.7018 149.87 64.101C131.998 63.8602 114.03 63.5472 96.3112 63.9805C96.3112 63.9805 96.3112 63.9805 96.3112 63.9805C78.6445 63.9805 60.9778 64.0217 43.3112 64.1041C34.6804 64.1749 25.8854 65.1779 17.4135 68.7549C9.26486 72.1087 -0.296891 79.8838 0.00706816 91.5243C3.49518 115.068 27.4764 118.403 43.3112 118.484C78.8112 118.014 114.311 117.377 149.811 116.574C154.336 116.471 158.804 116.79 163.182 117.712C172.515 119.64 182.111 124.863 185.892 133.466C186.029 133.834 186.301 134.139 186.657 134.311C187.012 134.483 187.419 134.508 187.79 134.381C188.162 134.254 188.468 133.984 188.643 133.631C188.819 133.278 188.848 132.87 188.73 132.495C188.73 132.495 188.73 132.495 188.73 132.495C184.676 121.903 174.362 115.979 164.229 113.297C159.491 112.061 154.669 111.494 149.811 111.387C114.311 110.584 78.8112 109.947 43.3112 109.477C28.6569 109.692 10.494 103.028 10.0935 91.2937C10.148 79.7911 28.7121 74.4119 43.3112 74.8568C60.9778 74.9393 78.6445 74.9805 96.3112 74.9805C96.3112 74.9805 96.3112 74.9805 96.3112 74.9805C114.23 74.5468 131.84 74.7799 149.752 74.8599C159.214 74.8937 168.818 73.9014 178.097 70.3789C186.905 66.9502 198.013 59.9604 198.331 46.8094C197.816 33.6754 186.684 26.9899 177.921 23.7118C168.668 20.3545 159.186 19.4799 149.811 19.5697C114.311 20.0499 78.8112 20.689 43.3112 21.4869C39.8035 21.5715 36.4428 21.6199 33.2763 21.0257C23.8472 19.6909 18.1042 10.4588 15.2522 1.06416Z" fill="black"/>
</svg>
