<svg width="1736" height="1080" viewBox="0 0 1736 1080" fill="none" xmlns="http://www.w3.org/2000/svg">
<path d="M112.681 1002.74H123.79C126.695 1002.74 129.129 1003.25 130.817 1004.47C132.427 1005.65 133.604 1007.53 133.604 1010.16C133.604 1015.62 129.168 1017.97 125.164 1018.25C124.575 1018.33 123.83 1018.29 123.398 1018.29L120.453 1017.54V1022.96C120.453 1026.3 120.728 1026.41 124.497 1026.73V1028.26H112.681V1026.73C116.214 1026.45 116.332 1026.18 116.332 1022.96V1008.08C116.332 1004.63 115.861 1004.47 112.681 1004.27V1002.74ZM120.453 1006.51V1015.77C120.925 1016.01 122.063 1016.29 123.358 1016.29C126.146 1016.29 129.168 1014.91 129.168 1010.32C129.168 1006.2 126.46 1004.43 123.201 1004.43C121.827 1004.43 121.16 1004.67 120.885 1004.98C120.571 1005.25 120.453 1005.61 120.453 1006.51ZM152.463 1026.65L148.655 1028.73C147.909 1028.73 147.124 1028.38 146.653 1027.98C146.103 1027.43 145.829 1026.81 145.632 1026.18C143.944 1027.32 141.903 1028.73 140.608 1028.73C137.663 1028.73 135.465 1026.3 135.465 1023.55C135.465 1021.55 136.564 1020.21 138.88 1019.43C141.471 1018.56 144.69 1017.5 145.475 1016.83V1015.97C145.475 1013.38 144.101 1012.05 142.178 1012.05C141.314 1012.05 140.686 1012.4 140.254 1012.87C139.744 1013.42 139.548 1014.32 139.155 1015.42C138.92 1016.17 138.449 1016.48 137.781 1016.48C136.957 1016.48 135.779 1015.62 135.779 1014.56C135.779 1013.89 136.329 1013.38 137.153 1012.79C138.331 1012.01 140.922 1010.55 143.316 1010C144.612 1010 145.986 1010.4 147.006 1011.18C148.537 1012.4 149.087 1014.01 149.087 1015.97V1023.27C149.087 1025.16 149.754 1025.67 150.461 1025.67C150.932 1025.67 151.482 1025.47 151.992 1025.24L152.463 1026.65ZM145.475 1024.57V1018.56C144.533 1019.03 142.845 1019.74 141.785 1020.17C140.451 1020.76 139.508 1021.51 139.508 1023C139.508 1025.12 141.118 1025.94 142.217 1025.94C143.238 1025.94 144.415 1025.51 145.475 1024.57ZM164.526 1026.77L161.817 1028.14C161.032 1028.57 160.286 1028.73 159.893 1028.73C157.224 1028.73 155.654 1027.2 155.654 1023.9V1012.48H152.867L152.592 1011.93L153.77 1010.48H155.654V1007.02C155.968 1006.67 158.52 1004.7 158.873 1004.39L159.54 1004.51C159.462 1006.04 159.383 1008.9 159.383 1010.48H163.858C164.329 1010.91 164.212 1012.12 163.584 1012.48H159.383V1022.37C159.383 1025.51 160.718 1026.02 161.66 1026.02C162.524 1026.02 163.505 1025.63 164.094 1025.35L164.526 1026.77ZM172.572 1004.47C172.572 1005.76 171.512 1006.9 170.099 1006.9C168.803 1006.9 167.665 1005.76 167.665 1004.47C167.665 1003.06 168.803 1001.96 170.138 1001.96C171.512 1001.96 172.572 1003.06 172.572 1004.47ZM175.123 1028.26H165.702V1026.77C168.254 1026.53 168.528 1026.33 168.528 1023.63V1015.85C168.528 1013.34 168.411 1013.18 165.977 1012.87V1011.5C168.45 1011.14 170.53 1010.63 172.297 1010V1023.63C172.297 1026.3 172.532 1026.53 175.123 1026.77V1028.26ZM191.561 1023.59L192.347 1024.8C189.599 1028.06 186.615 1028.73 185.123 1028.73C180.059 1028.73 176.919 1024.69 176.919 1019.82C176.919 1017.07 178.018 1014.6 179.588 1012.91C181.394 1010.95 183.553 1010 185.83 1010C189.756 1010 192.504 1013.26 192.504 1016.8C192.464 1017.66 192.386 1018.09 191.679 1018.21C190.344 1018.44 185.241 1018.72 180.687 1018.88C180.805 1023.51 183.789 1025.59 186.576 1025.59C188.303 1025.59 190.07 1024.88 191.561 1023.59ZM188.499 1015.93C188.539 1013.93 187.165 1011.81 184.966 1011.81C183.043 1011.81 181.276 1013.65 180.884 1016.87C182.925 1016.83 185.28 1016.83 187.557 1016.76C188.303 1016.72 188.499 1016.56 188.499 1015.93ZM215.178 1028.26H206.424V1026.77C208.544 1026.53 208.78 1026.26 208.78 1023.82V1017.07C208.78 1014.28 207.563 1012.79 205.325 1012.79C203.794 1012.79 202.381 1013.58 201.085 1014.68V1023.9C201.085 1026.45 201.282 1026.53 203.598 1026.77V1028.26H194.53V1026.77C197.16 1026.45 197.317 1026.3 197.317 1023.9V1015.81C197.317 1013.26 197.003 1013.14 194.883 1012.83V1011.46C197.12 1011.14 199.24 1010.63 201.085 1009.93V1012.99C201.831 1012.44 202.773 1011.81 203.755 1011.18C204.893 1010.48 205.953 1010 207.131 1010C210.35 1010 212.548 1012.36 212.548 1016.32V1023.9C212.548 1026.33 212.784 1026.49 215.178 1026.77V1028.26ZM227.968 1026.77L225.259 1028.14C224.474 1028.57 223.728 1028.73 223.336 1028.73C220.666 1028.73 219.096 1027.2 219.096 1023.9V1012.48H216.309L216.034 1011.93L217.212 1010.48H219.096V1007.02C219.41 1006.67 221.962 1004.7 222.315 1004.39L222.982 1004.51C222.904 1006.04 222.825 1008.9 222.825 1010.48H227.301C227.772 1010.91 227.654 1012.12 227.026 1012.48H222.825V1022.37C222.825 1025.51 224.16 1026.02 225.102 1026.02C225.966 1026.02 226.947 1025.63 227.536 1025.35L227.968 1026.77ZM258.462 1020.8L260.111 1021.15C259.836 1022.61 258.619 1027.16 258.266 1028.26H238.677V1026.73C242.367 1026.45 242.603 1026.22 242.603 1022.92V1008.04C242.603 1004.78 242.288 1004.51 238.912 1004.27V1002.74H250.493V1004.27C247.078 1004.55 246.764 1004.7 246.764 1008.04V1023C246.764 1025.12 246.96 1025.79 248.295 1026.1C248.687 1026.33 250.415 1026.37 251.749 1026.37C254.144 1026.37 255.047 1026.1 255.95 1025.12C256.774 1024.29 257.795 1022.45 258.462 1020.8ZM262.767 1019.58C262.767 1013.5 267.557 1010 272.11 1010C277.489 1010 281.139 1014.09 281.139 1019.07C281.139 1025.67 276.193 1028.73 272.032 1028.73C266.222 1028.73 262.767 1024.1 262.767 1019.58ZM276.821 1020.01C276.821 1015.03 274.858 1011.73 271.6 1011.73C269.323 1011.73 267.086 1013.81 267.086 1018.52C267.086 1023.63 269.362 1027 272.464 1027C274.701 1027 276.821 1025.27 276.821 1020.01ZM295.845 1015.23L294.354 1015.58C293.49 1012.99 292.234 1011.65 290.193 1011.65C288.701 1011.65 287.602 1012.56 287.602 1014.09C287.602 1015.58 288.701 1016.36 291.174 1017.35C294.628 1018.8 296.552 1020.13 296.552 1023C296.552 1026.69 293.097 1028.73 289.525 1028.73C287.445 1028.73 285.403 1028.06 284.54 1027.59C284.304 1026.57 283.833 1023.74 283.754 1022.68L285.285 1022.37C286.149 1025.12 287.719 1027.04 290.232 1027.04C291.841 1027.04 293.019 1026.06 293.019 1024.53C293.019 1022.88 291.959 1022.02 289.721 1021.04C286.738 1019.74 284.343 1018.44 284.343 1015.38C284.343 1012.4 286.777 1010 290.938 1010C292.783 1010 294.236 1010.4 295.1 1010.55C295.335 1011.81 295.688 1014.36 295.845 1015.23ZM311.16 1015.23L309.668 1015.58C308.804 1012.99 307.548 1011.65 305.507 1011.65C304.015 1011.65 302.916 1012.56 302.916 1014.09C302.916 1015.58 304.015 1016.36 306.488 1017.35C309.943 1018.8 311.866 1020.13 311.866 1023C311.866 1026.69 308.412 1028.73 304.839 1028.73C302.759 1028.73 300.717 1028.06 299.854 1027.59C299.618 1026.57 299.147 1023.74 299.069 1022.68L300.6 1022.37C301.463 1025.12 303.034 1027.04 305.546 1027.04C307.156 1027.04 308.333 1026.06 308.333 1024.53C308.333 1022.88 307.273 1022.02 305.036 1021.04C302.052 1019.74 299.658 1018.44 299.658 1015.38C299.658 1012.4 302.091 1010 306.253 1010C308.098 1010 309.55 1010.4 310.414 1010.55C310.649 1011.81 311.003 1014.36 311.16 1015.23Z" fill="#F8EBE5"/>
<rect x="2.94422" y="952.947" width="418.08" height="123.657" rx="61.8287" stroke="#F8EBE5" stroke-width="5.88844" stroke-linejoin="round" stroke-dasharray="11.78 11.78"/>
<path d="M664.107 657.137C663.34 656.37 662.097 656.37 661.331 657.137L648.84 669.628C648.073 670.395 648.073 671.638 648.84 672.404C649.606 673.171 650.849 673.171 651.615 672.404L662.719 661.301L673.822 672.404C674.589 673.171 675.831 673.171 676.598 672.404C677.364 671.638 677.364 670.395 676.598 669.628L664.107 657.137ZM422.006 1019.68V1021.65C497.612 1021.65 558.437 994.676 600.273 935.557C642.022 876.56 664.682 785.792 664.682 658.525H662.719H660.756C660.756 785.443 638.137 875.253 597.068 933.289C556.086 991.203 496.556 1017.72 422.006 1017.72V1019.68Z" fill="#F8EBE5"/>
<path d="M1534.4 658.061C1533.61 657.263 1532.31 657.263 1531.51 658.061L1518.51 671.066C1517.71 671.864 1517.71 673.157 1518.51 673.955C1519.31 674.753 1520.6 674.753 1521.4 673.955L1532.96 662.396L1544.52 673.955C1545.32 674.753 1546.61 674.753 1547.41 673.955C1548.21 673.157 1548.21 671.864 1547.41 671.066L1534.4 658.061ZM1532.96 948.841H1535C1535 876.004 1535 872.489 1535 852.839C1535 833.129 1535 797.289 1535 659.506H1532.96H1530.92C1530.92 797.289 1530.92 833.129 1530.92 852.839C1530.92 872.489 1530.92 876.004 1530.92 948.841H1532.96Z" fill="#F8EBE5"/>
<path d="M1095.66 658.118C1094.89 657.351 1093.65 657.351 1092.88 658.118L1080.39 670.609C1079.62 671.376 1079.62 672.619 1080.39 673.385C1081.16 674.152 1082.4 674.152 1083.17 673.385L1094.27 662.282L1105.37 673.385C1106.14 674.152 1107.38 674.152 1108.15 673.385C1108.92 672.619 1108.92 671.376 1108.15 670.609L1095.66 658.118ZM422.006 1019.68H423.969C423.969 988.643 434.291 964.019 452.347 944.082C470.448 924.096 496.4 908.735 527.763 896.451C590.533 871.863 674.308 859.833 758.427 847.284C842.391 834.758 926.693 821.715 989.992 794.996C1021.67 781.626 1048.23 764.774 1066.88 742.721C1085.57 720.625 1096.23 693.404 1096.23 659.506H1094.27H1092.31C1092.31 692.495 1081.96 718.813 1063.88 740.186C1045.77 761.601 1019.82 778.146 988.465 791.379C925.715 817.866 841.951 830.854 757.848 843.401C673.902 855.924 589.61 868.009 526.331 892.795C494.669 905.198 468.101 920.839 449.437 941.447C430.729 962.104 420.043 987.666 420.043 1019.68H422.006Z" fill="#F8EBE5"/>
<path d="M1533.37 659.099C1532.6 658.333 1531.36 658.333 1530.59 659.099L1518.1 671.591C1517.33 672.357 1517.33 673.6 1518.1 674.367C1518.86 675.133 1520.11 675.133 1520.87 674.367L1531.98 663.263L1543.08 674.367C1543.85 675.133 1545.09 675.133 1545.86 674.367C1546.62 673.6 1546.62 672.357 1545.86 671.591L1533.37 659.099ZM422.006 1015.76H423.969C423.969 980.224 440.872 954.288 470.756 935.205C500.756 916.048 543.785 903.85 595.729 896.08C699.612 880.542 838.152 882.838 977.008 881.672C1115.71 880.507 1254.72 875.885 1359.08 846.375C1411.27 831.615 1454.98 810.582 1485.66 780.483C1516.4 750.326 1533.94 711.174 1533.94 660.487H1531.98H1530.01C1530.01 710.15 1512.87 748.283 1482.91 777.681C1452.89 807.138 1409.88 827.93 1358.01 842.597C1254.24 871.941 1115.76 876.581 976.975 877.746C838.338 878.911 699.386 876.607 595.149 892.198C543.033 899.993 499.346 912.291 468.644 931.896C437.827 951.575 420.043 978.666 420.043 1015.76H422.006Z" fill="#F8EBE5"/>
<path d="M785.767 59.2568L784.157 59.4138C783.765 57.765 783.254 56.5088 782.744 55.8022C782.037 54.8601 781.566 54.6638 779.054 54.6638H775.874V73.075C775.874 76.137 776.227 76.4903 780.153 76.7258V78.2568H767.63V76.7258C771.477 76.4903 771.791 76.2155 771.791 73.075V54.6638H768.612C766.217 54.6638 765.471 54.9779 764.882 55.8807C764.372 56.7051 764.019 57.6865 763.508 59.4138H761.899C762.095 56.6659 762.331 54.1927 762.409 51.7981H763.587C764.254 52.7402 764.608 52.7402 765.824 52.7402H782.077C783.215 52.7402 783.529 52.544 784.157 51.7981H785.335C785.374 53.6824 785.57 56.7836 785.767 59.2568ZM802.467 76.6473L798.659 78.7279C797.913 78.7279 797.128 78.3746 796.657 77.982C796.108 77.4325 795.833 76.8044 795.637 76.1763C793.949 77.3147 791.907 78.7279 790.612 78.7279C787.667 78.7279 785.469 76.294 785.469 73.5461C785.469 71.544 786.568 70.2093 788.884 69.4242C791.475 68.5605 794.694 67.5006 795.48 66.8333V65.9696C795.48 63.3787 794.106 62.044 792.182 62.044C791.318 62.044 790.69 62.3973 790.258 62.8684C789.748 63.418 789.552 64.3209 789.159 65.42C788.924 66.1659 788.453 66.4799 787.785 66.4799C786.961 66.4799 785.783 65.6163 785.783 64.5564C785.783 63.889 786.333 63.3787 787.157 62.7899C788.335 62.0047 790.926 60.5522 793.32 60.0027C794.616 60.0027 795.99 60.3952 797.01 61.1803C798.541 62.3973 799.091 64.0068 799.091 65.9696V73.2713C799.091 75.1556 799.758 75.6659 800.465 75.6659C800.936 75.6659 801.486 75.4696 801.996 75.2341L802.467 76.6473ZM795.48 74.5667V68.5605C794.537 69.0316 792.849 69.7382 791.789 70.17C790.455 70.7589 789.513 71.5048 789.513 72.9965C789.513 75.1163 791.122 75.9407 792.221 75.9407C793.242 75.9407 794.42 75.5089 795.48 74.5667ZM823.83 76.7651V78.2568C822.888 78.2568 818.295 78.2568 817.941 78.2961C816.567 76.7258 812.76 71.9366 811.268 70.2486C810.797 69.699 810.483 69.5812 810.208 69.6205C810.051 69.6205 809.815 69.6205 809.619 69.699V73.8601C809.619 76.3725 809.894 76.4903 812.524 76.7651V78.2568H802.985V76.7651C805.694 76.4903 805.89 76.294 805.89 73.8601V55.763C805.89 53.5254 805.654 53.3683 803.142 53.0936V51.6411C805.301 51.4448 807.892 50.8952 809.619 50.3456V68.3642C810.718 68.0895 811.464 67.5399 812.053 66.951C812.956 66.0481 814.448 64.2816 814.958 63.4965C815.625 62.4758 815.351 62.1618 813.663 62.044V60.5522L822.299 60.2382V61.6514C819.512 62.044 818.413 62.5151 816.96 63.9675C816.175 64.7134 814.801 66.2837 813.663 67.5791C814.487 68.7961 818.884 73.8209 819.826 74.8023C821.514 76.451 822.142 76.7258 823.83 76.7651ZM838.711 73.5853L839.496 74.8023C836.748 78.0606 833.764 78.7279 832.272 78.7279C827.208 78.7279 824.068 74.6845 824.068 69.8167C824.068 67.0688 825.167 64.5956 826.737 62.9076C828.543 60.9448 830.702 60.0027 832.979 60.0027C836.905 60.0027 839.653 63.2609 839.653 66.794C839.613 67.6576 839.535 68.0895 838.828 68.2072C837.494 68.4428 832.39 68.7176 827.837 68.8746C827.954 73.5068 830.938 75.5874 833.725 75.5874C835.452 75.5874 837.219 74.8808 838.711 73.5853ZM835.649 65.9304C835.688 63.9283 834.314 61.8084 832.115 61.8084C830.192 61.8084 828.425 63.6535 828.033 66.8725C830.074 66.8333 832.429 66.8333 834.706 66.7547C835.452 66.7155 835.649 66.5585 835.649 65.9304ZM868.324 76.6473L864.517 78.7279C863.771 78.7279 862.986 78.3746 862.515 77.982C861.965 77.4325 861.69 76.8044 861.494 76.1763C859.806 77.3147 857.765 78.7279 856.469 78.7279C853.525 78.7279 851.326 76.294 851.326 73.5461C851.326 71.544 852.426 70.2093 854.742 69.4242C857.333 68.5605 860.552 67.5006 861.337 66.8333V65.9696C861.337 63.3787 859.963 62.044 858.039 62.044C857.176 62.044 856.548 62.3973 856.116 62.8684C855.605 63.418 855.409 64.3209 855.017 65.42C854.781 66.1659 854.31 66.4799 853.643 66.4799C852.818 66.4799 851.641 65.6163 851.641 64.5564C851.641 63.889 852.19 63.3787 853.015 62.7899C854.192 62.0047 856.783 60.5522 859.178 60.0027C860.473 60.0027 861.847 60.3952 862.868 61.1803C864.399 62.3973 864.948 64.0068 864.948 65.9696V73.2713C864.948 75.1556 865.616 75.6659 866.322 75.6659C866.793 75.6659 867.343 75.4696 867.853 75.2341L868.324 76.6473ZM861.337 74.5667V68.5605C860.395 69.0316 858.707 69.7382 857.647 70.17C856.312 70.7589 855.37 71.5048 855.37 72.9965C855.37 75.1163 856.979 75.9407 858.079 75.9407C859.099 75.9407 860.277 75.5089 861.337 74.5667ZM899.61 58.5502C899.61 62.1618 896.705 63.732 894.467 64.3601C897.961 64.949 901.219 66.7155 901.219 70.6019C901.219 73.2713 899.688 75.4696 897.255 76.7258C895.135 77.8643 892.936 78.2568 890.228 78.2568H879.354V76.7258C882.769 76.451 883.004 76.1763 883.004 73.0357V58.0006C883.004 54.7816 882.651 54.5068 879.432 54.2712V52.7402H890.659C893.682 52.7402 895.763 53.1721 897.137 54.1142C898.628 55.0564 899.61 56.5481 899.61 58.5502ZM887.087 63.732H889.325C893.564 63.732 895.331 62.201 895.331 59.0605C895.331 56.2733 893.368 54.5068 889.914 54.5068C888.343 54.5068 887.794 54.6638 887.44 54.9779C887.166 55.2919 887.087 55.7237 887.087 56.7444V63.732ZM887.087 65.5378V73.075C887.087 75.7837 887.715 76.4903 890.777 76.4903C893.761 76.451 896.666 74.9593 896.666 70.9944C896.666 67.0295 893.761 65.5378 889.207 65.5378H887.087ZM913.365 76.7651V78.2568H903.472V76.7651C906.024 76.5296 906.26 76.3333 906.26 73.8994V65.6948C906.26 63.2609 906.063 63.1432 903.826 62.8291V61.4551C906.024 61.1411 907.948 60.67 910.028 59.9241V64.2423C911.677 61.7692 913.443 60.0027 915.171 60.0027C916.741 60.0027 917.722 61.0233 917.722 62.1225C917.722 63.3002 916.937 64.2816 916.113 64.7134C915.642 64.949 915.328 64.8312 915.014 64.5956C914.386 64.0461 913.836 63.6142 913.09 63.6142C912.226 63.6142 910.774 64.8312 910.028 66.9118V73.8994C910.028 76.3333 910.185 76.5688 913.365 76.7651ZM933.586 73.5853L934.371 74.8023C931.623 78.0606 928.64 78.7279 927.148 78.7279C922.084 78.7279 918.944 74.6845 918.944 69.8167C918.944 67.0688 920.043 64.5956 921.613 62.9076C923.419 60.9448 925.578 60.0027 927.855 60.0027C931.78 60.0027 934.528 63.2609 934.528 66.794C934.489 67.6576 934.411 68.0895 933.704 68.2072C932.369 68.4428 927.266 68.7176 922.712 68.8746C922.83 73.5068 925.813 75.5874 928.601 75.5874C930.328 75.5874 932.094 74.8808 933.586 73.5853ZM930.524 65.9304C930.563 63.9283 929.19 61.8084 926.991 61.8084C925.068 61.8084 923.301 63.6535 922.909 66.8725C924.95 66.8333 927.305 66.8333 929.582 66.7547C930.328 66.7155 930.524 66.5585 930.524 65.9304ZM953.981 76.6473L950.174 78.7279C949.428 78.7279 948.643 78.3746 948.171 77.982C947.622 77.4325 947.347 76.8044 947.151 76.1763C945.463 77.3147 943.421 78.7279 942.126 78.7279C939.182 78.7279 936.983 76.294 936.983 73.5461C936.983 71.544 938.083 70.2093 940.399 69.4242C942.99 68.5605 946.209 67.5006 946.994 66.8333V65.9696C946.994 63.3787 945.62 62.044 943.696 62.044C942.833 62.044 942.204 62.3973 941.773 62.8684C941.262 63.418 941.066 64.3209 940.674 65.42C940.438 66.1659 939.967 66.4799 939.3 66.4799C938.475 66.4799 937.297 65.6163 937.297 64.5564C937.297 63.889 937.847 63.3787 938.671 62.7899C939.849 62.0047 942.44 60.5522 944.835 60.0027C946.13 60.0027 947.504 60.3952 948.525 61.1803C950.056 62.3973 950.605 64.0068 950.605 65.9696V73.2713C950.605 75.1556 951.273 75.6659 951.979 75.6659C952.45 75.6659 953 75.4696 953.51 75.2341L953.981 76.6473ZM946.994 74.5667V68.5605C946.052 69.0316 944.364 69.7382 943.304 70.17C941.969 70.7589 941.027 71.5048 941.027 72.9965C941.027 75.1163 942.636 75.9407 943.735 75.9407C944.756 75.9407 945.934 75.5089 946.994 74.5667ZM975.344 76.7651V78.2568C974.402 78.2568 969.809 78.2568 969.456 78.2961C968.082 76.7258 964.274 71.9366 962.782 70.2486C962.311 69.699 961.997 69.5812 961.722 69.6205C961.565 69.6205 961.33 69.6205 961.133 69.699V73.8601C961.133 76.3725 961.408 76.4903 964.038 76.7651V78.2568H954.499V76.7651C957.208 76.4903 957.404 76.294 957.404 73.8601V55.763C957.404 53.5254 957.169 53.3683 954.656 53.0936V51.6411C956.815 51.4448 959.406 50.8952 961.133 50.3456V68.3642C962.233 68.0895 962.978 67.5399 963.567 66.951C964.47 66.0481 965.962 64.2816 966.472 63.4965C967.14 62.4758 966.865 62.1618 965.177 62.044V60.5522L973.813 60.2382V61.6514C971.026 62.044 969.927 62.5151 968.474 63.9675C967.689 64.7134 966.315 66.2837 965.177 67.5791C966.001 68.7961 970.398 73.8209 971.34 74.8023C973.028 76.451 973.656 76.7258 975.344 76.7651Z" fill="#F8EBE5"/>
<rect x="658.526" y="2.94471" width="418.08" height="123.657" rx="61.8287" stroke="#F8EBE5" stroke-width="5.88844" stroke-linejoin="round" stroke-dasharray="11.78 11.78"/>
<path d="M1442.38 1028.71H1428.72V1027.18C1433.24 1026.94 1433.59 1026.75 1433.59 1023.84V1009.4C1433.59 1007.51 1433.16 1007.36 1431.63 1007.24L1429.58 1007.08V1005.71C1432.49 1005.27 1435.2 1004.65 1437.51 1003.78V1023.84C1437.51 1026.75 1437.91 1026.98 1442.38 1027.18V1028.71ZM1453.35 1014.38C1453.35 1016.07 1452.17 1017.25 1450.56 1017.25C1449.03 1017.25 1447.78 1016.07 1447.78 1014.38C1447.78 1012.85 1448.99 1011.63 1450.56 1011.63C1452.13 1011.63 1453.35 1012.89 1453.35 1014.38ZM1453.35 1026.36C1453.35 1028 1452.17 1029.18 1450.56 1029.18C1449.03 1029.18 1447.78 1028.04 1447.78 1026.36C1447.78 1024.78 1448.99 1023.57 1450.56 1023.57C1452.13 1023.57 1453.35 1024.82 1453.35 1026.36ZM1473.13 1028.71H1459.46V1027.18C1463.98 1026.94 1464.33 1026.75 1464.33 1023.84V1009.4C1464.33 1007.51 1463.9 1007.36 1462.37 1007.24L1460.33 1007.08V1005.71C1463.23 1005.27 1465.94 1004.65 1468.26 1003.78V1023.84C1468.26 1026.75 1468.65 1026.98 1473.13 1027.18V1028.71ZM1520.08 1028.71H1508.7V1027.18C1511.96 1026.87 1512.08 1026.67 1512.08 1022.63L1512.15 1007.16C1508.94 1014.22 1504.58 1023.92 1502.61 1028.71H1501.28C1499.36 1023.72 1495.67 1014.46 1492.68 1007.51C1492.21 1017.99 1492.13 1023.37 1492.13 1024.47C1492.21 1026.51 1493.15 1026.87 1495.98 1027.14V1028.71H1485.93V1027.14C1488.29 1026.9 1489.27 1026.55 1489.58 1024.35C1489.82 1022.82 1490.05 1018.58 1490.68 1008.38C1490.84 1005.47 1490.6 1005.04 1486.99 1004.72V1003.19H1494.88L1503.2 1022L1511.92 1003.19H1519.89V1004.72C1516.43 1005.04 1515.96 1005.16 1516.08 1008.57L1516.24 1022.63C1516.35 1026.67 1516.51 1026.87 1520.08 1027.18V1028.71ZM1536.22 1024.04L1537 1025.26C1534.25 1028.51 1531.27 1029.18 1529.78 1029.18C1524.71 1029.18 1521.57 1025.14 1521.57 1020.27C1521.57 1017.52 1522.67 1015.05 1524.24 1013.36C1526.05 1011.4 1528.21 1010.46 1530.48 1010.46C1534.41 1010.46 1537.16 1013.71 1537.16 1017.25C1537.12 1018.11 1537.04 1018.54 1536.33 1018.66C1535 1018.9 1529.9 1019.17 1525.34 1019.33C1525.46 1023.96 1528.44 1026.04 1531.23 1026.04C1532.96 1026.04 1534.72 1025.33 1536.22 1024.04ZM1533.15 1016.38C1533.19 1014.38 1531.82 1012.26 1529.62 1012.26C1527.7 1012.26 1525.93 1014.11 1525.54 1017.33C1527.58 1017.29 1529.94 1017.29 1532.21 1017.21C1532.96 1017.17 1533.15 1017.01 1533.15 1016.38ZM1554.41 1024.04L1555.19 1025.26C1552.44 1028.51 1549.46 1029.18 1547.97 1029.18C1542.9 1029.18 1539.76 1025.14 1539.76 1020.27C1539.76 1017.52 1540.86 1015.05 1542.43 1013.36C1544.24 1011.4 1546.4 1010.46 1548.67 1010.46C1552.6 1010.46 1555.35 1013.71 1555.35 1017.25C1555.31 1018.11 1555.23 1018.54 1554.52 1018.66C1553.19 1018.9 1548.09 1019.17 1543.53 1019.33C1543.65 1023.96 1546.63 1026.04 1549.42 1026.04C1551.15 1026.04 1552.91 1025.33 1554.41 1024.04ZM1551.34 1016.38C1551.38 1014.38 1550.01 1012.26 1547.81 1012.26C1545.89 1012.26 1544.12 1014.11 1543.73 1017.33C1545.77 1017.29 1548.12 1017.29 1550.4 1017.21C1551.15 1017.17 1551.34 1017.01 1551.34 1016.38ZM1568.67 1027.22L1565.97 1028.59C1565.18 1029.02 1564.43 1029.18 1564.04 1029.18C1561.37 1029.18 1559.8 1027.65 1559.8 1024.35V1012.93H1557.01L1556.74 1012.38L1557.92 1010.93H1559.8V1007.47C1560.12 1007.12 1562.67 1005.16 1563.02 1004.84L1563.69 1004.96C1563.61 1006.49 1563.53 1009.36 1563.53 1010.93H1568.01C1568.48 1011.36 1568.36 1012.58 1567.73 1012.93H1563.53V1022.82C1563.53 1025.96 1564.87 1026.47 1565.81 1026.47C1566.67 1026.47 1567.65 1026.08 1568.24 1025.81L1568.67 1027.22ZM1576.72 1004.92C1576.72 1006.22 1575.66 1007.36 1574.25 1007.36C1572.95 1007.36 1571.81 1006.22 1571.81 1004.92C1571.81 1003.51 1572.95 1002.41 1574.29 1002.41C1575.66 1002.41 1576.72 1003.51 1576.72 1004.92ZM1579.27 1028.71H1569.85V1027.22C1572.4 1026.98 1572.68 1026.79 1572.68 1024.08V1016.31C1572.68 1013.79 1572.56 1013.64 1570.13 1013.32V1011.95C1572.6 1011.59 1574.68 1011.08 1576.45 1010.46V1024.08C1576.45 1026.75 1576.68 1026.98 1579.27 1027.22V1028.71ZM1601.56 1028.71H1592.8V1027.22C1594.92 1026.98 1595.16 1026.71 1595.16 1024.27V1017.52C1595.16 1014.74 1593.94 1013.24 1591.71 1013.24C1590.17 1013.24 1588.76 1014.03 1587.47 1015.13V1024.35C1587.47 1026.9 1587.66 1026.98 1589.98 1027.22V1028.71H1580.91V1027.22C1583.54 1026.9 1583.7 1026.75 1583.7 1024.35V1016.27C1583.7 1013.71 1583.38 1013.6 1581.26 1013.28V1011.91C1583.5 1011.59 1585.62 1011.08 1587.47 1010.38V1013.44C1588.21 1012.89 1589.15 1012.26 1590.14 1011.63C1591.27 1010.93 1592.33 1010.46 1593.51 1010.46C1596.73 1010.46 1598.93 1012.81 1598.93 1016.78V1024.35C1598.93 1026.79 1599.16 1026.94 1601.56 1027.22V1028.71ZM1618.36 1016.66C1618.36 1020.78 1614.75 1022.86 1610.9 1022.86C1610.12 1022.86 1609.33 1022.74 1608.58 1022.55C1607.88 1023.18 1607.68 1023.8 1607.68 1024.2C1607.68 1024.82 1608.35 1025.65 1610.15 1025.65C1611.72 1025.65 1613.49 1025.61 1614.83 1025.61C1617.5 1025.61 1620.87 1026.51 1620.87 1030.36C1620.87 1034.8 1615.73 1038.25 1610.31 1038.25C1605.52 1038.25 1602.89 1035.58 1602.89 1033.3C1602.89 1032.28 1603.32 1031.62 1604.03 1030.99C1604.93 1030.2 1606.23 1029.26 1606.97 1028.71C1605.56 1028.28 1604.66 1027.49 1604.07 1026.67C1603.64 1026.04 1603.52 1025.18 1603.52 1024.78C1604.89 1024.16 1606.35 1022.94 1607.09 1022C1605.17 1021.06 1603.76 1019.37 1603.76 1016.89C1603.76 1012.46 1608 1010.42 1611.25 1010.42C1612.71 1010.42 1614.16 1010.77 1615.49 1011.4C1617.5 1011.4 1619.81 1011.12 1621.07 1010.85L1621.34 1011.24C1621.03 1011.87 1620.24 1013.2 1619.65 1013.56C1619.38 1013.56 1617.5 1013.36 1617.26 1013.36C1617.89 1014.15 1618.36 1015.25 1618.36 1016.66ZM1614.51 1016.78C1614.51 1014.03 1613.1 1012.03 1610.94 1012.03C1609.29 1012.03 1607.72 1013.52 1607.72 1016.46C1607.72 1019.25 1609.17 1021.25 1611.25 1021.25C1613.06 1021.21 1614.51 1019.76 1614.51 1016.78ZM1615.85 1029.34C1614.79 1028.95 1613.61 1028.87 1611.92 1028.87C1609.72 1028.87 1609.06 1029.02 1608.43 1029.5C1607.01 1030.4 1606.43 1031.46 1606.43 1032.48C1606.43 1034.48 1608.47 1036.09 1611.8 1036.09C1615.45 1036.09 1617.61 1034.28 1617.61 1031.93C1617.61 1030.63 1616.91 1029.73 1615.85 1029.34Z" fill="#F8EBE5"/>
<rect x="1314.1" y="953.399" width="418.08" height="123.657" rx="61.8287" stroke="#F8EBE5" stroke-width="5.88844" stroke-linejoin="round" stroke-dasharray="11.78 11.78"/>
<path d="M779.061 1003.19V1004.72C775.764 1004.96 775.411 1005.16 775.411 1008.41V1023.53C775.411 1026.79 775.764 1026.9 779.061 1027.18V1028.71H767.599V1027.18C771.014 1026.87 771.249 1026.67 771.249 1023.49V1016.23H758.334V1023.49C758.334 1026.71 758.648 1026.9 761.985 1027.18V1028.71H750.522V1027.18C753.859 1026.9 754.173 1026.75 754.173 1023.49V1008.41C754.173 1005.16 753.82 1004.96 750.522 1004.72V1003.19H761.985V1004.72C758.727 1004.96 758.334 1005.2 758.334 1008.41V1014.07H771.249V1008.41C771.249 1005.2 770.857 1004.96 767.599 1004.72V1003.19H779.061ZM798.01 1027.1L794.202 1029.18C793.456 1029.18 792.671 1028.83 792.2 1028.44C791.65 1027.89 791.376 1027.26 791.179 1026.63C789.491 1027.77 787.45 1029.18 786.155 1029.18C783.21 1029.18 781.012 1026.75 781.012 1024C781.012 1022 782.111 1020.66 784.427 1019.88C787.018 1019.01 790.237 1017.95 791.022 1017.29V1016.42C791.022 1013.83 789.648 1012.5 787.725 1012.5C786.861 1012.5 786.233 1012.85 785.801 1013.32C785.291 1013.87 785.095 1014.77 784.702 1015.87C784.467 1016.62 783.996 1016.93 783.328 1016.93C782.504 1016.93 781.326 1016.07 781.326 1015.01C781.326 1014.34 781.876 1013.83 782.7 1013.24C783.878 1012.46 786.469 1011.01 788.863 1010.46C790.159 1010.46 791.533 1010.85 792.553 1011.63C794.084 1012.85 794.634 1014.46 794.634 1016.42V1023.72C794.634 1025.61 795.301 1026.12 796.008 1026.12C796.479 1026.12 797.029 1025.92 797.539 1025.69L798.01 1027.1ZM791.022 1025.02V1019.01C790.08 1019.49 788.392 1020.19 787.332 1020.62C785.998 1021.21 785.055 1021.96 785.055 1023.45C785.055 1025.57 786.665 1026.39 787.764 1026.39C788.785 1026.39 789.962 1025.96 791.022 1025.02ZM809.048 1027.22V1028.71H799.156V1027.22C801.707 1026.98 801.943 1026.79 801.943 1024.35V1016.15C801.943 1013.71 801.747 1013.6 799.509 1013.28V1011.91C801.707 1011.59 803.631 1011.12 805.712 1010.38V1014.7C807.36 1012.22 809.127 1010.46 810.854 1010.46C812.424 1010.46 813.406 1011.48 813.406 1012.58C813.406 1013.75 812.621 1014.74 811.796 1015.17C811.325 1015.4 811.011 1015.28 810.697 1015.05C810.069 1014.5 809.519 1014.07 808.774 1014.07C807.91 1014.07 806.457 1015.28 805.712 1017.37V1024.35C805.712 1026.79 805.869 1027.02 809.048 1027.22ZM834.844 1026.2V1027.69C833.941 1027.85 830.644 1028.36 827.935 1029.18V1026.67C827.66 1026.83 825.658 1027.96 825.383 1028.16C823.97 1028.95 822.871 1029.18 822.478 1029.18C819.142 1029.18 814.627 1026.04 814.627 1020.35C814.627 1014.74 819.652 1010.46 825.423 1010.46C825.815 1010.46 827.071 1010.57 827.935 1010.85V1006.1C827.935 1003.82 827.66 1003.66 824.794 1003.47V1002.02C826.836 1001.82 830.173 1001.31 831.743 1000.8C831.743 1002.06 831.704 1004.45 831.704 1006.84V1023.76C831.704 1025.81 832.057 1026 833.588 1026.12L834.844 1026.2ZM827.935 1025.06V1014.3C827.032 1013.01 825.501 1012.38 823.892 1012.38C822.439 1012.38 818.828 1013.44 818.828 1019.25C818.828 1024.16 821.929 1026.32 824.206 1026.36C825.462 1026.36 826.954 1025.77 827.935 1025.06ZM879.437 1028.71H868.052V1027.18C871.311 1026.87 871.428 1026.67 871.428 1022.63L871.507 1007.16C868.288 1014.22 863.931 1023.92 861.968 1028.71H860.633C858.709 1023.72 855.019 1014.46 852.036 1007.51C851.565 1017.99 851.486 1023.37 851.486 1024.47C851.565 1026.51 852.507 1026.87 855.333 1027.14V1028.71H845.284V1027.14C847.639 1026.9 848.621 1026.55 848.935 1024.35C849.17 1022.82 849.406 1018.58 850.034 1008.38C850.191 1005.47 849.955 1005.04 846.344 1004.72V1003.19H854.234L862.557 1022L871.271 1003.19H879.24V1004.72C875.786 1005.04 875.315 1005.16 875.433 1008.57L875.59 1022.63C875.707 1026.67 875.864 1026.87 879.437 1027.18V1028.71ZM880.926 1020.03C880.926 1013.95 885.716 1010.46 890.269 1010.46C895.647 1010.46 899.298 1014.54 899.298 1019.52C899.298 1026.12 894.352 1029.18 890.191 1029.18C884.381 1029.18 880.926 1024.55 880.926 1020.03ZM894.98 1020.47C894.98 1015.48 893.017 1012.18 889.759 1012.18C887.482 1012.18 885.245 1014.26 885.245 1018.97C885.245 1024.08 887.521 1027.45 890.623 1027.45C892.86 1027.45 894.98 1025.73 894.98 1020.47ZM933.169 1028.71H924.218V1027.22C926.377 1026.98 926.809 1026.83 926.809 1024.31V1017.6C926.809 1014.7 925.475 1013.24 923.433 1013.24C922.02 1013.24 920.646 1013.99 919.154 1015.17C919.194 1015.64 919.272 1016.19 919.272 1016.86V1024.51C919.272 1026.79 919.665 1026.98 921.824 1027.22V1028.71H912.795V1027.22C915.15 1026.98 915.543 1026.87 915.543 1024.39V1017.56C915.543 1014.66 914.287 1013.24 912.206 1013.24C910.793 1013.24 909.379 1014.07 908.006 1015.17V1024.39C908.006 1026.83 908.32 1026.98 910.282 1027.22V1028.71H901.45V1027.22C904.08 1026.94 904.276 1026.79 904.276 1024.39V1016.19C904.276 1013.75 904.08 1013.6 901.882 1013.28V1011.91C903.923 1011.63 906.043 1011.12 908.006 1010.38V1013.52C908.869 1012.89 909.694 1012.26 910.989 1011.52C911.931 1010.93 912.873 1010.46 914.208 1010.46C916.249 1010.46 917.898 1011.63 918.762 1013.68C919.861 1012.81 920.882 1012.18 921.902 1011.52C922.805 1010.97 923.944 1010.46 925.2 1010.46C928.458 1010.46 930.539 1012.73 930.539 1016.78V1024.39C930.539 1026.79 930.853 1026.98 933.169 1027.22V1028.71ZM949.851 1024.04L950.636 1025.26C947.888 1028.51 944.905 1029.18 943.413 1029.18C938.349 1029.18 935.208 1025.14 935.208 1020.27C935.208 1017.52 936.307 1015.05 937.878 1013.36C939.684 1011.4 941.843 1010.46 944.119 1010.46C948.045 1010.46 950.793 1013.71 950.793 1017.25C950.754 1018.11 950.675 1018.54 949.969 1018.66C948.634 1018.9 943.531 1019.17 938.977 1019.33C939.095 1023.96 942.078 1026.04 944.865 1026.04C946.593 1026.04 948.359 1025.33 949.851 1024.04ZM946.789 1016.38C946.828 1014.38 945.454 1012.26 943.256 1012.26C941.332 1012.26 939.566 1014.11 939.173 1017.33C941.214 1017.29 943.57 1017.29 945.847 1017.21C946.593 1017.17 946.789 1017.01 946.789 1016.38ZM973.468 1028.71H964.714V1027.22C966.834 1026.98 967.069 1026.71 967.069 1024.27V1017.52C967.069 1014.74 965.852 1013.24 963.615 1013.24C962.084 1013.24 960.67 1014.03 959.375 1015.13V1024.35C959.375 1026.9 959.571 1026.98 961.887 1027.22V1028.71H952.819V1027.22C955.449 1026.9 955.606 1026.75 955.606 1024.35V1016.27C955.606 1013.71 955.292 1013.6 953.172 1013.28V1011.91C955.41 1011.59 957.53 1011.08 959.375 1010.38V1013.44C960.121 1012.89 961.063 1012.26 962.044 1011.63C963.183 1010.93 964.243 1010.46 965.42 1010.46C968.639 1010.46 970.838 1012.81 970.838 1016.78V1024.35C970.838 1026.79 971.073 1026.94 973.468 1027.22V1028.71ZM986.257 1027.22L983.549 1028.59C982.764 1029.02 982.018 1029.18 981.625 1029.18C978.956 1029.18 977.386 1027.65 977.386 1024.35V1012.93H974.598L974.324 1012.38L975.501 1010.93H977.386V1007.47C977.7 1007.12 980.251 1005.16 980.605 1004.84L981.272 1004.96C981.193 1006.49 981.115 1009.36 981.115 1010.93H985.59C986.061 1011.36 985.943 1012.58 985.315 1012.93H981.115V1022.82C981.115 1025.96 982.45 1026.47 983.392 1026.47C984.255 1026.47 985.237 1026.08 985.826 1025.81L986.257 1027.22Z" fill="#F8EBE5"/>
<rect x="658.526" y="953.399" width="418.08" height="123.657" rx="61.8287" stroke="#F8EBE5" stroke-width="5.88844" stroke-linejoin="round" stroke-dasharray="11.78 11.78"/>
<g clip-path="url(#clip0_363_109)">
<path d="M213.455 654.596C294.486 654.596 360.175 588.908 360.175 507.877C360.175 426.847 294.486 361.158 213.455 361.158C132.425 361.158 66.7363 426.847 66.7363 507.877C66.7363 588.908 132.425 654.596 213.455 654.596Z" fill="#F8EBE5"/>
<path d="M144.944 513.491L146.554 514.08C145.965 516.239 144.826 519.341 144.198 520.479C142.981 520.715 139.802 521.5 136.74 521.5C126.651 521.5 122.058 514.826 122.058 508.427C122.058 500.144 128.417 494.766 137.643 494.766C141.019 494.766 143.806 495.473 145.023 495.708C145.298 497.671 145.651 500.262 145.886 502.303L144.277 502.617C143.492 499.791 142.393 498.221 140.508 497.396C139.448 496.925 138.074 496.69 136.504 496.69C130.027 496.69 126.886 501.636 126.886 507.564C126.886 514.944 131.087 519.537 137.014 519.537C140.979 519.537 142.824 517.653 144.944 513.491ZM173.182 501.872L171.573 502.029C171.18 500.38 170.67 499.124 170.16 498.417C169.453 497.475 168.982 497.279 166.47 497.279H163.29V515.69C163.29 518.752 163.643 519.105 167.569 519.341V520.872H155.046V519.341C158.893 519.105 159.207 518.83 159.207 515.69V497.279H156.027C153.633 497.279 152.887 497.593 152.298 498.495C151.788 499.32 151.434 500.301 150.924 502.029H149.315C149.511 499.281 149.746 496.807 149.825 494.413H151.003C151.67 495.355 152.023 495.355 153.24 495.355H169.492C170.631 495.355 170.945 495.159 171.573 494.413H172.751C172.79 496.297 172.986 499.398 173.182 501.872ZM196.137 501.165C196.137 504.777 193.232 506.347 190.994 506.975C194.488 507.564 197.746 509.33 197.746 513.217C197.746 515.886 196.215 518.084 193.781 519.341C191.662 520.479 189.463 520.872 186.755 520.872H175.881V519.341C179.296 519.066 179.531 518.791 179.531 515.65V500.615C179.531 497.396 179.178 497.122 175.959 496.886V495.355H187.186C190.209 495.355 192.29 495.787 193.664 496.729C195.155 497.671 196.137 499.163 196.137 501.165ZM183.614 506.347H185.852C190.091 506.347 191.858 504.816 191.858 501.675C191.858 498.888 189.895 497.122 186.441 497.122C184.87 497.122 184.321 497.279 183.967 497.593C183.693 497.907 183.614 498.338 183.614 499.359V506.347ZM183.614 508.153V515.69C183.614 518.398 184.242 519.105 187.304 519.105C190.288 519.066 193.193 517.574 193.193 513.609C193.193 509.644 190.288 508.153 185.734 508.153H183.614ZM230.251 513.923L231.861 514.277C231.625 515.533 230.644 519.772 230.29 520.872H209.642V519.341C213.567 519.105 213.764 518.752 213.764 515.572V500.694C213.764 497.318 213.371 497.122 210.191 496.886V495.355H223.303C226.012 495.355 228.053 495.316 229.309 495.276C229.348 496.062 229.505 498.927 229.702 501.44L228.092 501.675C227.739 500.301 227.268 499.202 226.797 498.535C226.208 497.553 225.462 497.279 223.067 497.279H219.338C217.925 497.279 217.846 497.357 217.846 498.574V506.622H222.007C225.187 506.622 225.344 506.307 225.894 503.363H227.503V511.882H225.894C225.305 508.898 224.991 508.663 222.007 508.663H217.846V515.572C217.846 518.32 218.474 518.909 220.908 518.948H224.363C226.6 518.948 227.189 518.752 228.092 517.731C228.799 516.985 229.662 515.336 230.251 513.923ZM265.643 520.872H256.692V519.38C258.852 519.144 259.283 518.987 259.283 516.475V509.762C259.283 506.857 257.949 505.405 255.907 505.405C254.494 505.405 253.12 506.15 251.628 507.328C251.668 507.799 251.746 508.349 251.746 509.016V516.671C251.746 518.948 252.139 519.144 254.298 519.38V520.872H245.269V519.38C247.624 519.144 248.017 519.027 248.017 516.553V509.723C248.017 506.818 246.761 505.405 244.68 505.405C243.267 505.405 241.854 506.229 240.48 507.328V516.553C240.48 518.987 240.794 519.144 242.756 519.38V520.872H233.924V519.38C236.554 519.105 236.75 518.948 236.75 516.553V508.349C236.75 505.915 236.554 505.758 234.356 505.444V504.07C236.397 503.795 238.517 503.285 240.48 502.539V505.679C241.343 505.051 242.168 504.423 243.463 503.677C244.405 503.088 245.347 502.617 246.682 502.617C248.723 502.617 250.372 503.795 251.236 505.836C252.335 504.973 253.356 504.345 254.376 503.677C255.279 503.128 256.418 502.617 257.674 502.617C260.932 502.617 263.013 504.894 263.013 508.938V516.553C263.013 518.948 263.327 519.144 265.643 519.38V520.872ZM284.607 519.262L280.8 521.343C280.054 521.343 279.269 520.989 278.797 520.597C278.248 520.047 277.973 519.419 277.777 518.791C276.089 519.929 274.047 521.343 272.752 521.343C269.808 521.343 267.609 518.909 267.609 516.161C267.609 514.159 268.709 512.824 271.025 512.039C273.616 511.175 276.835 510.115 277.62 509.448V508.584C277.62 505.993 276.246 504.659 274.322 504.659C273.459 504.659 272.83 505.012 272.399 505.483C271.888 506.033 271.692 506.936 271.299 508.035C271.064 508.781 270.593 509.095 269.926 509.095C269.101 509.095 267.923 508.231 267.923 507.171C267.923 506.504 268.473 505.993 269.297 505.405C270.475 504.619 273.066 503.167 275.461 502.617C276.756 502.617 278.13 503.01 279.151 503.795C280.682 505.012 281.231 506.622 281.231 508.584V515.886C281.231 517.77 281.899 518.281 282.605 518.281C283.076 518.281 283.626 518.084 284.136 517.849L284.607 519.262ZM277.62 517.181V511.175C276.678 511.646 274.99 512.353 273.93 512.785C272.595 513.374 271.653 514.119 271.653 515.611C271.653 517.731 273.262 518.555 274.361 518.555C275.382 518.555 276.56 518.124 277.62 517.181ZM292.584 497.082C292.584 498.378 291.524 499.516 290.111 499.516C288.815 499.516 287.677 498.378 287.677 497.082C287.677 495.669 288.815 494.57 290.15 494.57C291.524 494.57 292.584 495.669 292.584 497.082ZM295.135 520.872H285.714V519.38C288.266 519.144 288.54 518.948 288.54 516.239V508.467C288.54 505.954 288.423 505.797 285.989 505.483V504.109C288.462 503.756 290.542 503.246 292.309 502.617V516.239C292.309 518.909 292.545 519.144 295.135 519.38V520.872ZM306.033 520.872H296.415V519.38C299.006 519.144 299.281 518.909 299.281 516.475V498.495C299.281 496.14 299.084 495.944 296.533 495.708V494.256C299.006 494.06 301.597 493.431 303.049 492.96V516.475C303.049 518.948 303.363 519.144 306.033 519.38V520.872Z" fill="#554D65"/>
</g>
<g clip-path="url(#clip1_363_109)">
<path d="M650.182 654.596C731.213 654.596 796.901 588.908 796.901 507.877C796.901 426.847 731.213 361.158 650.182 361.158C569.151 361.158 503.463 426.847 503.463 507.877C503.463 588.908 569.151 654.596 650.182 654.596Z" fill="#F8EBE5"/>
<path d="M619.066 495.355H630.175C633.08 495.355 635.514 495.865 637.202 497.082C638.812 498.26 639.989 500.144 639.989 502.774C639.989 508.231 635.553 510.586 631.549 510.861C630.96 510.94 630.215 510.9 629.783 510.9L626.839 510.155V515.572C626.839 518.909 627.113 519.027 630.882 519.341V520.872H619.066V519.341C622.599 519.066 622.717 518.791 622.717 515.572V500.694C622.717 497.239 622.246 497.082 619.066 496.886V495.355ZM626.839 499.124V508.388C627.31 508.624 628.448 508.898 629.743 508.898C632.531 508.898 635.553 507.524 635.553 502.931C635.553 498.81 632.845 497.043 629.586 497.043C628.212 497.043 627.545 497.279 627.27 497.593C626.956 497.867 626.839 498.221 626.839 499.124ZM641.463 512.196C641.463 506.111 646.252 502.617 650.806 502.617C656.184 502.617 659.835 506.7 659.835 511.686C659.835 518.281 654.889 521.343 650.728 521.343C644.918 521.343 641.463 516.71 641.463 512.196ZM655.517 512.628C655.517 507.642 653.554 504.345 650.296 504.345C648.019 504.345 645.781 506.425 645.781 511.136C645.781 516.239 648.058 519.615 651.159 519.615C653.397 519.615 655.517 517.888 655.517 512.628ZM682.668 518.359V519.851C681.765 520.008 678.468 520.518 675.759 521.343V518.83C675.484 518.987 673.482 520.126 673.207 520.322C671.794 521.107 670.695 521.343 670.302 521.343C666.965 521.343 662.451 518.202 662.451 512.51C662.451 506.896 667.476 502.617 673.247 502.617C673.639 502.617 674.895 502.735 675.759 503.01V498.26C675.759 495.983 675.484 495.826 672.618 495.63V494.177C674.66 493.981 677.997 493.471 679.567 492.96C679.567 494.217 679.528 496.611 679.528 499.006V515.925C679.528 517.967 679.881 518.163 681.412 518.281L682.668 518.359ZM675.759 517.221V506.465C674.856 505.169 673.325 504.541 671.716 504.541C670.263 504.541 666.651 505.601 666.651 511.411C666.651 516.318 669.753 518.477 672.03 518.516C673.286 518.516 674.777 517.927 675.759 517.221Z" fill="#554D65"/>
</g>
<g clip-path="url(#clip2_363_109)">
<path d="M1086.91 654.596C1167.94 654.596 1233.63 588.908 1233.63 507.877C1233.63 426.847 1167.94 361.158 1086.91 361.158C1005.88 361.158 940.189 426.847 940.189 507.877C940.189 588.908 1005.88 654.596 1086.91 654.596Z" fill="#F8EBE5"/>
<path d="M1052.42 487.076V488.646C1049.94 488.999 1049.79 489.117 1049.79 491.551V494.692C1049.79 496.026 1049.82 497.361 1050.02 498.421C1047.51 499.01 1044.21 499.834 1040.87 499.834C1031.53 499.834 1026 494.181 1026 486.409C1026 477.89 1033.06 473.101 1041.31 473.101C1045.04 473.101 1048.1 473.964 1049.43 474.161C1049.51 475.574 1049.75 478.086 1050.1 480.913L1048.53 481.227C1047.67 477.772 1046.21 476.202 1044.01 475.456C1042.99 475.103 1041.62 474.946 1040.4 474.946C1034.59 474.946 1030.79 478.832 1030.79 485.937C1030.79 491.787 1033.97 497.989 1041.42 497.989C1042.6 497.989 1043.7 497.793 1044.45 497.4C1045.15 496.968 1045.7 496.38 1045.7 494.731V492.14C1045.7 489.196 1045.47 488.96 1041.31 488.646V487.076H1052.42ZM1072.07 497.597L1068.26 499.677C1067.51 499.677 1066.73 499.324 1066.26 498.931C1065.71 498.382 1065.43 497.754 1065.24 497.125C1063.55 498.264 1061.51 499.677 1060.21 499.677C1057.27 499.677 1055.07 497.243 1055.07 494.495C1055.07 492.493 1056.17 491.159 1058.48 490.373C1061.07 489.51 1064.29 488.45 1065.08 487.782V486.919C1065.08 484.328 1063.7 482.993 1061.78 482.993C1060.92 482.993 1060.29 483.347 1059.86 483.818C1059.35 484.367 1059.15 485.27 1058.76 486.369C1058.52 487.115 1058.05 487.429 1057.38 487.429C1056.56 487.429 1055.38 486.566 1055.38 485.506C1055.38 484.838 1055.93 484.328 1056.76 483.739C1057.93 482.954 1060.53 481.501 1062.92 480.952C1064.22 480.952 1065.59 481.344 1066.61 482.13C1068.14 483.347 1068.69 484.956 1068.69 486.919V494.221C1068.69 496.105 1069.36 496.615 1070.06 496.615C1070.54 496.615 1071.09 496.419 1071.6 496.183L1072.07 497.597ZM1065.08 495.516V489.51C1064.14 489.981 1062.45 490.687 1061.39 491.119C1060.05 491.708 1059.11 492.454 1059.11 493.946C1059.11 496.066 1060.72 496.89 1061.82 496.89C1062.84 496.89 1064.02 496.458 1065.08 495.516ZM1083.1 497.714V499.206H1073.21V497.714C1075.76 497.479 1076 497.282 1076 494.849V486.644C1076 484.21 1075.8 484.092 1073.57 483.778V482.404C1075.76 482.09 1077.69 481.619 1079.77 480.873V485.192C1081.42 482.718 1083.18 480.952 1084.91 480.952C1086.48 480.952 1087.46 481.973 1087.46 483.072C1087.46 484.249 1086.68 485.231 1085.85 485.663C1085.38 485.898 1085.07 485.78 1084.75 485.545C1084.13 484.995 1083.58 484.563 1082.83 484.563C1081.97 484.563 1080.51 485.78 1079.77 487.861V494.849C1079.77 497.282 1079.93 497.518 1083.1 497.714ZM1108.9 496.694V498.185C1108 498.342 1104.7 498.853 1101.99 499.677V497.165C1101.72 497.322 1099.71 498.46 1099.44 498.656C1098.03 499.442 1096.93 499.677 1096.53 499.677C1093.2 499.677 1088.68 496.537 1088.68 490.844C1088.68 485.231 1093.71 480.952 1099.48 480.952C1099.87 480.952 1101.13 481.07 1101.99 481.344V476.594C1101.99 474.318 1101.72 474.161 1098.85 473.964V472.512C1100.89 472.315 1104.23 471.805 1105.8 471.295C1105.8 472.551 1105.76 474.946 1105.76 477.34V494.26C1105.76 496.301 1106.11 496.497 1107.64 496.615L1108.9 496.694ZM1101.99 495.555V484.799C1101.09 483.504 1099.56 482.875 1097.95 482.875C1096.5 482.875 1092.88 483.935 1092.88 489.745C1092.88 494.652 1095.99 496.811 1098.26 496.851C1099.52 496.851 1101.01 496.262 1101.99 495.555ZM1125.08 494.535L1125.87 495.752C1123.12 499.01 1120.13 499.677 1118.64 499.677C1113.58 499.677 1110.44 495.634 1110.44 490.766C1110.44 488.018 1111.54 485.545 1113.11 483.857C1114.91 481.894 1117.07 480.952 1119.35 480.952C1123.28 480.952 1126.02 484.21 1126.02 487.743C1125.98 488.607 1125.91 489.039 1125.2 489.156C1123.86 489.392 1118.76 489.667 1114.21 489.824C1114.32 494.456 1117.31 496.537 1120.1 496.537C1121.82 496.537 1123.59 495.83 1125.08 494.535ZM1122.02 486.88C1122.06 484.878 1120.68 482.758 1118.49 482.758C1116.56 482.758 1114.8 484.603 1114.4 487.822C1116.44 487.782 1118.8 487.782 1121.08 487.704C1121.82 487.665 1122.02 487.508 1122.02 486.88ZM1148.7 499.206H1139.94V497.714C1142.06 497.479 1142.3 497.204 1142.3 494.77V488.018C1142.3 485.231 1141.08 483.739 1138.84 483.739C1137.31 483.739 1135.9 484.524 1134.6 485.623V494.849C1134.6 497.4 1134.8 497.479 1137.12 497.714V499.206H1128.05V497.714C1130.68 497.4 1130.84 497.243 1130.84 494.849V486.762C1130.84 484.21 1130.52 484.092 1128.4 483.778V482.404C1130.64 482.09 1132.76 481.58 1134.6 480.873V483.935C1135.35 483.386 1136.29 482.758 1137.27 482.13C1138.41 481.423 1139.47 480.952 1140.65 480.952C1143.87 480.952 1146.07 483.307 1146.07 487.272V494.849C1146.07 497.282 1146.3 497.44 1148.7 497.714V499.206ZM1043.9 543.206H1033.11V541.675C1035.81 541.361 1035.97 541.008 1035.42 539.594C1034.91 538.103 1034.24 536.336 1033.58 534.491H1024.86C1024.39 535.826 1023.84 537.239 1023.37 538.692C1022.59 540.968 1023.02 541.361 1026.31 541.675V543.206H1016.46V541.675C1019.33 541.322 1019.76 541.165 1021.17 537.671L1029.38 517.493L1031.34 517.14C1033.89 523.931 1036.6 530.84 1039.19 537.632C1040.49 540.968 1040.88 541.361 1043.9 541.675V543.206ZM1032.87 532.411L1029.3 522.714C1028.16 525.816 1026.75 529.349 1025.61 532.411H1032.87ZM1054.76 541.714V543.206H1044.86V541.714C1047.42 541.479 1047.65 541.282 1047.65 538.849V530.644C1047.65 528.21 1047.46 528.092 1045.22 527.778V526.404C1047.42 526.09 1049.34 525.619 1051.42 524.873V529.192C1053.07 526.718 1054.84 524.952 1056.56 524.952C1058.13 524.952 1059.11 525.973 1059.11 527.072C1059.11 528.249 1058.33 529.231 1057.51 529.663C1057.03 529.898 1056.72 529.78 1056.41 529.545C1055.78 528.995 1055.23 528.563 1054.48 528.563C1053.62 528.563 1052.17 529.78 1051.42 531.861V538.849C1051.42 541.282 1051.58 541.518 1054.76 541.714ZM1072.28 541.714L1069.58 543.088C1068.79 543.52 1068.04 543.677 1067.65 543.677C1064.98 543.677 1063.41 542.146 1063.41 538.849V527.425H1060.63L1060.35 526.875L1061.53 525.423H1063.41V521.968C1063.73 521.615 1066.28 519.652 1066.63 519.338L1067.3 519.456C1067.22 520.987 1067.14 523.853 1067.14 525.423H1071.62C1072.09 525.855 1071.97 527.072 1071.34 527.425H1067.14V537.318C1067.14 540.458 1068.48 540.968 1069.42 540.968C1070.28 540.968 1071.26 540.576 1071.85 540.301L1072.28 541.714ZM1119.97 517.689V519.22C1117.19 519.574 1116.6 519.966 1115.58 522.95C1114.24 526.875 1110.63 537.985 1108.9 543.52H1106.94C1105.17 538.338 1102.5 530.919 1100.19 524.756C1098.03 531.154 1095.75 537.435 1093.71 543.52H1091.75C1090.06 537.749 1087.43 529.27 1085.35 522.989C1084.33 519.966 1083.82 519.495 1081.19 519.22V517.689H1091.94V519.22C1088.96 519.535 1088.84 519.927 1089.35 521.694C1090.88 526.836 1092.38 531.665 1093.95 536.925C1096.11 530.723 1098.3 524.324 1100.34 517.964H1102.15C1104.39 524.324 1106.55 530.369 1108.9 537.004C1110.59 531.822 1112.79 524.756 1113.42 522.204C1113.93 520.084 1113.69 519.495 1110.12 519.22V517.689H1119.97ZM1134.7 541.597L1130.9 543.677C1130.15 543.677 1129.37 543.324 1128.89 542.931C1128.35 542.382 1128.07 541.754 1127.87 541.125C1126.19 542.264 1124.14 543.677 1122.85 543.677C1119.91 543.677 1117.71 541.243 1117.71 538.495C1117.71 536.493 1118.81 535.159 1121.12 534.373C1123.71 533.51 1126.93 532.45 1127.72 531.782V530.919C1127.72 528.328 1126.34 526.993 1124.42 526.993C1123.56 526.993 1122.93 527.347 1122.5 527.818C1121.99 528.367 1121.79 529.27 1121.4 530.369C1121.16 531.115 1120.69 531.429 1120.02 531.429C1119.2 531.429 1118.02 530.566 1118.02 529.506C1118.02 528.838 1118.57 528.328 1119.39 527.739C1120.57 526.954 1123.16 525.501 1125.56 524.952C1126.85 524.952 1128.23 525.344 1129.25 526.13C1130.78 527.347 1131.33 528.956 1131.33 530.919V538.221C1131.33 540.105 1132 540.615 1132.7 540.615C1133.17 540.615 1133.72 540.419 1134.23 540.183L1134.7 541.597ZM1127.72 539.516V533.51C1126.77 533.981 1125.09 534.687 1124.03 535.119C1122.69 535.708 1121.75 536.454 1121.75 537.946C1121.75 540.066 1123.36 540.89 1124.46 540.89C1125.48 540.89 1126.66 540.458 1127.72 539.516ZM1144.88 543.206H1135.26V541.714C1137.85 541.479 1138.13 541.243 1138.13 538.809V520.83C1138.13 518.475 1137.93 518.278 1135.38 518.043V516.59C1137.85 516.394 1140.44 515.766 1141.9 515.295V538.809C1141.9 541.282 1142.21 541.479 1144.88 541.714V543.206ZM1155.67 543.206H1146.05V541.714C1148.64 541.479 1148.92 541.243 1148.92 538.809V520.83C1148.92 518.475 1148.72 518.278 1146.17 518.043V516.59C1148.64 516.394 1151.23 515.766 1152.69 515.295V538.809C1152.69 541.282 1153 541.479 1155.67 541.714V543.206Z" fill="#554D65"/>
</g>
<g clip-path="url(#clip3_363_109)">
<path d="M1523.63 654.596C1604.66 654.596 1670.35 588.908 1670.35 507.877C1670.35 426.847 1604.66 361.158 1523.63 361.158C1442.6 361.158 1376.91 426.847 1376.91 507.877C1376.91 588.908 1442.6 654.596 1523.63 654.596Z" fill="#F8EBE5"/>
<path d="M1465.22 498.068L1464.99 499.559C1464.44 499.559 1463.81 499.481 1463.22 499.442C1460.08 499.206 1458.39 498.382 1456.63 495.948C1455.21 494.024 1453.84 491.669 1452.66 489.745C1451.96 488.685 1451.37 488.371 1449.64 488.371H1448.03V493.906C1448.03 497.165 1448.42 497.4 1451.72 497.675V499.206H1440.3V497.675C1443.67 497.4 1443.99 497.204 1443.99 493.906V478.95C1443.99 475.652 1443.56 475.456 1440.3 475.22V473.689H1451.13C1454.19 473.689 1456.27 474.043 1457.84 475.024C1459.57 476.045 1460.75 477.851 1460.75 480.324C1460.75 483.818 1458.36 485.898 1455.61 487.037C1456.27 488.214 1457.96 490.687 1459.14 492.454C1460.67 494.613 1461.3 495.398 1462.24 496.34C1463.22 497.4 1464.32 497.832 1465.22 498.068ZM1448.03 486.605H1449.95C1452.03 486.605 1453.37 486.251 1454.31 485.506C1455.8 484.446 1456.39 482.993 1456.39 480.913C1456.39 476.83 1453.61 475.417 1450.74 475.417C1449.44 475.417 1448.74 475.613 1448.46 475.888C1448.15 476.163 1448.03 476.673 1448.03 477.576V486.605ZM1480.56 494.535L1481.34 495.752C1478.59 499.01 1475.61 499.677 1474.12 499.677C1469.06 499.677 1465.91 495.634 1465.91 490.766C1465.91 488.018 1467.01 485.545 1468.58 483.857C1470.39 481.894 1472.55 480.952 1474.83 480.952C1478.75 480.952 1481.5 484.21 1481.5 487.743C1481.46 488.607 1481.38 489.039 1480.68 489.156C1479.34 489.392 1474.24 489.667 1469.68 489.824C1469.8 494.456 1472.78 496.537 1475.57 496.537C1477.3 496.537 1479.07 495.83 1480.56 494.535ZM1477.5 486.88C1477.53 484.878 1476.16 482.758 1473.96 482.758C1472.04 482.758 1470.27 484.603 1469.88 487.822C1471.92 487.782 1474.28 487.782 1476.55 487.704C1477.3 487.665 1477.5 487.508 1477.5 486.88ZM1484.31 481.423H1486.31V480.913C1486.31 478.204 1487.49 475.417 1489.77 473.493C1491.26 472.198 1492.87 471.452 1494.52 471.256C1495.97 471.295 1497.27 471.766 1497.93 472.551C1498.36 473.022 1498.36 473.532 1498.21 474.082C1498.09 474.514 1497.66 475.142 1497.15 475.495C1496.64 475.809 1496.28 475.809 1495.85 475.456C1495.11 474.789 1493.85 473.768 1492.55 473.768C1490 473.768 1490 477.144 1490.04 480.206L1490.08 481.423H1494.56C1494.79 481.855 1494.6 483.111 1494.05 483.425H1490.08V494.77C1490.08 497.361 1490.4 497.44 1493.65 497.714V499.206H1483.49V497.714C1486.12 497.44 1486.31 497.282 1486.31 494.849V483.425H1483.45L1483.25 482.875L1484.31 481.423ZM1505.72 499.206H1496.1V497.714C1498.69 497.479 1498.97 497.243 1498.97 494.809V476.83C1498.97 474.475 1498.77 474.278 1496.22 474.043V472.59C1498.69 472.394 1501.29 471.766 1502.74 471.295V494.809C1502.74 497.282 1503.05 497.479 1505.72 497.714V499.206ZM1522.05 494.535L1522.84 495.752C1520.09 499.01 1517.11 499.677 1515.61 499.677C1510.55 499.677 1507.41 495.634 1507.41 490.766C1507.41 488.018 1508.51 485.545 1510.08 483.857C1511.89 481.894 1514.04 480.952 1516.32 480.952C1520.25 480.952 1523 484.21 1523 487.743C1522.96 488.607 1522.88 489.039 1522.17 489.156C1520.84 489.392 1515.73 489.667 1511.18 489.824C1511.3 494.456 1514.28 496.537 1517.07 496.537C1518.79 496.537 1520.56 495.83 1522.05 494.535ZM1518.99 486.88C1519.03 484.878 1517.66 482.758 1515.46 482.758C1513.53 482.758 1511.77 484.603 1511.38 487.822C1513.42 487.782 1515.77 487.782 1518.05 487.704C1518.79 487.665 1518.99 487.508 1518.99 486.88ZM1540.36 494.417L1541.18 495.555C1539.3 497.989 1536.55 499.677 1534.12 499.677C1528.78 499.677 1525.6 495.359 1525.6 491.041C1525.6 487.822 1527.09 485.231 1529.68 483.268C1532 481.541 1534.59 480.952 1536.16 480.952C1538.12 480.952 1539.42 481.541 1540.05 482.012C1540.6 482.483 1540.71 482.836 1540.71 483.347C1540.71 484.328 1539.61 485.388 1539.06 485.388C1538.83 485.388 1538.59 485.309 1538.24 485.035C1536.83 483.935 1535.53 483.189 1534.2 483.189C1531.8 483.189 1529.49 485.192 1529.49 489.313C1529.45 494.77 1533.29 496.537 1535.45 496.537C1537.06 496.537 1538.55 496.066 1540.36 494.417ZM1554.28 497.714L1551.57 499.088C1550.79 499.52 1550.04 499.677 1549.65 499.677C1546.98 499.677 1545.41 498.146 1545.41 494.849V483.425H1542.62L1542.35 482.875L1543.52 481.423H1545.41V477.968C1545.72 477.615 1548.27 475.652 1548.63 475.338L1549.3 475.456C1549.22 476.987 1549.14 479.853 1549.14 481.423H1553.61C1554.08 481.855 1553.97 483.072 1553.34 483.425H1549.14V493.318C1549.14 496.458 1550.47 496.968 1551.42 496.968C1552.28 496.968 1553.26 496.576 1553.85 496.301L1554.28 497.714ZM1562.33 475.417C1562.33 476.712 1561.27 477.851 1559.85 477.851C1558.56 477.851 1557.42 476.712 1557.42 475.417C1557.42 474.004 1558.56 472.904 1559.89 472.904C1561.27 472.904 1562.33 474.004 1562.33 475.417ZM1564.88 499.206H1555.46V497.714C1558.01 497.479 1558.28 497.282 1558.28 494.574V486.801C1558.28 484.289 1558.17 484.132 1555.73 483.818V482.444C1558.2 482.09 1560.29 481.58 1562.05 480.952V494.574C1562.05 497.243 1562.29 497.479 1564.88 497.714V499.206ZM1566.67 490.53C1566.67 484.446 1571.46 480.952 1576.02 480.952C1581.4 480.952 1585.05 485.035 1585.05 490.02C1585.05 496.615 1580.1 499.677 1575.94 499.677C1570.13 499.677 1566.67 495.045 1566.67 490.53ZM1580.73 490.962C1580.73 485.977 1578.76 482.679 1575.51 482.679C1573.23 482.679 1570.99 484.76 1570.99 489.47C1570.99 494.574 1573.27 497.95 1576.37 497.95C1578.61 497.95 1580.73 496.223 1580.73 490.962ZM1607.89 499.206H1599.13V497.714C1601.25 497.479 1601.49 497.204 1601.49 494.77V488.018C1601.49 485.231 1600.27 483.739 1598.03 483.739C1596.5 483.739 1595.09 484.524 1593.79 485.623V494.849C1593.79 497.4 1593.99 497.479 1596.3 497.714V499.206H1587.24V497.714C1589.87 497.4 1590.02 497.243 1590.02 494.849V486.762C1590.02 484.21 1589.71 484.092 1587.59 483.778V482.404C1589.83 482.09 1591.95 481.58 1593.79 480.873V483.935C1594.54 483.386 1595.48 482.758 1596.46 482.13C1597.6 481.423 1598.66 480.952 1599.84 480.952C1603.06 480.952 1605.26 483.307 1605.26 487.272V494.849C1605.26 497.282 1605.49 497.44 1607.89 497.714V499.206ZM1498.94 535.826L1500.55 536.415C1499.96 538.574 1498.82 541.675 1498.19 542.813C1496.98 543.049 1493.8 543.834 1490.73 543.834C1480.64 543.834 1476.05 537.161 1476.05 530.762C1476.05 522.479 1482.41 517.101 1491.64 517.101C1495.01 517.101 1497.8 517.807 1499.02 518.043C1499.29 520.006 1499.64 522.596 1499.88 524.638L1498.27 524.952C1497.49 522.125 1496.39 520.555 1494.5 519.731C1493.44 519.26 1492.07 519.024 1490.5 519.024C1484.02 519.024 1480.88 523.97 1480.88 529.898C1480.88 537.278 1485.08 541.871 1491.01 541.871C1494.97 541.871 1496.82 539.987 1498.94 535.826ZM1520.51 541.597L1516.7 543.677C1515.96 543.677 1515.17 543.324 1514.7 542.931C1514.15 542.382 1513.88 541.754 1513.68 541.125C1511.99 542.264 1509.95 543.677 1508.66 543.677C1505.71 543.677 1503.51 541.243 1503.51 538.495C1503.51 536.493 1504.61 535.159 1506.93 534.373C1509.52 533.51 1512.74 532.45 1513.52 531.782V530.919C1513.52 528.328 1512.15 526.993 1510.23 526.993C1509.36 526.993 1508.74 527.347 1508.3 527.818C1507.79 528.367 1507.6 529.27 1507.2 530.369C1506.97 531.115 1506.5 531.429 1505.83 531.429C1505.01 531.429 1503.83 530.566 1503.83 529.506C1503.83 528.838 1504.38 528.328 1505.2 527.739C1506.38 526.954 1508.97 525.501 1511.37 524.952C1512.66 524.952 1514.03 525.344 1515.06 526.13C1516.59 527.347 1517.14 528.956 1517.14 530.919V538.221C1517.14 540.105 1517.8 540.615 1518.51 540.615C1518.98 540.615 1519.53 540.419 1520.04 540.183L1520.51 541.597ZM1513.52 539.516V533.51C1512.58 533.981 1510.89 534.687 1509.83 535.119C1508.5 535.708 1507.56 536.454 1507.56 537.946C1507.56 540.066 1509.17 540.89 1510.27 540.89C1511.29 540.89 1512.46 540.458 1513.52 539.516ZM1531.55 541.714V543.206H1521.66V541.714C1524.21 541.479 1524.44 541.282 1524.44 538.849V530.644C1524.44 528.21 1524.25 528.092 1522.01 527.778V526.404C1524.21 526.09 1526.13 525.619 1528.21 524.873V529.192C1529.86 526.718 1531.63 524.952 1533.36 524.952C1534.93 524.952 1535.91 525.973 1535.91 527.072C1535.91 528.249 1535.12 529.231 1534.3 529.663C1533.83 529.898 1533.51 529.78 1533.2 529.545C1532.57 528.995 1532.02 528.563 1531.28 528.563C1530.41 528.563 1528.96 529.78 1528.21 531.861V538.849C1528.21 541.282 1528.37 541.518 1531.55 541.714ZM1557.35 540.694V542.185C1556.44 542.342 1553.15 542.853 1550.44 543.677V541.165C1550.16 541.322 1548.16 542.46 1547.89 542.656C1546.47 543.442 1545.37 543.677 1544.98 543.677C1541.64 543.677 1537.13 540.537 1537.13 534.844C1537.13 529.231 1542.15 524.952 1547.92 524.952C1548.32 524.952 1549.57 525.07 1550.44 525.344V520.594C1550.44 518.318 1550.16 518.161 1547.3 517.964V516.512C1549.34 516.315 1552.67 515.805 1554.24 515.295C1554.24 516.551 1554.21 518.946 1554.21 521.34V538.26C1554.21 540.301 1554.56 540.497 1556.09 540.615L1557.35 540.694ZM1550.44 539.555V528.799C1549.53 527.504 1548 526.875 1546.39 526.875C1544.94 526.875 1541.33 527.935 1541.33 533.745C1541.33 538.652 1544.43 540.811 1546.71 540.851C1547.96 540.851 1549.46 540.262 1550.44 539.555ZM1571.05 530.173L1569.56 530.526C1568.7 527.935 1567.44 526.601 1565.4 526.601C1563.91 526.601 1562.81 527.504 1562.81 529.035C1562.81 530.526 1563.91 531.311 1566.38 532.293C1569.83 533.745 1571.76 535.08 1571.76 537.946C1571.76 541.636 1568.3 543.677 1564.73 543.677C1562.65 543.677 1560.61 543.01 1559.74 542.539C1559.51 541.518 1559.04 538.692 1558.96 537.632L1560.49 537.318C1561.35 540.066 1562.92 541.989 1565.44 541.989C1567.05 541.989 1568.22 541.008 1568.22 539.477C1568.22 537.828 1567.16 536.964 1564.93 535.983C1561.94 534.687 1559.55 533.392 1559.55 530.33C1559.55 527.347 1561.98 524.952 1566.14 524.952C1567.99 524.952 1569.44 525.344 1570.3 525.501C1570.54 526.758 1570.89 529.309 1571.05 530.173Z" fill="#554D65"/>
</g>
<path d="M1446.21 70.7981L1447.86 71.1514C1447.58 72.6039 1446.36 77.1577 1446.01 78.2568H1426.42V76.7258C1430.11 76.451 1430.35 76.2155 1430.35 72.918V58.0398C1430.35 54.7816 1430.03 54.5068 1426.66 54.2712V52.7402H1438.24V54.2712C1434.82 54.546 1434.51 54.7031 1434.51 58.0398V72.9965C1434.51 75.1163 1434.7 75.7837 1436.04 76.0977C1436.43 76.3333 1438.16 76.3725 1439.49 76.3725C1441.89 76.3725 1442.79 76.0977 1443.69 75.1163C1444.52 74.292 1445.54 72.4469 1446.21 70.7981ZM1465.15 73.5853L1465.94 74.8023C1463.19 78.0606 1460.21 78.7279 1458.72 78.7279C1453.65 78.7279 1450.51 74.6845 1450.51 69.8167C1450.51 67.0688 1451.61 64.5956 1453.18 62.9076C1454.99 60.9448 1457.15 60.0027 1459.42 60.0027C1463.35 60.0027 1466.1 63.2609 1466.1 66.794C1466.06 67.6576 1465.98 68.0895 1465.27 68.2072C1463.94 68.4428 1458.83 68.7176 1454.28 68.8746C1454.4 73.5068 1457.38 75.5874 1460.17 75.5874C1461.9 75.5874 1463.66 74.8808 1465.15 73.5853ZM1462.09 65.9304C1462.13 63.9283 1460.76 61.8084 1458.56 61.8084C1456.64 61.8084 1454.87 63.6535 1454.48 66.8725C1456.52 66.8333 1458.87 66.8333 1461.15 66.7547C1461.9 66.7155 1462.09 66.5585 1462.09 65.9304ZM1485.55 76.6473L1481.74 78.7279C1481 78.7279 1480.21 78.3746 1479.74 77.982C1479.19 77.4325 1478.92 76.8044 1478.72 76.1763C1477.03 77.3147 1474.99 78.7279 1473.69 78.7279C1470.75 78.7279 1468.55 76.294 1468.55 73.5461C1468.55 71.544 1469.65 70.2093 1471.97 69.4242C1474.56 68.5605 1477.78 67.5006 1478.56 66.8333V65.9696C1478.56 63.3787 1477.19 62.044 1475.26 62.044C1474.4 62.044 1473.77 62.3973 1473.34 62.8684C1472.83 63.418 1472.63 64.3209 1472.24 65.42C1472.01 66.1659 1471.53 66.4799 1470.87 66.4799C1470.04 66.4799 1468.87 65.6163 1468.87 64.5564C1468.87 63.889 1469.42 63.3787 1470.24 62.7899C1471.42 62.0047 1474.01 60.5522 1476.4 60.0027C1477.7 60.0027 1479.07 60.3952 1480.09 61.1803C1481.62 62.3973 1482.17 64.0068 1482.17 65.9696V73.2713C1482.17 75.1556 1482.84 75.6659 1483.55 75.6659C1484.02 75.6659 1484.57 75.4696 1485.08 75.2341L1485.55 76.6473ZM1478.56 74.5667V68.5605C1477.62 69.0316 1475.93 69.7382 1474.87 70.17C1473.54 70.7589 1472.59 71.5048 1472.59 72.9965C1472.59 75.1163 1474.2 75.9407 1475.3 75.9407C1476.32 75.9407 1477.5 75.5089 1478.56 74.5667ZM1504.38 60.4737V61.9655C1502.14 62.201 1501.79 62.5543 1500.85 64.6349C1499.47 67.6969 1496.92 73.8209 1495 78.6494H1493.39C1491.93 74.8808 1489.62 69.1494 1487.69 64.5956C1486.83 62.5151 1486.36 62.2403 1484.32 61.9655V60.4737H1493.19V61.9655C1491.07 62.201 1490.91 62.4365 1491.54 64.0461C1492.52 66.5585 1494.29 71.1122 1495.23 73.3498C1496.41 70.5626 1497.86 66.7155 1498.77 64.3601C1499.39 62.5936 1499.12 62.2403 1496.76 61.9655V60.4737H1504.38ZM1519.49 73.5853L1520.28 74.8023C1517.53 78.0606 1514.55 78.7279 1513.05 78.7279C1507.99 78.7279 1504.85 74.6845 1504.85 69.8167C1504.85 67.0688 1505.95 64.5956 1507.52 62.9076C1509.33 60.9448 1511.48 60.0027 1513.76 60.0027C1517.69 60.0027 1520.43 63.2609 1520.43 66.794C1520.4 67.6576 1520.32 68.0895 1519.61 68.2072C1518.28 68.4428 1513.17 68.7176 1508.62 68.8746C1508.74 73.5068 1511.72 75.5874 1514.51 75.5874C1516.23 75.5874 1518 74.8808 1519.49 73.5853ZM1516.43 65.9304C1516.47 63.9283 1515.1 61.8084 1512.9 61.8084C1510.97 61.8084 1509.21 63.6535 1508.81 66.8725C1510.86 66.8333 1513.21 66.8333 1515.49 66.7547C1516.23 66.7155 1516.43 66.5585 1516.43 65.9304ZM1569.05 52.7402V54.2712C1566.26 54.6245 1565.67 55.0171 1564.65 58.0006C1563.32 61.9262 1559.71 73.0357 1557.98 78.5709H1556.02C1554.25 73.3891 1551.58 65.9696 1549.26 59.8064C1547.1 66.2052 1544.83 72.4862 1542.79 78.5709H1540.82C1539.14 72.8002 1536.51 64.3209 1534.42 58.0398C1533.4 55.0171 1532.89 54.546 1530.26 54.2712V52.7402H1541.02V54.2712C1538.04 54.5853 1537.92 54.9779 1538.43 56.7444C1539.96 61.887 1541.45 66.7155 1543.02 71.9758C1545.18 65.7733 1547.38 59.3746 1549.42 53.015H1551.23C1553.46 59.3746 1555.62 65.42 1557.98 72.0543C1559.67 66.8725 1561.86 59.8064 1562.49 57.2547C1563 55.1349 1562.77 54.546 1559.2 54.2712V52.7402H1569.05ZM1566.78 69.5812C1566.78 63.4965 1571.57 60.0027 1576.12 60.0027C1581.5 60.0027 1585.15 64.0853 1585.15 69.0709C1585.15 75.6659 1580.2 78.7279 1576.04 78.7279C1570.23 78.7279 1566.78 74.0957 1566.78 69.5812ZM1580.83 70.013C1580.83 65.0275 1578.87 61.7299 1575.61 61.7299C1573.33 61.7299 1571.1 63.8105 1571.1 68.5213C1571.1 73.6246 1573.37 77.0006 1576.48 77.0006C1578.71 77.0006 1580.83 75.2734 1580.83 70.013ZM1597.23 76.7651V78.2568H1587.34V76.7651C1589.89 76.5296 1590.13 76.3333 1590.13 73.8994V65.6948C1590.13 63.2609 1589.93 63.1432 1587.69 62.8291V61.4551C1589.89 61.1411 1591.82 60.67 1593.9 59.9241V64.2423C1595.55 61.7692 1597.31 60.0027 1599.04 60.0027C1600.61 60.0027 1601.59 61.0233 1601.59 62.1225C1601.59 63.3002 1600.81 64.2816 1599.98 64.7134C1599.51 64.949 1599.2 64.8312 1598.88 64.5956C1598.25 64.0461 1597.71 63.6142 1596.96 63.6142C1596.1 63.6142 1594.64 64.8312 1593.9 66.9118V73.8994C1593.9 76.3333 1594.05 76.5688 1597.23 76.7651ZM1622.53 76.7651V78.2568C1621.59 78.2568 1616.99 78.2568 1616.64 78.2961C1615.27 76.7258 1611.46 71.9366 1609.97 70.2486C1609.49 69.699 1609.18 69.5812 1608.91 69.6205C1608.75 69.6205 1608.51 69.6205 1608.32 69.699V73.8601C1608.32 76.3725 1608.59 76.4903 1611.22 76.7651V78.2568H1601.68V76.7651C1604.39 76.4903 1604.59 76.294 1604.59 73.8601V55.763C1604.59 53.5254 1604.35 53.3683 1601.84 53.0936V51.6411C1604 51.4448 1606.59 50.8952 1608.32 50.3456V68.3642C1609.42 68.0895 1610.16 67.5399 1610.75 66.951C1611.65 66.0481 1613.15 64.2816 1613.66 63.4965C1614.32 62.4758 1614.05 62.1618 1612.36 62.044V60.5522L1621 60.2382V61.6514C1618.21 62.044 1617.11 62.5151 1615.66 63.9675C1614.87 64.7134 1613.5 66.2837 1612.36 67.5791C1613.18 68.7961 1617.58 73.8209 1618.52 74.8023C1620.21 76.451 1620.84 76.7258 1622.53 76.7651Z" fill="#F8EBE5"/>
<rect x="1314.1" y="2.94471" width="418.08" height="123.657" rx="61.8287" stroke="#F8EBE5" stroke-width="5.88844" stroke-linejoin="round" stroke-dasharray="11.78 11.78"/>
<path d="M115.979 78.2563H105.183V76.7254C107.892 76.4113 108.049 76.058 107.499 74.6448C106.989 73.153 106.322 71.3865 105.654 69.5414H96.9394C96.4684 70.8762 95.9188 72.2894 95.4477 73.7419C94.6626 76.0187 95.0944 76.4113 98.3919 76.7254V78.2563H88.5386V76.7254C91.4043 76.372 91.8361 76.215 93.2493 72.7212L101.454 52.5435L103.417 52.1902C105.968 58.9815 108.677 65.8906 111.268 72.682C112.563 76.0187 112.956 76.4113 115.979 76.7254V78.2563ZM104.948 67.4609L101.375 57.7646C100.237 60.8658 98.8237 64.3989 97.6853 67.4609H104.948ZM126.835 76.7646V78.2563H116.942V76.7646C119.494 76.5291 119.73 76.3328 119.73 73.8989V65.6943C119.73 63.2604 119.533 63.1427 117.296 62.8286V61.4547C119.494 61.1406 121.418 60.6695 123.498 59.9237V64.2418C125.147 61.7687 126.913 60.0022 128.641 60.0022C130.211 60.0022 131.192 61.0228 131.192 62.122C131.192 63.2997 130.407 64.2811 129.583 64.7129C129.112 64.9485 128.798 64.8307 128.484 64.5952C127.856 64.0456 127.306 63.6137 126.56 63.6137C125.697 63.6137 124.244 64.8307 123.498 66.9113V73.8989C123.498 76.3328 123.655 76.5683 126.835 76.7646ZM142.149 76.7646V78.2563H132.257V76.7646C134.808 76.5291 135.044 76.3328 135.044 73.8989V65.6943C135.044 63.2604 134.848 63.1427 132.61 62.8286V61.4547C134.808 61.1406 136.732 60.6695 138.812 59.9237V64.2418C140.461 61.7687 142.228 60.0022 143.955 60.0022C145.525 60.0022 146.507 61.0228 146.507 62.122C146.507 63.2997 145.722 64.2811 144.897 64.7129C144.426 64.9485 144.112 64.8307 143.798 64.5952C143.17 64.0456 142.62 63.6137 141.874 63.6137C141.011 63.6137 139.558 64.8307 138.812 66.9113V73.8989C138.812 76.3328 138.969 76.5683 142.149 76.7646ZM154.861 54.467C154.861 55.7625 153.802 56.9009 152.388 56.9009C151.093 56.9009 149.954 55.7625 149.954 54.467C149.954 53.0538 151.093 51.9546 152.428 51.9546C153.802 51.9546 154.861 53.0538 154.861 54.467ZM157.413 78.2563H147.992V76.7646C150.543 76.5291 150.818 76.3328 150.818 73.6241V65.8514C150.818 63.339 150.7 63.1819 148.266 62.8679V61.4939C150.74 61.1406 152.82 60.6303 154.587 60.0022V73.6241C154.587 76.2935 154.822 76.5291 157.413 76.7646V78.2563ZM177.502 60.4732V61.965C175.264 62.2005 174.911 62.5538 173.969 64.6344C172.595 67.6964 170.043 73.8204 168.12 78.6489H166.51C165.058 74.8803 162.742 69.1489 160.818 64.5952C159.954 62.5146 159.483 62.2398 157.442 61.965V60.4732H166.314V61.965C164.194 62.2005 164.037 62.4361 164.665 64.0456C165.647 66.558 167.413 71.1117 168.355 73.3493C169.533 70.5621 170.985 66.715 171.888 64.3596C172.516 62.5931 172.242 62.2398 169.886 61.965V60.4732H177.502ZM192.616 73.5848L193.401 74.8018C190.653 78.0601 187.669 78.7274 186.178 78.7274C181.114 78.7274 177.973 74.684 177.973 69.8162C177.973 67.0683 179.072 64.5952 180.642 62.9071C182.448 60.9443 184.607 60.0022 186.884 60.0022C190.81 60.0022 193.558 63.2604 193.558 66.7935C193.519 67.6571 193.44 68.089 192.733 68.2067C191.399 68.4423 186.295 68.7171 181.742 68.8741C181.859 73.5063 184.843 75.5869 187.63 75.5869C189.357 75.5869 191.124 74.8803 192.616 73.5848ZM189.554 65.9299C189.593 63.9278 188.219 61.808 186.021 61.808C184.097 61.808 182.33 63.653 181.938 66.872C183.979 66.8328 186.335 66.8328 188.611 66.7543C189.357 66.715 189.554 66.558 189.554 65.9299ZM222.23 76.6468L218.422 78.7274C217.676 78.7274 216.891 78.3741 216.42 77.9816C215.87 77.432 215.595 76.8039 215.399 76.1758C213.711 77.3142 211.67 78.7274 210.374 78.7274C207.43 78.7274 205.232 76.2935 205.232 73.5456C205.232 71.5435 206.331 70.2088 208.647 69.4237C211.238 68.56 214.457 67.5001 215.242 66.8328V65.9691C215.242 63.3782 213.868 62.0435 211.944 62.0435C211.081 62.0435 210.453 62.3968 210.021 62.8679C209.511 63.4175 209.314 64.3204 208.922 65.4195C208.686 66.1654 208.215 66.4795 207.548 66.4795C206.723 66.4795 205.546 65.6158 205.546 64.5559C205.546 63.8885 206.095 63.3782 206.92 62.7894C208.097 62.0042 210.688 60.5518 213.083 60.0022C214.378 60.0022 215.752 60.3947 216.773 61.1799C218.304 62.3968 218.854 64.0063 218.854 65.9691V73.2708C218.854 75.1551 219.521 75.6654 220.228 75.6654C220.699 75.6654 221.248 75.4692 221.758 75.2336L222.23 76.6468ZM215.242 74.5663V68.56C214.3 69.0311 212.612 69.7377 211.552 70.1696C210.217 70.7584 209.275 71.5043 209.275 72.996C209.275 75.1158 210.885 75.9402 211.984 75.9402C213.004 75.9402 214.182 75.5084 215.242 74.5663ZM234.292 76.7646L231.584 78.1386C230.798 78.5704 230.053 78.7274 229.66 78.7274C226.991 78.7274 225.42 77.1964 225.42 73.8989V62.4753H222.633L222.358 61.9257L223.536 60.4732H225.42V57.0187C225.734 56.6654 228.286 54.7026 228.639 54.3885L229.307 54.5063C229.228 56.0373 229.15 58.903 229.15 60.4732H233.625C234.096 60.9051 233.978 62.122 233.35 62.4753H229.15V72.3679C229.15 75.5084 230.484 76.0187 231.427 76.0187C232.29 76.0187 233.272 75.6262 233.86 75.3514L234.292 76.7646ZM281.981 52.7398V54.2708C279.194 54.6241 278.605 55.0166 277.584 58.0001C276.249 61.9257 272.638 73.0353 270.91 78.5704H268.948C267.181 73.3886 264.512 65.9691 262.196 59.8059C260.036 66.2047 257.76 72.4857 255.718 78.5704H253.755C252.067 72.7997 249.437 64.3204 247.357 58.0394C246.336 55.0166 245.826 54.5455 243.196 54.2708V52.7398H253.952V54.2708C250.968 54.5848 250.85 54.9774 251.361 56.7439C252.892 61.8865 254.384 66.715 255.954 71.9753C258.113 65.7728 260.311 59.3741 262.353 53.0146H264.158C266.396 59.3741 268.555 65.4195 270.91 72.0539C272.598 66.872 274.797 59.8059 275.425 57.2542C275.935 55.1344 275.7 54.5455 272.127 54.2708V52.7398H281.981ZM279.711 69.5807C279.711 63.496 284.5 60.0022 289.054 60.0022C294.432 60.0022 298.083 64.0848 298.083 69.0704C298.083 75.6654 293.137 78.7274 288.975 78.7274C283.165 78.7274 279.711 74.0952 279.711 69.5807ZM293.765 70.0125C293.765 65.027 291.802 61.7294 288.544 61.7294C286.267 61.7294 284.029 63.81 284.029 68.5208C284.029 73.6241 286.306 77.0001 289.407 77.0001C291.645 77.0001 293.765 75.2729 293.765 70.0125ZM310.166 76.7646V78.2563H300.274V76.7646C302.825 76.5291 303.061 76.3328 303.061 73.8989V65.6943C303.061 63.2604 302.864 63.1427 300.627 62.8286V61.4547C302.825 61.1406 304.749 60.6695 306.829 59.9237V64.2418C308.478 61.7687 310.245 60.0022 311.972 60.0022C313.542 60.0022 314.524 61.0228 314.524 62.122C314.524 63.2997 313.738 64.2811 312.914 64.7129C312.443 64.9485 312.129 64.8307 311.815 64.5952C311.187 64.0456 310.637 63.6137 309.891 63.6137C309.028 63.6137 307.575 64.8307 306.829 66.9113V73.8989C306.829 76.3328 306.986 76.5683 310.166 76.7646ZM335.46 76.7646V78.2563C334.518 78.2563 329.925 78.2563 329.571 78.2956C328.197 76.7254 324.39 71.9361 322.898 70.2481C322.427 69.6985 322.113 69.5807 321.838 69.62C321.681 69.62 321.445 69.62 321.249 69.6985V73.8596C321.249 76.372 321.524 76.4898 324.154 76.7646V78.2563H314.615V76.7646C317.323 76.4898 317.52 76.2935 317.52 73.8596V55.7625C317.52 53.5249 317.284 53.3679 314.772 53.0931V51.6406C316.931 51.4443 319.522 50.8947 321.249 50.3451V68.3638C322.348 68.089 323.094 67.5394 323.683 66.9505C324.586 66.0476 326.078 64.2811 326.588 63.496C327.255 62.4753 326.98 62.1613 325.292 62.0435V60.5518L333.929 60.2377V61.6509C331.142 62.0435 330.042 62.5146 328.59 63.9671C327.805 64.7129 326.431 66.2832 325.292 67.5786C326.117 68.7956 330.513 73.8204 331.456 74.8018C333.144 76.4506 333.772 76.7254 335.46 76.7646Z" fill="#F8EBE5"/>
<rect x="2.94422" y="2.94422" width="418.08" height="123.657" rx="61.8287" stroke="#F8EBE5" stroke-width="5.88844" stroke-linejoin="round" stroke-dasharray="11.78 11.78"/>
<path d="M215.335 660.081C214.569 659.315 213.326 659.315 212.559 660.081L200.068 672.573C199.302 673.339 199.302 674.582 200.068 675.348C200.835 676.115 202.077 676.115 202.844 675.348L213.947 664.245L225.051 675.348C225.817 676.115 227.06 676.115 227.826 675.348C228.593 674.582 228.593 673.339 227.826 672.573L215.335 660.081ZM212.559 939.74C213.326 940.507 214.568 940.507 215.335 939.74L227.826 927.249C228.593 926.482 228.593 925.24 227.826 924.473C227.06 923.707 225.817 923.707 225.05 924.473L213.947 935.576L202.844 924.473C202.077 923.707 200.834 923.707 200.068 924.473C199.301 925.24 199.301 926.482 200.068 927.249L212.559 939.74ZM213.947 661.469L211.984 661.469L211.984 938.352L213.947 938.352L215.91 938.352L215.91 661.469L213.947 661.469Z" fill="#F8EBE5"/>
<path d="M809.234 507.005C808.48 507.784 808.501 509.027 809.28 509.781L821.974 522.065C822.753 522.819 823.996 522.799 824.749 522.02C825.503 521.241 825.483 519.998 824.704 519.244L813.42 508.325L824.34 497.041C825.094 496.262 825.073 495.019 824.294 494.265C823.515 493.511 822.273 493.532 821.519 494.311L809.234 507.005ZM931.777 507.772C932.531 506.993 932.51 505.751 931.731 504.997L919.037 492.712C918.258 491.958 917.015 491.979 916.262 492.758C915.508 493.537 915.528 494.779 916.307 495.533L927.591 506.453L916.671 517.737C915.917 518.516 915.938 519.758 916.717 520.512C917.496 521.266 918.738 521.246 919.492 520.467L931.777 507.772ZM810.645 508.37L810.677 510.333L930.399 508.37L930.366 506.407L930.334 504.445L810.612 506.408L810.645 508.37Z" fill="#F8EBE5"/>
<path d="M492.105 507.772C492.859 506.993 492.839 505.751 492.06 504.997L479.365 492.712C478.586 491.958 477.344 491.979 476.59 492.758C475.836 493.537 475.856 494.779 476.635 495.533L487.919 506.453L476.999 517.737C476.245 518.516 476.266 519.758 477.045 520.512C477.824 521.266 479.066 521.246 479.82 520.467L492.105 507.772ZM370.973 508.37L371.005 510.333L490.727 508.37L490.695 506.407L490.662 504.445L370.94 506.408L370.973 508.37Z" fill="#F8EBE5"/>
<path d="M1246.94 505.042C1246.19 505.821 1246.21 507.064 1246.98 507.818L1259.68 520.103C1260.46 520.856 1261.7 520.836 1262.45 520.057C1263.21 519.278 1263.19 518.035 1262.41 517.282L1251.13 506.362L1262.04 495.078C1262.8 494.299 1262.78 493.056 1262 492.302C1261.22 491.549 1259.98 491.569 1259.22 492.348L1246.94 505.042ZM1369.48 505.809C1370.24 505.03 1370.22 503.788 1369.44 503.034L1356.74 490.749C1355.96 489.995 1354.72 490.016 1353.97 490.795C1353.21 491.574 1353.23 492.816 1354.01 493.57L1365.3 504.49L1354.38 515.774C1353.62 516.553 1353.64 517.795 1354.42 518.549C1355.2 519.303 1356.44 519.283 1357.2 518.504L1369.48 505.809ZM1248.35 506.407L1248.38 508.37L1368.1 506.407L1368.07 504.444L1368.04 502.482L1248.32 504.445L1248.35 506.407Z" fill="#F8EBE5"/>
<path d="M663.839 657.137C663.073 656.37 661.83 656.37 661.063 657.137L648.572 669.628C647.805 670.395 647.805 671.638 648.572 672.404C649.339 673.171 650.581 673.171 651.348 672.404L662.451 661.301L673.555 672.404C674.321 673.171 675.564 673.171 676.33 672.404C677.097 671.638 677.097 670.395 676.33 669.628L663.839 657.137ZM868.158 950.455H870.12C870.12 910.222 857.076 882.522 837.468 860.952C817.954 839.485 791.965 824.137 766.326 808.508C740.584 792.817 715.148 776.82 696.1 753.991C677.121 731.245 664.414 701.617 664.414 658.525H662.451H660.488C660.488 702.499 673.494 733.026 693.086 756.506C712.608 779.904 738.598 796.204 764.283 811.86C790.07 827.579 815.508 842.63 834.564 863.593C853.526 884.452 866.195 911.214 866.195 950.455H868.158Z" fill="#F8EBE5"/>
<path d="M662.855 658.118C662.088 657.352 660.845 657.352 660.079 658.118L647.588 670.61C646.821 671.376 646.821 672.619 647.588 673.386C648.354 674.152 649.597 674.152 650.363 673.386L661.467 662.282L672.57 673.386C673.337 674.152 674.579 674.152 675.346 673.386C676.113 672.619 676.113 671.376 675.346 670.61L662.855 658.118ZM1532.87 923.506H1534.83C1534.83 898.667 1520.63 879.66 1496.45 864.997C1472.32 850.369 1438 839.889 1397.08 832.024C1315.23 816.291 1206.14 810.888 1097.29 804.268C988.321 797.641 879.587 789.795 798.104 769.238C757.358 758.959 723.617 745.545 700.098 727.655C676.651 709.819 663.43 687.599 663.43 659.506H661.467H659.504C659.504 689.072 673.514 712.364 697.722 730.779C721.858 749.14 756.196 762.714 797.144 773.045C879.048 793.707 988.165 801.564 1097.05 808.186C1206.05 814.815 1314.81 820.207 1396.34 835.879C1437.12 843.717 1470.89 854.092 1494.41 868.354C1517.88 882.582 1530.91 900.501 1530.91 923.506H1532.87Z" fill="#F8EBE5"/>
<path d="M1086.99 357.639C1087.76 358.406 1089 358.406 1089.77 357.639L1102.26 345.148C1103.03 344.382 1103.03 343.139 1102.26 342.372C1101.49 341.606 1100.25 341.606 1099.48 342.372L1088.38 353.476L1077.28 342.372C1076.51 341.606 1075.27 341.606 1074.5 342.372C1073.74 343.139 1073.74 344.382 1074.5 345.148L1086.99 357.639ZM867.564 133.472L865.601 133.472C865.601 174.732 879.629 198.976 900.906 214.579C921.979 230.033 950.002 236.856 977.491 243.82C1005.18 250.834 1032.35 257.994 1052.67 273.858C1072.81 289.585 1086.42 314.053 1086.42 356.251L1088.38 356.251L1090.34 356.251C1090.34 313.067 1076.35 287.361 1055.09 270.763C1034 254.302 1005.97 246.986 978.455 240.015C950.739 232.994 923.558 226.323 903.228 211.414C883.101 196.655 869.527 173.669 869.527 133.472L867.564 133.472Z" fill="#F8EBE5"/>
<path d="M1526.66 361.565C1527.43 362.331 1528.67 362.331 1529.44 361.565L1541.93 349.073C1542.7 348.307 1542.7 347.064 1541.93 346.298C1541.17 345.531 1539.92 345.531 1539.16 346.298L1528.05 357.401L1516.95 346.298C1516.18 345.531 1514.94 345.531 1514.17 346.298C1513.41 347.064 1513.41 348.307 1514.17 349.073L1526.66 361.565ZM867.565 133.472L865.603 133.472C865.603 171.755 876.035 200.664 894.452 222.256C912.844 243.817 939.036 257.892 970.225 266.836C1032.52 284.701 1115.42 282.271 1197.92 277.49C1280.62 272.698 1362.91 265.547 1424.59 273.704C1455.42 277.781 1480.81 285.653 1498.47 299.336C1516.01 312.931 1526.09 332.395 1526.09 360.177H1528.05H1530.02C1530.02 331.282 1519.45 310.631 1500.87 296.233C1482.41 281.923 1456.2 273.924 1425.11 269.812C1362.95 261.592 1280.12 268.794 1197.7 273.571C1115.08 278.359 1032.85 280.713 971.308 263.063C940.576 254.25 915.168 240.492 897.439 219.708C879.735 198.953 869.528 171.001 869.528 133.472L867.565 133.472Z" fill="#F8EBE5"/>
<path d="M655.003 356.658C654.237 357.425 652.994 357.425 652.227 356.658L639.736 344.167C638.97 343.401 638.97 342.158 639.736 341.391C640.503 340.625 641.745 340.625 642.512 341.391L653.615 352.495L664.719 341.391C665.485 340.625 666.728 340.625 667.494 341.391C668.261 342.158 668.261 343.401 667.494 344.167L655.003 356.658ZM866.581 133.472L868.543 133.472C868.543 174.705 855.027 198.887 834.488 214.41C814.146 229.784 787.095 236.487 760.588 243.328C733.886 250.219 707.701 257.253 688.122 273.012C668.71 288.637 655.578 313.046 655.578 355.271L653.615 355.271L651.652 355.271C651.652 312.112 665.141 286.47 685.66 269.954C706.013 253.572 733.069 246.375 759.607 239.527C786.342 232.627 812.533 226.082 832.121 211.278C851.513 196.622 864.618 173.697 864.618 133.472L866.581 133.472Z" fill="#F8EBE5"/>
<path d="M651.248 357.64C652.015 358.406 653.258 358.406 654.024 357.64L666.515 345.149C667.282 344.382 667.282 343.139 666.515 342.373C665.749 341.606 664.506 341.606 663.74 342.373L652.636 353.476L641.533 342.373C640.766 341.606 639.524 341.606 638.757 342.373C637.99 343.139 637.99 344.382 638.757 345.149L651.248 357.64ZM1086.99 357.64C1087.76 358.406 1089 358.406 1089.77 357.64L1102.26 345.149C1103.03 344.382 1103.03 343.139 1102.26 342.373C1101.49 341.606 1100.25 341.606 1099.48 342.373L1088.38 353.476L1077.28 342.373C1076.51 341.606 1075.27 341.606 1074.5 342.373C1073.74 343.139 1073.74 344.382 1074.5 345.149L1086.99 357.64ZM1523.14 129.547L1521.18 129.547C1521.18 148.32 1508.4 163.182 1484.85 175.134C1461.32 187.077 1427.56 195.826 1386.81 202.503C1305.33 215.853 1196.66 220.817 1087.78 226.954C979 233.086 870.023 240.39 788.23 258.464C747.344 267.498 713.066 279.261 688.966 295.035C664.815 310.842 650.673 330.841 650.673 356.252L652.636 356.252L654.599 356.252C654.599 332.593 667.66 313.672 691.116 298.32C714.622 282.934 748.352 271.296 789.077 262.297C870.504 244.304 979.153 237.009 1088 230.873C1196.75 224.743 1305.7 219.77 1387.44 206.377C1428.3 199.682 1462.55 190.858 1486.63 178.634C1510.69 166.419 1525.11 150.52 1525.11 129.547L1523.14 129.547ZM1521.18 129.547L1519.22 129.547C1519.22 148.92 1512.65 164.416 1501.13 177.094C1489.57 189.82 1472.97 199.779 1452.83 207.863C1412.5 224.047 1358.65 232.484 1304.48 240.96C1250.45 249.413 1196.1 257.906 1155.28 274.293C1134.84 282.494 1117.64 292.731 1105.53 306.065C1093.37 319.448 1086.42 335.879 1086.42 356.252L1088.38 356.252L1090.34 356.252C1090.34 336.878 1096.92 321.383 1108.43 308.705C1119.99 295.978 1136.6 286.02 1156.74 277.936C1197.06 261.752 1250.91 253.315 1305.08 244.838C1359.11 236.385 1413.46 227.892 1454.29 211.506C1474.72 203.305 1491.93 193.068 1504.04 179.733C1516.19 166.35 1523.14 149.92 1523.14 129.547L1521.18 129.547Z" fill="#F8EBE5"/>
<path d="M1086.99 357.64C1087.76 358.406 1089 358.406 1089.77 357.64L1102.26 345.149C1103.03 344.382 1103.03 343.139 1102.26 342.373C1101.49 341.606 1100.25 341.606 1099.48 342.373L1088.38 353.476L1077.28 342.373C1076.51 341.606 1075.27 341.606 1074.5 342.373C1073.74 343.139 1073.74 344.382 1074.5 345.149L1086.99 357.64ZM651.248 357.64C652.015 358.406 653.257 358.406 654.024 357.64L666.515 345.149C667.282 344.382 667.282 343.139 666.515 342.373C665.749 341.606 664.506 341.606 663.739 342.373L652.636 353.476L641.533 342.373C640.766 341.606 639.523 341.606 638.757 342.373C637.99 343.139 637.99 344.382 638.757 345.149L651.248 357.64ZM196.282 129.547L194.319 129.547C194.319 161.881 208.602 187.094 233.398 206.683C258.115 226.21 293.281 240.165 335.214 250.237C419.087 270.382 530.808 275.164 642.295 277.249C753.899 279.336 865.258 278.722 948.774 288.001C990.543 292.643 1025.13 299.74 1049.23 310.779C1073.32 321.813 1086.42 336.517 1086.42 356.252L1088.38 356.252L1090.34 356.252C1090.34 334.277 1075.57 318.526 1050.87 307.21C1026.18 295.9 991.072 288.751 949.207 284.1C865.454 274.794 753.788 275.407 642.368 273.324C530.831 271.238 419.526 266.45 336.131 246.42C294.43 236.404 259.901 222.618 235.831 203.602C211.84 184.648 198.245 160.514 198.245 129.547L196.282 129.547ZM198.245 129.547L196.282 129.547C196.282 150.903 203.573 167.956 216.331 181.683C229.043 195.359 247.103 205.655 268.552 213.73C311.408 229.867 368.461 237.372 425.184 244.846C482.059 252.339 538.604 259.8 580.946 275.743C602.097 283.707 619.536 293.729 631.674 306.789C643.765 319.798 650.673 335.898 650.673 356.252L652.636 356.252L654.599 356.252C654.599 334.896 647.308 317.843 634.549 304.116C621.838 290.44 603.777 280.145 582.329 272.069C539.473 255.932 482.42 248.427 425.697 240.954C368.822 233.46 312.277 226 269.935 210.057C248.784 202.093 231.345 192.07 219.207 179.01C207.116 166.002 200.207 149.901 200.207 129.547L198.245 129.547Z" fill="#F8EBE5"/>
<path d="M1533.36 658.118C1532.6 657.352 1531.35 657.352 1530.59 658.118L1518.1 670.61C1517.33 671.376 1517.33 672.619 1518.1 673.386C1518.86 674.152 1520.11 674.152 1520.87 673.386L1531.98 662.282L1543.08 673.386C1543.85 674.152 1545.09 674.152 1545.86 673.386C1546.62 672.619 1546.62 671.376 1545.86 670.61L1533.36 658.118ZM868.156 951.262H870.119C870.119 927.495 880.189 907.935 898.012 891.474C915.887 874.964 941.539 861.601 972.545 850.404C1034.57 828.007 1117.34 814.501 1200.37 801.452C1283.28 788.421 1366.45 775.846 1428.87 755.267C1460.08 744.977 1486.29 732.632 1504.72 717.099C1523.2 701.519 1533.94 682.662 1533.94 659.506H1531.98H1530.01C1530.01 681.251 1520 699.083 1502.19 714.097C1484.32 729.159 1458.66 741.312 1427.64 751.539C1365.59 771.993 1282.81 784.522 1199.76 797.574C1116.84 810.607 1033.66 824.162 971.211 846.712C939.985 857.988 913.775 871.57 895.348 888.59C876.868 905.659 866.193 926.214 866.193 951.262H868.156Z" fill="#F8EBE5"/>
<path d="M1525.68 361.565C1526.45 362.331 1527.69 362.331 1528.46 361.565L1540.95 349.074C1541.72 348.307 1541.72 347.064 1540.95 346.298C1540.18 345.531 1538.94 345.531 1538.17 346.298L1527.07 357.401L1515.97 346.298C1515.2 345.531 1513.96 345.531 1513.19 346.298C1512.42 347.064 1512.42 348.307 1513.19 349.074L1525.68 361.565ZM652.637 355.27H654.6C654.6 331.811 667.771 310.995 691.404 292.875C715.048 274.747 748.952 259.498 789.831 247.232C871.567 222.708 980.667 210.267 1089.85 210.267C1199.04 210.267 1308.14 222.709 1389.86 247.842C1430.74 260.411 1464.63 276.116 1488.28 294.924C1511.9 313.715 1525.11 335.454 1525.11 360.177H1527.07H1529.03C1529.03 333.867 1514.92 311.105 1490.72 291.852C1466.54 272.614 1432.12 256.73 1391.02 244.09C1308.79 218.803 1199.27 206.341 1089.85 206.341C980.432 206.341 870.923 218.803 788.703 243.472C747.604 255.804 713.193 271.223 689.016 289.76C664.828 308.305 650.674 330.149 650.674 355.27H652.637Z" fill="#F8EBE5"/>
<defs>
<clipPath id="clip0_363_109">
<rect width="293.441" height="293.441" fill="white" transform="translate(66.7363 361.158)"/>
</clipPath>
<clipPath id="clip1_363_109">
<rect width="293.441" height="293.441" fill="white" transform="translate(503.463 361.158)"/>
</clipPath>
<clipPath id="clip2_363_109">
<rect width="293.441" height="293.441" fill="white" transform="translate(940.189 361.158)"/>
</clipPath>
<clipPath id="clip3_363_109">
<rect width="293.441" height="293.441" fill="white" transform="translate(1376.92 361.158)"/>
</clipPath>
</defs>
</svg>
