<svg width="1920" height="1080" viewBox="0 0 1920 1080" fill="none" xmlns="http://www.w3.org/2000/svg">
<g clip-path="url(#clip0_419_2)">
<g clip-path="url(#clip1_419_2)">
<path d="M625.869 720.098C716.768 720.098 790.456 646.409 790.456 555.51C790.456 464.611 716.768 390.923 625.869 390.923C534.97 390.923 461.281 464.611 461.281 555.51C461.281 646.409 534.97 720.098 625.869 720.098Z" fill="#F8EBE5"/>
<path d="M537.349 561.056L539.155 561.717C538.494 564.139 537.217 567.618 536.513 568.895C535.147 569.159 531.58 570.04 528.145 570.04C516.828 570.04 511.676 562.553 511.676 555.375C511.676 546.083 518.81 540.05 529.158 540.05C532.945 540.05 536.072 540.843 537.437 541.107C537.746 543.309 538.142 546.215 538.406 548.505L536.601 548.858C535.72 545.687 534.487 543.926 532.373 543.001C531.184 542.472 529.643 542.208 527.881 542.208C520.615 542.208 517.092 547.757 517.092 554.406C517.092 562.685 521.804 567.838 528.454 567.838C532.901 567.838 534.971 565.724 537.349 561.056ZM542.392 559.603C542.392 552.777 547.765 548.858 552.873 548.858C558.906 548.858 563.002 553.438 563.002 559.03C563.002 566.429 557.453 569.863 552.785 569.863C546.267 569.863 542.392 564.667 542.392 559.603ZM558.157 560.087C558.157 554.494 555.956 550.795 552.3 550.795C549.746 550.795 547.236 553.129 547.236 558.414C547.236 564.139 549.79 567.926 553.269 567.926C555.779 567.926 558.157 565.988 558.157 560.087ZM600.997 569.335H590.956V567.662C593.379 567.397 593.863 567.221 593.863 564.403V556.872C593.863 553.614 592.366 551.984 590.076 551.984C588.49 551.984 586.949 552.821 585.276 554.142C585.32 554.671 585.408 555.287 585.408 556.036V564.623C585.408 567.177 585.848 567.397 588.27 567.662V569.335H578.142V567.662C580.784 567.397 581.224 567.265 581.224 564.491V556.828C581.224 553.57 579.815 551.984 577.481 551.984C575.896 551.984 574.31 552.909 572.769 554.142V564.491C572.769 567.221 573.121 567.397 575.323 567.662V569.335H565.415V567.662C568.365 567.353 568.586 567.177 568.586 564.491V555.287C568.586 552.557 568.365 552.381 565.899 552.028V550.487C568.189 550.179 570.567 549.606 572.769 548.77V552.293C573.738 551.588 574.663 550.883 576.116 550.047C577.173 549.386 578.23 548.858 579.727 548.858C582.017 548.858 583.867 550.179 584.835 552.469C586.068 551.5 587.213 550.795 588.358 550.047C589.371 549.43 590.648 548.858 592.057 548.858C595.712 548.858 598.046 551.412 598.046 555.948V564.491C598.046 567.177 598.399 567.397 600.997 567.662V569.335ZM602.668 551.94V550.355C604.782 550.091 607.821 549.254 609.89 548.417V551.896C610.727 551.412 613.105 550.047 613.986 549.606C614.779 549.254 615.747 548.858 616.54 548.858C621.472 548.858 624.599 553.349 624.599 557.797C624.599 564.579 619.138 568.895 613.237 569.863C611.872 569.819 610.551 569.423 609.89 569.115V574.135C609.89 576.865 610.155 577.174 613.766 577.526V579.199H602.36V577.526C605.355 577.218 605.663 576.909 605.663 574.267V554.979C605.663 552.381 605.443 552.205 602.668 551.94ZM609.89 553.746V565.68C610.859 566.649 612.577 567.441 614.074 567.441C617.729 567.441 620.107 564.315 620.107 559.471C620.107 554.538 617.333 551.984 614.338 551.984C612.885 551.984 610.991 552.865 609.89 553.746ZM646.718 567.529L642.447 569.863C641.61 569.863 640.729 569.467 640.201 569.027C639.584 568.41 639.276 567.706 639.056 567.001C637.162 568.278 634.872 569.863 633.419 569.863C630.116 569.863 627.65 567.133 627.65 564.051C627.65 561.805 628.883 560.307 631.481 559.427C634.388 558.458 637.999 557.269 638.88 556.52V555.551C638.88 552.645 637.338 551.148 635.18 551.148C634.212 551.148 633.507 551.544 633.023 552.072C632.45 552.689 632.23 553.702 631.79 554.935C631.525 555.772 630.997 556.124 630.248 556.124C629.323 556.124 628.002 555.155 628.002 553.966C628.002 553.217 628.619 552.645 629.544 551.984C630.865 551.104 633.771 549.474 636.457 548.858C637.911 548.858 639.452 549.298 640.597 550.179C642.314 551.544 642.931 553.349 642.931 555.551V563.742C642.931 565.856 643.68 566.429 644.472 566.429C645.001 566.429 645.617 566.208 646.19 565.944L646.718 567.529ZM638.88 565.195V558.458C637.823 558.986 635.929 559.779 634.74 560.263C633.243 560.924 632.186 561.761 632.186 563.434C632.186 565.812 633.991 566.737 635.224 566.737C636.369 566.737 637.691 566.252 638.88 565.195ZM661.699 554.715L660.026 555.111C659.057 552.205 657.648 550.707 655.358 550.707C653.684 550.707 652.451 551.72 652.451 553.438C652.451 555.111 653.684 555.992 656.459 557.093C660.334 558.722 662.492 560.219 662.492 563.434C662.492 567.573 658.616 569.863 654.609 569.863C652.275 569.863 649.985 569.115 649.016 568.586C648.752 567.441 648.224 564.271 648.136 563.082L649.853 562.729C650.822 565.812 652.583 567.97 655.402 567.97C657.207 567.97 658.528 566.869 658.528 565.151C658.528 563.302 657.339 562.333 654.829 561.232C651.482 559.779 648.796 558.326 648.796 554.891C648.796 551.544 651.526 548.858 656.194 548.858C658.264 548.858 659.894 549.298 660.862 549.474C661.127 550.883 661.523 553.746 661.699 554.715ZM678.878 554.715L677.205 555.111C676.236 552.205 674.827 550.707 672.537 550.707C670.864 550.707 669.631 551.72 669.631 553.438C669.631 555.111 670.864 555.992 673.638 557.093C677.513 558.722 679.671 560.219 679.671 563.434C679.671 567.573 675.796 569.863 671.788 569.863C669.454 569.863 667.164 569.115 666.196 568.586C665.931 567.441 665.403 564.271 665.315 563.082L667.032 562.729C668.001 565.812 669.763 567.97 672.581 567.97C674.387 567.97 675.708 566.869 675.708 565.151C675.708 563.302 674.519 562.333 672.009 561.232C668.662 559.779 665.975 558.326 665.975 554.891C665.975 551.544 668.706 548.858 673.374 548.858C675.443 548.858 677.073 549.298 678.042 549.474C678.306 550.883 678.702 553.746 678.878 554.715ZM689.939 542.648C689.939 544.102 688.75 545.379 687.164 545.379C685.711 545.379 684.434 544.102 684.434 542.648C684.434 541.063 685.711 539.83 687.208 539.83C688.75 539.83 689.939 541.063 689.939 542.648ZM692.801 569.335H682.232V567.662C685.094 567.397 685.403 567.177 685.403 564.139V555.419C685.403 552.601 685.271 552.425 682.54 552.072V550.531C685.315 550.135 687.649 549.562 689.63 548.858V564.139C689.63 567.133 689.894 567.397 692.801 567.662V569.335ZM694.815 559.603C694.815 552.777 700.187 548.858 705.296 548.858C711.329 548.858 715.424 553.438 715.424 559.03C715.424 566.429 709.876 569.863 705.208 569.863C698.69 569.863 694.815 564.667 694.815 559.603ZM710.58 560.087C710.58 554.494 708.378 550.795 704.723 550.795C702.169 550.795 699.659 553.129 699.659 558.414C699.659 564.139 702.213 567.926 705.692 567.926C708.202 567.926 710.58 565.988 710.58 560.087ZM741.045 569.335H731.225V567.662C733.603 567.397 733.867 567.089 733.867 564.359V556.784C733.867 553.658 732.502 551.984 729.992 551.984C728.275 551.984 726.689 552.865 725.236 554.098V564.447C725.236 567.309 725.456 567.397 728.054 567.662V569.335H717.882V567.662C720.832 567.309 721.008 567.133 721.008 564.447V555.375C721.008 552.513 720.656 552.381 718.278 552.028V550.487C720.788 550.135 723.166 549.562 725.236 548.77V552.205C726.073 551.588 727.13 550.883 728.23 550.179C729.508 549.386 730.697 548.858 732.018 548.858C735.629 548.858 738.095 551.5 738.095 555.948V564.447C738.095 567.177 738.359 567.353 741.045 567.662V569.335Z" fill="#6C625F"/>
</g>
</g>
<g clip-path="url(#clip2_419_2)">
<g clip-path="url(#clip3_419_2)">
<path d="M1405.33 720.097C1496.22 720.097 1569.91 646.409 1569.91 555.51C1569.91 464.611 1496.22 390.923 1405.33 390.923C1314.43 390.923 1240.74 464.611 1240.74 555.51C1240.74 646.409 1314.43 720.097 1405.33 720.097Z" fill="#F8EBE5"/>
<path d="M1350.25 548.021L1348.44 548.197C1348 546.348 1347.43 544.938 1346.86 544.146C1346.06 543.089 1345.53 542.869 1342.72 542.869H1339.15V563.522C1339.15 566.957 1339.55 567.353 1343.95 567.618V569.335H1329.9V567.618C1334.22 567.353 1334.57 567.045 1334.57 563.522V542.869H1331C1328.32 542.869 1327.48 543.221 1326.82 544.234C1326.25 545.159 1325.85 546.26 1325.28 548.197H1323.47C1323.69 545.115 1323.96 542.34 1324.04 539.654H1325.37C1326.11 540.711 1326.51 540.711 1327.88 540.711H1346.11C1347.38 540.711 1347.74 540.491 1348.44 539.654H1349.76C1349.81 541.768 1350.03 545.247 1350.25 548.021ZM1349.26 559.603C1349.26 552.777 1354.64 548.858 1359.74 548.858C1365.78 548.858 1369.87 553.438 1369.87 559.03C1369.87 566.429 1364.32 569.863 1359.66 569.863C1353.14 569.863 1349.26 564.667 1349.26 559.603ZM1365.03 560.087C1365.03 554.494 1362.83 550.795 1359.17 550.795C1356.62 550.795 1354.11 553.129 1354.11 558.414C1354.11 564.139 1356.66 567.926 1360.14 567.926C1362.65 567.926 1365.03 565.988 1365.03 560.087ZM1389.72 555.816C1389.72 560.439 1385.67 562.773 1381.35 562.773C1380.47 562.773 1379.59 562.641 1378.76 562.421C1377.96 563.126 1377.74 563.83 1377.74 564.271C1377.74 564.975 1378.49 565.9 1380.52 565.9C1382.28 565.9 1384.26 565.856 1385.76 565.856C1388.75 565.856 1392.54 566.869 1392.54 571.185C1392.54 576.161 1386.77 580.036 1380.69 580.036C1375.32 580.036 1372.37 577.041 1372.37 574.487C1372.37 573.342 1372.85 572.594 1373.65 571.889C1374.66 571.008 1376.11 569.951 1376.95 569.335C1375.36 568.851 1374.35 567.97 1373.69 567.045C1373.21 566.34 1373.08 565.372 1373.08 564.931C1374.62 564.227 1376.25 562.862 1377.08 561.805C1374.92 560.748 1373.34 558.854 1373.34 556.08C1373.34 551.104 1378.1 548.814 1381.75 548.814C1383.38 548.814 1385.01 549.21 1386.51 549.915C1388.75 549.915 1391.35 549.606 1392.76 549.298L1393.07 549.738C1392.72 550.443 1391.83 551.94 1391.17 552.337C1390.87 552.337 1388.75 552.116 1388.49 552.116C1389.19 552.997 1389.72 554.23 1389.72 555.816ZM1385.41 555.948C1385.41 552.865 1383.82 550.619 1381.4 550.619C1379.55 550.619 1377.79 552.293 1377.79 555.595C1377.79 558.722 1379.42 560.968 1381.75 560.968C1383.78 560.924 1385.41 559.294 1385.41 555.948ZM1386.9 570.04C1385.71 569.599 1384.39 569.511 1382.5 569.511C1380.03 569.511 1379.28 569.687 1378.58 570.216C1376.99 571.229 1376.33 572.418 1376.33 573.563C1376.33 575.808 1378.62 577.614 1382.37 577.614C1386.46 577.614 1388.88 575.588 1388.88 572.946C1388.88 571.493 1388.09 570.48 1386.9 570.04ZM1410.11 564.095L1410.99 565.46C1407.91 569.115 1404.56 569.863 1402.89 569.863C1397.21 569.863 1393.69 565.328 1393.69 559.867C1393.69 556.784 1394.92 554.01 1396.68 552.116C1398.71 549.915 1401.13 548.858 1403.68 548.858C1408.09 548.858 1411.17 552.513 1411.17 556.476C1411.12 557.445 1411.04 557.929 1410.24 558.061C1408.75 558.326 1403.02 558.634 1397.91 558.81C1398.05 564.006 1401.39 566.34 1404.52 566.34C1406.46 566.34 1408.44 565.548 1410.11 564.095ZM1406.68 555.507C1406.72 553.261 1405.18 550.883 1402.71 550.883C1400.56 550.883 1398.57 552.953 1398.13 556.564C1400.42 556.52 1403.07 556.52 1405.62 556.432C1406.46 556.388 1406.68 556.212 1406.68 555.507ZM1426.12 567.662L1423.08 569.203C1422.2 569.687 1421.36 569.863 1420.92 569.863C1417.93 569.863 1416.17 568.146 1416.17 564.447V551.632H1413.04L1412.73 551.016L1414.05 549.386H1416.17V545.511C1416.52 545.115 1419.38 542.913 1419.78 542.56L1420.52 542.693C1420.44 544.41 1420.35 547.625 1420.35 549.386H1425.37C1425.9 549.871 1425.77 551.236 1425.06 551.632H1420.35V562.729C1420.35 566.252 1421.85 566.825 1422.9 566.825C1423.87 566.825 1424.97 566.384 1425.63 566.076L1426.12 567.662ZM1450.16 569.335H1440.16V567.662C1442.63 567.397 1442.98 567.177 1442.98 564.447V557.093C1442.98 553.526 1441.57 551.896 1438.84 551.896C1437.21 551.896 1435.58 552.645 1434.31 554.054V564.447C1434.31 567.133 1434.57 567.397 1437.17 567.662V569.335H1426.91V567.662C1429.59 567.441 1430.08 567.221 1430.08 564.447V544.146C1430.08 541.636 1429.86 541.327 1426.95 541.107V539.478C1429.68 539.214 1432.68 538.597 1434.35 538.025C1434.35 539.522 1434.31 542.076 1434.31 544.014V552.028C1435.98 550.399 1438.4 548.858 1440.87 548.858C1444.65 548.858 1447.21 551.324 1447.21 556.476V564.447C1447.21 567.221 1447.52 567.397 1450.16 567.662V569.335ZM1468.83 564.095L1469.71 565.46C1466.63 569.115 1463.28 569.863 1461.61 569.863C1455.93 569.863 1452.41 565.328 1452.41 559.867C1452.41 556.784 1453.64 554.01 1455.4 552.116C1457.43 549.915 1459.85 548.858 1462.4 548.858C1466.81 548.858 1469.89 552.513 1469.89 556.476C1469.84 557.445 1469.76 557.929 1468.96 558.061C1467.47 558.326 1461.74 558.634 1456.63 558.81C1456.76 564.006 1460.11 566.34 1463.24 566.34C1465.18 566.34 1467.16 565.548 1468.83 564.095ZM1465.4 555.507C1465.44 553.261 1463.9 550.883 1461.43 550.883C1459.27 550.883 1457.29 552.953 1456.85 556.564C1459.14 556.52 1461.79 556.52 1464.34 556.432C1465.18 556.388 1465.4 556.212 1465.4 555.507ZM1483.26 567.662V569.335H1472.16V567.662C1475.02 567.397 1475.29 567.177 1475.29 564.447V555.243C1475.29 552.513 1475.07 552.381 1472.56 552.028V550.487C1475.02 550.135 1477.18 549.606 1479.51 548.77V553.614C1481.36 550.839 1483.35 548.858 1485.28 548.858C1487.05 548.858 1488.15 550.003 1488.15 551.236C1488.15 552.557 1487.27 553.658 1486.34 554.142C1485.81 554.406 1485.46 554.274 1485.11 554.01C1484.4 553.394 1483.79 552.909 1482.95 552.909C1481.98 552.909 1480.35 554.274 1479.51 556.608V564.447C1479.51 567.177 1479.69 567.441 1483.26 567.662Z" fill="#6C625F"/>
</g>
</g>
<g clip-path="url(#clip4_419_2)">
<g clip-path="url(#clip5_419_2)">
<g clip-path="url(#clip6_419_2)">
<path d="M1014.49 339.175C1105.39 339.175 1179.08 265.486 1179.08 174.587C1179.08 83.6883 1105.39 10 1014.49 10C923.595 10 849.906 83.6883 849.906 174.587C849.906 265.486 923.595 339.175 1014.49 339.175Z" fill="#F8EBE5"/>
<path d="M953.517 159.79V161.507C949.818 161.772 949.421 161.992 949.421 165.647V182.601C949.421 186.256 949.818 186.388 953.517 186.697V188.414H940.658V186.697C944.489 186.344 944.753 186.124 944.753 182.557V174.41H930.265V182.557C930.265 186.168 930.618 186.388 934.361 186.697V188.414H921.502V186.697C925.245 186.388 925.597 186.212 925.597 182.557V165.647C925.597 161.992 925.201 161.772 921.502 161.507V159.79H934.361V161.507C930.706 161.772 930.265 162.036 930.265 165.647V171.988H944.753V165.647C944.753 162.036 944.313 161.772 940.658 161.507V159.79H953.517ZM977.513 185.728V187.357C975.091 187.709 972.58 188.282 969.938 188.943C969.938 188.018 969.982 186.697 969.982 185.64C967.648 187.445 965.755 188.943 963.156 188.943C959.942 188.943 957.3 186.961 957.3 182.029V173.662C957.3 171.24 956.991 171.019 955.714 170.755L954.437 170.491V168.95C956.727 168.862 959.457 168.553 961.659 168.201C961.483 169.83 961.483 172.341 961.483 174.807V181.016C961.483 184.627 963.465 185.728 965.402 185.728C966.988 185.728 968.485 185.067 969.982 183.702V173.662C969.982 171.196 969.63 170.975 968.089 170.711L966.459 170.491V168.95C969.146 168.862 972.052 168.553 974.166 168.201V182.997C974.166 185.331 974.562 185.64 976.28 185.728H977.513ZM1014.86 188.414H1004.82V186.741C1007.25 186.476 1007.73 186.3 1007.73 183.482V175.952C1007.73 172.693 1006.23 171.063 1003.94 171.063C1002.36 171.063 1000.82 171.9 999.143 173.221C999.187 173.75 999.276 174.366 999.276 175.115V183.702C999.276 186.256 999.716 186.476 1002.14 186.741V188.414H992.009V186.741C994.652 186.476 995.092 186.344 995.092 183.57V175.908C995.092 172.649 993.683 171.063 991.349 171.063C989.764 171.063 988.178 171.988 986.637 173.221V183.57C986.637 186.3 986.989 186.476 989.191 186.741V188.414H979.283V186.741C982.233 186.432 982.453 186.256 982.453 183.57V174.366C982.453 171.636 982.233 171.46 979.767 171.107V169.566C982.057 169.258 984.435 168.685 986.637 167.849V171.372C987.606 170.667 988.53 169.963 989.984 169.126C991.041 168.465 992.097 167.937 993.595 167.937C995.885 167.937 997.734 169.258 998.703 171.548C999.936 170.579 1001.08 169.874 1002.23 169.126C1003.24 168.509 1004.52 167.937 1005.93 167.937C1009.58 167.937 1011.91 170.491 1011.91 175.027V183.57C1011.91 186.256 1012.27 186.476 1014.86 186.741V188.414ZM1036.14 186.609L1031.87 188.943C1031.03 188.943 1030.15 188.546 1029.62 188.106C1029 187.489 1028.7 186.785 1028.48 186.08C1026.58 187.357 1024.29 188.943 1022.84 188.943C1019.54 188.943 1017.07 186.212 1017.07 183.13C1017.07 180.884 1018.3 179.386 1020.9 178.506C1023.81 177.537 1027.42 176.348 1028.3 175.599V174.63C1028.3 171.724 1026.76 170.227 1024.6 170.227C1023.63 170.227 1022.93 170.623 1022.44 171.152C1021.87 171.768 1021.65 172.781 1021.21 174.014C1020.95 174.851 1020.42 175.203 1019.67 175.203C1018.74 175.203 1017.42 174.234 1017.42 173.045C1017.42 172.296 1018.04 171.724 1018.96 171.063C1020.29 170.183 1023.19 168.553 1025.88 167.937C1027.33 167.937 1028.87 168.377 1030.02 169.258C1031.74 170.623 1032.35 172.429 1032.35 174.63V182.821C1032.35 184.935 1033.1 185.508 1033.89 185.508C1034.42 185.508 1035.04 185.287 1035.61 185.023L1036.14 186.609ZM1028.3 184.275V177.537C1027.24 178.065 1025.35 178.858 1024.16 179.342C1022.66 180.003 1021.61 180.84 1021.61 182.513C1021.61 184.891 1023.41 185.816 1024.65 185.816C1025.79 185.816 1027.11 185.331 1028.3 184.275ZM1060.59 188.414H1050.77V186.741C1053.15 186.476 1053.41 186.168 1053.41 183.438V175.863C1053.41 172.737 1052.04 171.063 1049.53 171.063C1047.82 171.063 1046.23 171.944 1044.78 173.177V183.526C1044.78 186.388 1045 186.476 1047.6 186.741V188.414H1037.42V186.741C1040.37 186.388 1040.55 186.212 1040.55 183.526V174.454C1040.55 171.592 1040.2 171.46 1037.82 171.107V169.566C1040.33 169.214 1042.71 168.641 1044.78 167.849V171.284C1045.61 170.667 1046.67 169.963 1047.77 169.258C1049.05 168.465 1050.24 167.937 1051.56 167.937C1055.17 167.937 1057.64 170.579 1057.64 175.027V183.526C1057.64 186.256 1057.9 186.432 1060.59 186.741V188.414ZM1070.31 161.728C1070.31 163.181 1069.12 164.458 1067.53 164.458C1066.08 164.458 1064.8 163.181 1064.8 161.728C1064.8 160.142 1066.08 158.909 1067.58 158.909C1069.12 158.909 1070.31 160.142 1070.31 161.728ZM1073.17 188.414H1062.6V186.741C1065.46 186.476 1065.77 186.256 1065.77 183.218V174.498C1065.77 171.68 1065.64 171.504 1062.91 171.152V169.61C1065.68 169.214 1068.02 168.641 1070 167.937V183.218C1070 186.212 1070.26 186.476 1073.17 186.741V188.414ZM1087.43 186.741L1084.39 188.282C1083.51 188.766 1082.67 188.943 1082.23 188.943C1079.24 188.943 1077.47 187.225 1077.47 183.526V170.711H1074.35L1074.04 170.095L1075.36 168.465H1077.47V164.59C1077.83 164.194 1080.69 161.992 1081.09 161.639L1081.83 161.772C1081.75 163.489 1081.66 166.704 1081.66 168.465H1086.68C1087.21 168.95 1087.07 170.315 1086.37 170.711H1081.66V181.808C1081.66 185.331 1083.15 185.904 1084.21 185.904C1085.18 185.904 1086.28 185.464 1086.94 185.155L1087.43 186.741ZM1110.47 168.465V170.095C1108.14 170.403 1107.56 170.799 1106.46 173.265C1105.41 175.687 1104 178.99 1101.18 186.08C1098.23 193.258 1097.52 195.504 1096.82 197.794C1096.47 198.851 1095.94 199.071 1095.23 199.071C1093.69 199.071 1092.11 197.794 1092.11 196.605C1092.11 195.856 1092.37 195.46 1093.21 194.932C1094.71 193.963 1095.72 193.038 1096.34 192.025C1097.04 190.704 1097.7 189.251 1097.88 188.81C1097.96 188.326 1098.05 187.974 1097.79 187.269C1095.9 182.205 1093.03 175.863 1091.84 173.133C1090.79 170.755 1090.39 170.403 1087.92 170.095V168.465H1097.83V170.095C1095.85 170.403 1095.54 170.755 1096.03 172.12L1100.34 182.821C1101.44 179.959 1103.25 175.247 1104.17 172.473C1104.66 170.931 1104.39 170.447 1101.8 170.095V168.465H1110.47Z" fill="#6C625F"/>
</g>
</g>
</g>
<g clip-path="url(#clip7_419_2)">
<g clip-path="url(#clip8_419_2)">
<g clip-path="url(#clip9_419_2)">
<path d="M1014.49 1070.19C1105.39 1070.19 1179.08 996.503 1179.08 905.604C1179.08 814.705 1105.39 741.017 1014.49 741.017C923.595 741.017 849.906 814.705 849.906 905.604C849.906 996.503 923.595 1070.19 1014.49 1070.19Z" fill="#F8EBE5"/>
<path d="M955.559 890.806V892.523C952.828 892.743 951.727 893.228 951.507 895.077C951.375 896.486 951.287 898.424 951.287 902.519V919.782H948.953L930.149 897.367V907.584C930.149 911.415 930.237 913.485 930.369 914.762C930.59 916.876 931.734 917.536 934.949 917.712V919.43H923.323V917.712C926.142 917.536 927.199 916.876 927.419 914.938C927.639 913.441 927.683 911.415 927.683 907.584V897.763C927.683 895.341 927.595 895.033 926.846 894.064C926.01 893.007 924.821 892.699 922.795 892.523V890.806H930.325L948.777 912.075V902.519C948.777 898.424 948.689 896.53 948.513 895.253C948.336 893.316 947.191 892.743 943.801 892.523V890.806H955.559ZM956.582 909.697C956.582 902.872 961.955 898.952 967.063 898.952C973.096 898.952 977.192 903.532 977.192 909.125C977.192 916.523 971.643 919.958 966.975 919.958C960.458 919.958 956.582 914.762 956.582 909.697ZM972.348 910.182C972.348 904.589 970.146 900.89 966.491 900.89C963.937 900.89 961.427 903.224 961.427 908.508C961.427 914.233 963.981 918.02 967.46 918.02C969.97 918.02 972.348 916.083 972.348 910.182ZM990.747 917.756V919.43H979.649V917.756C982.512 917.492 982.776 917.272 982.776 914.542V905.338C982.776 902.608 982.556 902.475 980.046 902.123V900.582C982.512 900.23 984.67 899.701 987.003 898.864V903.708C988.853 900.934 990.835 898.952 992.772 898.952C994.534 898.952 995.635 900.097 995.635 901.33C995.635 902.652 994.754 903.752 993.829 904.237C993.301 904.501 992.948 904.369 992.596 904.105C991.892 903.488 991.275 903.004 990.438 903.004C989.47 903.004 987.84 904.369 987.003 906.703V914.542C987.003 917.272 987.18 917.536 990.747 917.756ZM1032.37 919.43H1022.33V917.756C1024.75 917.492 1025.23 917.316 1025.23 914.498V906.967C1025.23 903.708 1023.74 902.079 1021.45 902.079C1019.86 902.079 1018.32 902.916 1016.65 904.237C1016.69 904.765 1016.78 905.382 1016.78 906.13V914.718C1016.78 917.272 1017.22 917.492 1019.64 917.756V919.43H1009.51V917.756C1012.15 917.492 1012.59 917.36 1012.59 914.586V906.923C1012.59 903.664 1011.18 902.079 1008.85 902.079C1007.27 902.079 1005.68 903.004 1004.14 904.237V914.586C1004.14 917.316 1004.49 917.492 1006.69 917.756V919.43H996.785V917.756C999.735 917.448 999.955 917.272 999.955 914.586V905.382C999.955 902.652 999.735 902.475 997.269 902.123V900.582C999.559 900.274 1001.94 899.701 1004.14 898.864V902.387C1005.11 901.683 1006.03 900.978 1007.49 900.141C1008.54 899.481 1009.6 898.952 1011.1 898.952C1013.39 898.952 1015.24 900.274 1016.2 902.563C1017.44 901.595 1018.58 900.89 1019.73 900.141C1020.74 899.525 1022.02 898.952 1023.43 898.952C1027.08 898.952 1029.42 901.507 1029.42 906.042V914.586C1029.42 917.272 1029.77 917.492 1032.37 917.756V919.43ZM1053.64 917.624L1049.37 919.958C1048.53 919.958 1047.65 919.562 1047.12 919.121C1046.51 918.505 1046.2 917.8 1045.98 917.096C1044.08 918.373 1041.79 919.958 1040.34 919.958C1037.04 919.958 1034.57 917.228 1034.57 914.145C1034.57 911.899 1035.81 910.402 1038.4 909.521C1041.31 908.553 1044.92 907.364 1045.8 906.615V905.646C1045.8 902.74 1044.26 901.242 1042.1 901.242C1041.13 901.242 1040.43 901.639 1039.95 902.167C1039.37 902.784 1039.15 903.797 1038.71 905.03C1038.45 905.866 1037.92 906.219 1037.17 906.219C1036.25 906.219 1034.92 905.25 1034.92 904.061C1034.92 903.312 1035.54 902.74 1036.47 902.079C1037.79 901.198 1040.69 899.569 1043.38 898.952C1044.83 898.952 1046.37 899.393 1047.52 900.274C1049.24 901.639 1049.85 903.444 1049.85 905.646V913.837C1049.85 915.951 1050.6 916.523 1051.39 916.523C1051.92 916.523 1052.54 916.303 1053.11 916.039L1053.64 917.624ZM1045.8 915.29V908.553C1044.75 909.081 1042.85 909.874 1041.66 910.358C1040.17 911.019 1039.11 911.855 1039.11 913.529C1039.11 915.907 1040.91 916.831 1042.15 916.831C1043.29 916.831 1044.61 916.347 1045.8 915.29ZM1065.05 919.43H1054.27V917.756C1057.17 917.492 1057.48 917.228 1057.48 914.498V894.329C1057.48 891.686 1057.26 891.466 1054.4 891.202V889.573C1057.17 889.352 1060.08 888.648 1061.71 888.119V914.498C1061.71 917.272 1062.06 917.492 1065.05 917.756V919.43ZM1083.51 914.057L1084.43 915.334C1082.32 918.065 1079.24 919.958 1076.5 919.958C1070.52 919.958 1066.95 915.114 1066.95 910.27C1066.95 906.659 1068.62 903.752 1071.53 901.551C1074.13 899.613 1077.03 898.952 1078.79 898.952C1081 898.952 1082.45 899.613 1083.15 900.141C1083.77 900.67 1083.9 901.066 1083.9 901.639C1083.9 902.74 1082.67 903.929 1082.05 903.929C1081.79 903.929 1081.52 903.841 1081.13 903.532C1079.54 902.299 1078.09 901.463 1076.59 901.463C1073.91 901.463 1071.31 903.708 1071.31 908.332C1071.26 914.453 1075.58 916.435 1078 916.435C1079.81 916.435 1081.48 915.907 1083.51 914.057ZM1108.39 899.481V901.11C1106.05 901.419 1105.48 901.815 1104.38 904.281C1103.32 906.703 1101.91 910.006 1099.09 917.096C1096.14 924.274 1095.44 926.52 1094.73 928.81C1094.38 929.866 1093.85 930.087 1093.15 930.087C1091.61 930.087 1090.02 928.81 1090.02 927.621C1090.02 926.872 1090.29 926.476 1091.12 925.947C1092.62 924.978 1093.63 924.054 1094.25 923.041C1094.95 921.72 1095.61 920.266 1095.79 919.826C1095.88 919.342 1095.97 918.989 1095.7 918.285C1093.81 913.22 1090.95 906.879 1089.76 904.149C1088.7 901.771 1088.3 901.419 1085.84 901.11V899.481H1095.75V901.11C1093.77 901.419 1093.46 901.771 1093.94 903.136L1098.26 913.837C1099.36 910.975 1101.16 906.263 1102.09 903.488C1102.57 901.947 1102.31 901.463 1099.71 901.11V899.481H1108.39Z" fill="#6C625F"/>
</g>
</g>
</g>
<path d="M1407.56 355.111C1409.06 356.614 1411.5 356.614 1413 355.111L1437.5 330.612C1439 329.109 1439 326.671 1437.5 325.168C1436 323.664 1433.56 323.664 1432.05 325.168L1410.28 346.944L1388.5 325.168C1387 323.665 1384.56 323.665 1383.06 325.168C1381.55 326.671 1381.55 329.109 1383.06 330.612L1407.56 355.111ZM1245.17 178.896C1247.29 178.988 1249.09 177.341 1249.18 175.217C1249.27 173.093 1247.62 171.296 1245.5 171.204L1245.33 175.05L1245.17 178.896ZM1274.68 173.938C1272.58 173.625 1270.62 175.076 1270.31 177.179C1269.99 179.282 1271.45 181.24 1273.55 181.554L1274.12 177.746L1274.68 173.938ZM1301.32 187.545C1303.36 188.139 1305.5 186.965 1306.09 184.923C1306.69 182.882 1305.51 180.746 1303.47 180.152L1302.4 183.848L1301.32 187.545ZM1331.1 190.741C1329.19 189.805 1326.88 190.595 1325.95 192.504C1325.01 194.414 1325.8 196.72 1327.71 197.655L1329.4 194.198L1331.1 190.741ZM1351.56 212.512C1353.23 213.823 1355.65 213.527 1356.96 211.853C1358.27 210.179 1357.98 207.759 1356.3 206.449L1353.93 209.481L1351.56 212.512ZM1377.52 227.295C1376.18 225.644 1373.76 225.391 1372.11 226.73C1370.46 228.069 1370.2 230.494 1371.54 232.145L1374.53 229.72L1377.52 227.295ZM1386.77 255.742C1387.73 257.638 1390.05 258.395 1391.95 257.433C1393.84 256.471 1394.6 254.154 1393.64 252.258L1390.21 254L1386.77 255.742ZM1404.55 279.75C1403.94 277.714 1401.79 276.561 1399.75 277.174C1397.72 277.787 1396.56 279.934 1397.18 281.97L1400.86 280.86L1404.55 279.75ZM1403.36 309.674C1403.69 311.776 1405.65 313.217 1407.75 312.893C1409.86 312.569 1411.3 310.603 1410.97 308.501L1407.17 309.088L1403.36 309.674ZM1413.8 337.714C1413.71 335.59 1411.91 333.946 1409.79 334.041C1407.66 334.137 1406.02 335.936 1406.11 338.06L1409.96 337.887L1413.8 337.714ZM1230.82 174.741L1230.82 178.591C1235.72 178.591 1240.5 178.693 1245.17 178.896L1245.33 175.05L1245.5 171.204C1240.72 170.996 1235.82 170.892 1230.82 170.892L1230.82 174.741ZM1274.12 177.746L1273.55 181.554C1283.41 183.022 1292.66 185.027 1301.32 187.545L1302.4 183.848L1303.47 180.152C1294.45 177.529 1284.86 175.454 1274.68 173.938L1274.12 177.746ZM1329.4 194.198L1327.71 197.655C1336.44 201.931 1344.38 206.894 1351.56 212.512L1353.93 209.481L1356.3 206.449C1348.68 200.487 1340.29 195.243 1331.1 190.741L1329.4 194.198ZM1374.53 229.72L1371.54 232.145C1377.37 239.329 1382.44 247.203 1386.77 255.742L1390.21 254L1393.64 252.258C1389.07 243.258 1383.71 234.923 1377.52 227.295L1374.53 229.72ZM1400.86 280.86L1397.18 281.97C1399.8 290.695 1401.86 299.936 1403.36 309.674L1407.17 309.088L1410.97 308.501C1409.42 298.442 1407.29 288.849 1404.55 279.75L1400.86 280.86ZM1409.96 337.887L1406.11 338.06C1406.32 342.745 1406.43 347.522 1406.43 352.389L1410.28 352.389L1414.13 352.389C1414.13 347.411 1414.02 342.519 1413.8 337.714L1409.96 337.887Z" fill="#E1D7D0"/>
<path d="M1215.8 901.234C1214.3 902.737 1214.3 905.174 1215.8 906.678L1240.3 931.176C1241.8 932.68 1244.24 932.68 1245.74 931.176C1247.24 929.673 1247.24 927.236 1245.74 925.732L1223.96 903.956L1245.74 882.179C1247.24 880.676 1247.24 878.238 1245.74 876.735C1244.24 875.231 1241.8 875.231 1240.3 876.735L1215.8 901.234ZM1392.01 738.844C1391.92 740.968 1393.57 742.765 1395.69 742.857C1397.82 742.949 1399.61 741.302 1399.71 739.178L1395.86 739.011L1392.01 738.844ZM1396.97 768.36C1397.28 766.258 1395.83 764.299 1393.73 763.986C1391.63 763.673 1389.67 765.124 1389.36 767.226L1393.16 767.793L1396.97 768.36ZM1383.36 795.001C1382.77 797.043 1383.94 799.179 1385.99 799.773C1388.03 800.366 1390.16 799.192 1390.76 797.151L1387.06 796.076L1383.36 795.001ZM1380.17 824.775C1381.1 822.866 1380.31 820.56 1378.4 819.624C1376.5 818.689 1374.19 819.479 1373.25 821.388L1376.71 823.081L1380.17 824.775ZM1358.4 845.236C1357.09 846.91 1357.38 849.33 1359.06 850.64C1360.73 851.95 1363.15 851.655 1364.46 849.98L1361.43 847.608L1358.4 845.236ZM1343.61 871.2C1345.27 869.861 1345.52 867.437 1344.18 865.786C1342.84 864.134 1340.42 863.881 1338.76 865.221L1341.19 868.21L1343.61 871.2ZM1315.17 880.45C1313.27 881.412 1312.51 883.729 1313.48 885.625C1314.44 887.521 1316.75 888.278 1318.65 887.316L1316.91 883.883L1315.17 880.45ZM1291.16 898.227C1293.19 897.615 1294.35 895.467 1293.74 893.431C1293.12 891.396 1290.98 890.242 1288.94 890.855L1290.05 894.541L1291.16 898.227ZM1261.23 897.041C1259.13 897.365 1257.69 899.331 1258.02 901.432C1258.34 903.534 1260.31 904.974 1262.41 904.65L1261.82 900.846L1261.23 897.041ZM1233.19 907.483C1235.32 907.387 1236.96 905.588 1236.87 903.464C1236.77 901.34 1234.97 899.696 1232.85 899.791L1233.02 903.637L1233.19 907.483ZM1396.17 724.502L1392.32 724.502C1392.32 729.396 1392.22 734.176 1392.01 738.844L1395.86 739.011L1399.71 739.178C1399.91 734.394 1400.02 729.503 1400.02 724.502L1396.17 724.502ZM1393.16 767.793L1389.36 767.226C1387.89 777.088 1385.88 786.34 1383.36 795.001L1387.06 796.076L1390.76 797.151C1393.38 788.13 1395.46 778.537 1396.97 768.36L1393.16 767.793ZM1376.71 823.081L1373.25 821.388C1368.98 830.117 1364.01 838.056 1358.4 845.236L1361.43 847.608L1364.46 849.98C1370.42 842.361 1375.67 833.965 1380.17 824.775L1376.71 823.081ZM1341.19 868.21L1338.76 865.221C1331.58 871.047 1323.71 876.117 1315.17 880.45L1316.91 883.883L1318.65 887.316C1327.65 882.749 1335.99 877.387 1343.61 871.2L1341.19 868.21ZM1290.05 894.541L1288.94 890.855C1280.21 893.482 1270.97 895.54 1261.23 897.041L1261.82 900.846L1262.41 904.65C1272.47 903.1 1282.06 900.967 1291.16 898.227L1290.05 894.541ZM1233.02 903.637L1232.85 899.791C1228.16 900.002 1223.39 900.106 1218.52 900.106L1218.52 903.956L1218.52 907.805C1223.5 907.805 1228.39 907.698 1233.19 907.483L1233.02 903.637Z" fill="#E1D7D0"/>
<path d="M627.958 739.313C626.454 737.81 624.017 737.81 622.514 739.313L598.015 763.812C596.512 765.315 596.512 767.753 598.015 769.256C599.518 770.759 601.956 770.759 603.459 769.256L625.236 747.479L647.012 769.256C648.516 770.759 650.953 770.759 652.457 769.256C653.96 767.753 653.96 765.315 652.457 763.812L627.958 739.313ZM790.347 915.528C788.223 915.436 786.426 917.083 786.334 919.207C786.242 921.331 787.889 923.128 790.013 923.22L790.18 919.374L790.347 915.528ZM760.831 920.485C762.934 920.799 764.892 919.348 765.206 917.245C765.519 915.142 764.068 913.183 761.965 912.87L761.398 916.678L760.831 920.485ZM734.19 906.879C732.149 906.285 730.012 907.459 729.419 909.501C728.825 911.542 729.999 913.678 732.041 914.272L733.115 910.575L734.19 906.879ZM704.416 903.683C706.326 904.618 708.632 903.829 709.567 901.92C710.502 900.01 709.713 897.704 707.803 896.769L706.11 900.226L704.416 903.683ZM683.956 881.912C682.281 880.601 679.862 880.897 678.552 882.571C677.241 884.245 677.537 886.665 679.211 887.975L681.583 884.943L683.956 881.912ZM657.991 867.129C659.33 868.78 661.755 869.033 663.406 867.694C665.057 866.355 665.31 863.93 663.971 862.279L660.981 864.704L657.991 867.129ZM648.741 838.682C647.779 836.786 645.462 836.029 643.566 836.991C641.67 837.953 640.913 840.27 641.875 842.165L645.308 840.424L648.741 838.682ZM630.964 814.674C631.577 816.709 633.724 817.863 635.76 817.25C637.796 816.637 638.949 814.49 638.336 812.454L634.65 813.564L630.964 814.674ZM632.15 784.749C631.826 782.648 629.86 781.207 627.759 781.531C625.658 781.855 624.217 783.821 624.541 785.922L628.346 785.336L632.15 784.749ZM621.709 756.709C621.804 758.833 623.603 760.478 625.727 760.383C627.851 760.287 629.495 758.488 629.4 756.364L625.554 756.537L621.709 756.709ZM804.69 919.682L804.69 915.833C799.796 915.833 795.015 915.731 790.347 915.528L790.18 919.374L790.013 923.22C794.797 923.428 799.689 923.532 804.69 923.532L804.69 919.682ZM761.398 916.678L761.965 912.87C752.103 911.402 742.851 909.397 734.19 906.879L733.115 910.575L732.041 914.272C741.061 916.895 750.654 918.97 760.831 920.485L761.398 916.678ZM706.11 900.226L707.803 896.769C699.074 892.493 691.135 887.53 683.956 881.912L681.583 884.943L679.211 887.975C686.83 893.937 695.227 899.181 704.416 903.683L706.11 900.226ZM660.981 864.704L663.971 862.279C658.144 855.095 653.074 847.221 648.741 838.682L645.308 840.424L641.875 842.165C646.442 851.166 651.804 859.501 657.991 867.129L660.981 864.704ZM634.65 813.564L638.336 812.454C635.709 803.728 633.651 794.488 632.15 784.749L628.346 785.336L624.541 785.922C626.092 795.982 628.225 805.575 630.964 814.674L634.65 813.564ZM625.554 756.537L629.4 756.364C629.19 751.679 629.085 746.902 629.085 742.035L625.236 742.035L621.386 742.035C621.386 747.012 621.493 751.905 621.709 756.709L625.554 756.537Z" fill="#E1D7D0"/>
<path d="M819.719 193.19C821.222 191.687 821.222 189.249 819.719 187.746L795.22 163.247C793.717 161.744 791.28 161.744 789.776 163.247C788.273 164.751 788.273 167.188 789.776 168.692L811.553 190.468L789.776 212.245C788.273 213.748 788.273 216.186 789.776 217.689C791.28 219.192 793.717 219.192 795.22 217.689L819.719 193.19ZM643.504 355.58C643.596 353.455 641.949 351.659 639.825 351.567C637.701 351.474 635.904 353.122 635.812 355.246L639.658 355.413L643.504 355.58ZM638.547 326.063C638.234 328.166 639.684 330.125 641.787 330.438C643.89 330.751 645.849 329.3 646.162 327.197L642.354 326.63L638.547 326.063ZM652.153 299.423C652.747 297.381 651.573 295.245 649.532 294.651C647.49 294.058 645.354 295.231 644.76 297.273L648.457 298.348L652.153 299.423ZM655.349 269.649C654.414 271.558 655.203 273.864 657.113 274.799C659.022 275.735 661.328 274.945 662.263 273.036L658.806 271.342L655.349 269.649ZM677.121 249.188C678.431 247.514 678.136 245.094 676.461 243.784C674.787 242.474 672.367 242.769 671.057 244.443L674.089 246.816L677.121 249.188ZM691.903 223.223C690.252 224.563 689.999 226.987 691.338 228.638C692.678 230.289 695.102 230.542 696.753 229.203L694.328 226.213L691.903 223.223ZM720.351 213.974C722.247 213.012 723.004 210.695 722.042 208.799C721.08 206.903 718.763 206.146 716.867 207.108L718.609 210.541L720.351 213.974ZM744.359 196.196C742.323 196.809 741.169 198.956 741.782 200.992C742.395 203.028 744.542 204.182 746.578 203.569L745.468 199.883L744.359 196.196ZM774.283 197.383C776.384 197.059 777.825 195.093 777.501 192.992C777.177 190.89 775.211 189.449 773.11 189.773L773.696 193.578L774.283 197.383ZM802.323 186.941C800.199 187.036 798.554 188.835 798.65 190.959C798.745 193.083 800.544 194.728 802.668 194.633L802.495 190.787L802.323 186.941ZM639.35 369.922L643.199 369.922C643.199 365.028 643.302 360.248 643.504 355.58L639.658 355.413L635.812 355.246C635.605 360.029 635.5 364.921 635.5 369.922L639.35 369.922ZM642.354 326.63L646.162 327.197C647.631 317.336 649.635 308.084 652.153 299.423L648.457 298.348L644.76 297.273C642.137 306.293 640.062 315.887 638.547 326.063L642.354 326.63ZM658.806 271.342L662.263 273.036C666.54 264.307 671.503 256.368 677.121 249.188L674.089 246.816L671.057 244.443C665.095 252.062 659.851 260.459 655.349 269.649L658.806 271.342ZM694.328 226.213L696.753 229.203C703.938 223.376 711.811 218.307 720.351 213.974L718.609 210.541L716.867 207.108C707.866 211.675 699.531 217.037 691.903 223.223L694.328 226.213ZM745.468 199.883L746.578 203.569C755.304 200.942 764.544 198.884 774.283 197.383L773.696 193.578L773.11 189.773C763.05 191.324 753.457 193.457 744.359 196.196L745.468 199.883ZM802.495 190.787L802.668 194.633C807.353 194.422 812.13 194.318 816.997 194.318L816.997 190.468L816.997 186.619C812.02 186.619 807.128 186.725 802.323 186.941L802.495 190.787Z" fill="#E1D7D0"/>
<path d="M1255.23 1008.06C1248.93 1008.06 1245.04 1003.48 1245.04 997.755V997.697C1245.04 992.202 1249.08 987.335 1255.09 987.335C1258.47 987.335 1260.56 988.309 1262.56 989.997L1261.1 991.715C1259.58 990.37 1257.81 989.425 1255 989.425C1250.57 989.425 1247.39 993.175 1247.39 997.64V997.697C1247.39 1002.48 1250.45 1006.03 1255.32 1006.03C1257.61 1006.03 1259.73 1005.14 1261.1 1004.02V999.043H1255V997.01H1263.27V1005C1261.41 1006.69 1258.64 1008.06 1255.23 1008.06ZM1267.72 1007.72V992.917H1269.92V996.781C1271.01 994.32 1273.16 992.574 1275.96 992.66V995.035H1275.79C1272.55 995.035 1269.92 997.354 1269.92 1001.82V1007.72H1267.72ZM1279.09 989.683V987.25H1281.61V989.683H1279.09ZM1279.23 1007.72V992.917H1281.44V1007.72H1279.23ZM1292.73 1008.06C1288.7 1008.06 1285.35 1004.94 1285.35 1000.36V1000.3C1285.35 996.037 1288.33 992.602 1292.45 992.602C1296.83 992.602 1299.35 996.094 1299.35 1000.42C1299.35 1000.73 1299.35 1000.87 1299.32 1001.13H1287.58C1287.9 1004.34 1290.16 1006.14 1292.79 1006.14C1294.85 1006.14 1296.23 1005.31 1297.46 1004.05L1298.83 1005.28C1297.34 1006.97 1295.57 1008.06 1292.73 1008.06ZM1287.58 999.501H1297.11C1296.88 996.839 1295.37 994.463 1292.39 994.463C1289.78 994.463 1287.9 996.638 1287.58 999.501ZM1303.75 1007.72V994.864H1301.72V992.946H1303.75V991.658C1303.75 989.969 1304.18 988.709 1305.04 987.851C1305.81 987.078 1306.87 986.706 1308.21 986.706C1309.24 986.706 1309.93 986.82 1310.65 987.078V988.996C1309.84 988.767 1309.27 988.624 1308.5 988.624C1306.78 988.624 1305.92 989.683 1305.92 991.772V992.974H1310.62V994.864H1305.95V1007.72H1303.75ZM1321.49 989.683V987.25H1324.01V989.683H1321.49ZM1321.64 1007.72V992.917H1323.84V1007.72H1321.64ZM1333.57 1008C1331.42 1008 1329.13 1007.17 1327.44 1005.83L1328.56 1004.25C1330.16 1005.48 1331.93 1006.14 1333.68 1006.14C1335.48 1006.14 1336.74 1005.25 1336.74 1003.79V1003.74C1336.74 1002.28 1335 1001.68 1333.05 1001.13C1330.76 1000.45 1328.16 999.701 1328.16 996.953V996.896C1328.16 994.348 1330.27 992.66 1333.19 992.66C1335.02 992.66 1337 993.289 1338.52 994.291L1337.52 995.951C1336.14 995.064 1334.6 994.52 1333.14 994.52C1331.39 994.52 1330.27 995.436 1330.27 996.667V996.724C1330.27 998.127 1332.11 998.671 1334.08 999.272C1336.37 999.959 1338.83 1000.85 1338.83 1003.51V1003.57C1338.83 1006.37 1336.51 1008 1333.57 1008ZM1355.34 1008.03C1352.6 1008.03 1349.82 1006.48 1349.82 1003.42V1003.36C1349.82 1000.27 1352.4 998.585 1356.15 998.585C1358.06 998.585 1359.35 998.842 1360.7 999.214V998.699C1360.7 996.037 1359.06 994.663 1356.29 994.663C1354.54 994.663 1353.17 995.093 1351.79 995.751L1351.14 993.948C1352.77 993.175 1354.34 992.717 1356.52 992.717C1358.61 992.717 1360.21 993.261 1361.3 994.348C1362.3 995.35 1362.81 996.81 1362.81 998.671V1007.72H1360.7V1005.48C1359.67 1006.83 1357.98 1008.03 1355.34 1008.03ZM1355.77 1006.28C1358.52 1006.28 1360.73 1004.62 1360.73 1002.28V1000.85C1359.61 1000.53 1358.21 1000.22 1356.37 1000.22C1353.6 1000.22 1352.05 1001.42 1352.05 1003.28V1003.34C1352.05 1005.2 1353.8 1006.28 1355.77 1006.28ZM1375.52 1007.72V992.917H1377.73V995.493C1378.73 993.89 1380.24 992.602 1382.79 992.602C1386.34 992.602 1388.46 995.007 1388.46 998.527V1007.72H1386.26V999.071C1386.26 996.323 1384.8 994.606 1382.16 994.606C1379.61 994.606 1377.73 996.467 1377.73 999.243V1007.72H1375.52ZM1397.28 1008.03C1394.53 1008.03 1391.76 1006.48 1391.76 1003.42V1003.36C1391.76 1000.27 1394.33 998.585 1398.08 998.585C1400 998.585 1401.29 998.842 1402.63 999.214V998.699C1402.63 996.037 1401 994.663 1398.23 994.663C1396.48 994.663 1395.11 995.093 1393.73 995.751L1393.07 993.948C1394.71 993.175 1396.28 992.717 1398.46 992.717C1400.54 992.717 1402.15 993.261 1403.24 994.348C1404.24 995.35 1404.75 996.81 1404.75 998.671V1007.72H1402.63V1005.48C1401.6 1006.83 1399.91 1008.03 1397.28 1008.03ZM1397.71 1006.28C1400.46 1006.28 1402.66 1004.62 1402.66 1002.28V1000.85C1401.55 1000.53 1400.14 1000.22 1398.31 1000.22C1395.54 1000.22 1393.99 1001.42 1393.99 1003.28V1003.34C1393.99 1005.2 1395.74 1006.28 1397.71 1006.28ZM1413.98 1007.97C1411.57 1007.97 1409.8 1006.8 1409.8 1003.79V994.864H1407.74V992.917H1409.8V988.452H1412V992.917H1416.69V994.864H1412V1003.51C1412 1005.34 1413 1005.97 1414.49 1005.97C1415.26 1005.97 1415.86 1005.83 1416.64 1005.45V1007.34C1415.86 1007.77 1415.03 1007.97 1413.98 1007.97ZM1425.75 1008.03C1422.2 1008.03 1420.08 1005.63 1420.08 1002.11V992.917H1422.29V1001.56C1422.29 1004.31 1423.74 1006.03 1426.38 1006.03C1428.9 1006.03 1430.82 1004.17 1430.82 1001.39V992.917H1432.99V1007.72H1430.82V1005.14C1429.81 1006.74 1428.3 1008.03 1425.75 1008.03ZM1437.66 1007.72V992.917H1439.87V996.781C1440.95 994.32 1443.1 992.574 1445.91 992.66V995.035H1445.73C1442.5 995.035 1439.87 997.354 1439.87 1001.82V1007.72H1437.66ZM1452.66 1008.03C1449.91 1008.03 1447.13 1006.48 1447.13 1003.42V1003.36C1447.13 1000.27 1449.71 998.585 1453.46 998.585C1455.38 998.585 1456.67 998.842 1458.01 999.214V998.699C1458.01 996.037 1456.38 994.663 1453.6 994.663C1451.86 994.663 1450.48 995.093 1449.11 995.751L1448.45 993.948C1450.08 993.175 1451.66 992.717 1453.83 992.717C1455.92 992.717 1457.52 993.261 1458.61 994.348C1459.61 995.35 1460.13 996.81 1460.13 998.671V1007.72H1458.01V1005.48C1456.98 1006.83 1455.29 1008.03 1452.66 1008.03ZM1453.09 1006.28C1455.84 1006.28 1458.04 1004.62 1458.04 1002.28V1000.85C1456.92 1000.53 1455.52 1000.22 1453.69 1000.22C1450.91 1000.22 1449.37 1001.42 1449.37 1003.28V1003.34C1449.37 1005.2 1451.11 1006.28 1453.09 1006.28ZM1464.74 1007.72V986.82H1466.94V1007.72H1464.74ZM1480.07 1012.3V992.917H1482.27V995.894C1483.5 994.148 1485.19 992.602 1487.94 992.602C1491.49 992.602 1495.01 995.407 1495.01 1000.27V1000.33C1495.01 1005.14 1491.52 1008.03 1487.94 1008.03C1485.19 1008.03 1483.42 1006.57 1482.27 1004.88V1012.3H1480.07ZM1487.54 1006.06C1490.4 1006.06 1492.75 1003.94 1492.75 1000.36V1000.3C1492.75 996.781 1490.37 994.577 1487.54 994.577C1484.79 994.577 1482.19 996.925 1482.19 1000.27V1000.33C1482.19 1003.77 1484.79 1006.06 1487.54 1006.06ZM1503.2 1008.03C1500.45 1008.03 1497.67 1006.48 1497.67 1003.42V1003.36C1497.67 1000.27 1500.25 998.585 1504 998.585C1505.92 998.585 1507.21 998.842 1508.55 999.214V998.699C1508.55 996.037 1506.92 994.663 1504.14 994.663C1502.4 994.663 1501.02 995.093 1499.65 995.751L1498.99 993.948C1500.62 993.175 1502.2 992.717 1504.37 992.717C1506.46 992.717 1508.06 993.261 1509.15 994.348C1510.15 995.35 1510.67 996.81 1510.67 998.671V1007.72H1508.55V1005.48C1507.52 1006.83 1505.83 1008.03 1503.2 1008.03ZM1503.63 1006.28C1506.38 1006.28 1508.58 1004.62 1508.58 1002.28V1000.85C1507.46 1000.53 1506.06 1000.22 1504.23 1000.22C1501.45 1000.22 1499.91 1001.42 1499.91 1003.28V1003.34C1499.91 1005.2 1501.65 1006.28 1503.63 1006.28ZM1515.08 1007.72V992.917H1517.28V996.781C1518.37 994.32 1520.52 992.574 1523.32 992.66V995.035H1523.15C1519.92 995.035 1517.28 997.354 1517.28 1001.82V1007.72H1515.08ZM1531.35 1007.97C1528.94 1007.97 1527.17 1006.8 1527.17 1003.79V994.864H1525.11V992.917H1527.17V988.452H1529.37V992.917H1534.07V994.864H1529.37V1003.51C1529.37 1005.34 1530.37 1005.97 1531.86 1005.97C1532.63 1005.97 1533.24 1005.83 1534.01 1005.45V1007.34C1533.24 1007.77 1532.41 1007.97 1531.35 1007.97ZM1552.73 1008.06C1548.3 1008.06 1545.06 1004.57 1545.06 1000.39V1000.33C1545.06 996.123 1548.3 992.602 1552.79 992.602C1557.25 992.602 1560.49 996.094 1560.49 1000.27V1000.33C1560.49 1004.54 1557.2 1008.06 1552.73 1008.06ZM1552.79 1006.08C1556 1006.08 1558.23 1003.48 1558.23 1000.39V1000.33C1558.23 997.154 1555.85 994.549 1552.73 994.549C1549.53 994.549 1547.32 997.154 1547.32 1000.27V1000.33C1547.32 1003.51 1549.67 1006.08 1552.79 1006.08ZM1565.03 1007.72V994.864H1562.99V992.946H1565.03V991.658C1565.03 989.969 1565.45 988.709 1566.31 987.851C1567.09 987.078 1568.15 986.706 1569.49 986.706C1570.52 986.706 1571.21 986.82 1571.92 987.078V988.996C1571.12 988.767 1570.55 988.624 1569.78 988.624C1568.06 988.624 1567.2 989.683 1567.2 991.772V992.974H1571.9V994.864H1567.23V1007.72H1565.03ZM1209.44 1048.06C1205.09 1048.06 1201.86 1044.54 1201.86 1040.39V1040.33C1201.86 1036.12 1205.09 1032.6 1209.44 1032.6C1212.25 1032.6 1213.97 1033.75 1215.37 1035.24L1213.91 1036.78C1212.73 1035.55 1211.45 1034.55 1209.41 1034.55C1206.41 1034.55 1204.12 1037.07 1204.12 1040.27V1040.33C1204.12 1043.54 1206.47 1046.08 1209.56 1046.08C1211.48 1046.08 1212.91 1045.14 1214.08 1043.88L1215.48 1045.2C1213.99 1046.89 1212.22 1048.06 1209.44 1048.06ZM1223.25 1048.03C1220.5 1048.03 1217.72 1046.48 1217.72 1043.42V1043.36C1217.72 1040.27 1220.3 1038.58 1224.05 1038.58C1225.97 1038.58 1227.26 1038.84 1228.6 1039.21V1038.7C1228.6 1036.04 1226.97 1034.66 1224.19 1034.66C1222.45 1034.66 1221.07 1035.09 1219.7 1035.75L1219.04 1033.95C1220.67 1033.17 1222.25 1032.72 1224.42 1032.72C1226.51 1032.72 1228.11 1033.26 1229.2 1034.35C1230.2 1035.35 1230.72 1036.81 1230.72 1038.67V1047.72H1228.6V1045.48C1227.57 1046.83 1225.88 1048.03 1223.25 1048.03ZM1223.68 1046.28C1226.43 1046.28 1228.63 1044.62 1228.63 1042.28V1040.85C1227.51 1040.53 1226.11 1040.22 1224.28 1040.22C1221.5 1040.22 1219.96 1041.42 1219.96 1043.28V1043.34C1219.96 1045.2 1221.7 1046.28 1223.68 1046.28ZM1235.13 1047.72V1032.92H1237.33V1036.78C1238.42 1034.32 1240.57 1032.57 1243.37 1032.66V1035.04H1243.2C1239.97 1035.04 1237.33 1037.35 1237.33 1041.82V1047.72H1235.13ZM1246.5 1029.68V1027.25H1249.02V1029.68H1246.5ZM1246.64 1047.72V1032.92H1248.85V1047.72H1246.64ZM1253.68 1047.72V1032.92H1255.88V1035.49C1256.88 1033.89 1258.4 1032.6 1260.95 1032.6C1264.5 1032.6 1266.62 1035.01 1266.62 1038.53V1047.72H1264.41V1039.07C1264.41 1036.32 1262.95 1034.61 1260.32 1034.61C1257.77 1034.61 1255.88 1036.47 1255.88 1039.24V1047.72H1253.68ZM1277.58 1052.35C1275.09 1052.35 1272.83 1051.67 1270.86 1050.29L1271.86 1048.57C1273.58 1049.81 1275.41 1050.46 1277.56 1050.46C1280.85 1050.46 1282.94 1048.66 1282.94 1045.2V1043.45C1281.65 1045.17 1279.85 1046.57 1277.13 1046.57C1273.58 1046.57 1270.17 1043.88 1270.17 1039.64V1039.59C1270.17 1035.26 1273.58 1032.6 1277.13 1032.6C1279.9 1032.6 1281.68 1033.98 1282.91 1035.58V1032.92H1285.11V1045.14C1285.11 1047.43 1284.45 1049.15 1283.22 1050.38C1281.88 1051.72 1279.96 1052.35 1277.58 1052.35ZM1277.56 1044.62C1280.36 1044.62 1282.99 1042.59 1282.99 1039.62V1039.56C1282.99 1036.52 1280.36 1034.55 1277.56 1034.55C1274.72 1034.55 1272.43 1036.5 1272.43 1039.53V1039.59C1272.43 1042.56 1274.81 1044.62 1277.56 1044.62ZM1288.95 1051.21L1288.61 1050.21C1290.07 1049.66 1290.64 1048.95 1290.52 1047.72H1289.49V1044.71H1292.13V1047.29C1292.13 1049.61 1291.13 1050.72 1288.95 1051.21ZM1309.19 1048.03C1306.44 1048.03 1303.66 1046.48 1303.66 1043.42V1043.36C1303.66 1040.27 1306.24 1038.58 1309.99 1038.58C1311.9 1038.58 1313.19 1038.84 1314.54 1039.21V1038.7C1314.54 1036.04 1312.91 1034.66 1310.13 1034.66C1308.38 1034.66 1307.01 1035.09 1305.64 1035.75L1304.98 1033.95C1306.61 1033.17 1308.18 1032.72 1310.36 1032.72C1312.45 1032.72 1314.05 1033.26 1315.14 1034.35C1316.14 1035.35 1316.66 1036.81 1316.66 1038.67V1047.72H1314.54V1045.48C1313.51 1046.83 1311.82 1048.03 1309.19 1048.03ZM1309.61 1046.28C1312.36 1046.28 1314.57 1044.62 1314.57 1042.28V1040.85C1313.45 1040.53 1312.05 1040.22 1310.22 1040.22C1307.44 1040.22 1305.89 1041.42 1305.89 1043.28V1043.34C1305.89 1045.2 1307.64 1046.28 1309.61 1046.28ZM1321.07 1047.72V1032.92H1323.27V1035.49C1324.27 1033.89 1325.79 1032.6 1328.34 1032.6C1331.89 1032.6 1334.01 1035.01 1334.01 1038.53V1047.72H1331.8V1039.07C1331.8 1036.32 1330.34 1034.61 1327.71 1034.61C1325.16 1034.61 1323.27 1036.47 1323.27 1039.24V1047.72H1321.07ZM1344.63 1048.03C1341.08 1048.03 1337.56 1045.23 1337.56 1040.36V1040.3C1337.56 1035.49 1341.08 1032.6 1344.63 1032.6C1347.38 1032.6 1349.15 1034.06 1350.3 1035.75V1026.82H1352.5V1047.72H1350.3V1044.74C1349.07 1046.51 1347.38 1048.03 1344.63 1048.03ZM1345.03 1046.06C1347.78 1046.06 1350.38 1043.74 1350.38 1040.33V1040.27C1350.38 1036.87 1347.78 1034.58 1345.03 1034.58C1342.17 1034.58 1339.82 1036.7 1339.82 1040.27V1040.33C1339.82 1043.85 1342.2 1046.06 1345.03 1046.06ZM1365.49 1029.68V1027.25H1368.01V1029.68H1365.49ZM1365.64 1047.72V1032.92H1367.84V1047.72H1365.64ZM1377.62 1047.97C1375.22 1047.97 1373.44 1046.8 1373.44 1043.79V1034.86H1371.38V1032.92H1373.44V1028.45H1375.65V1032.92H1380.34V1034.86H1375.65V1043.51C1375.65 1045.34 1376.65 1045.97 1378.14 1045.97C1378.91 1045.97 1379.51 1045.83 1380.28 1045.45V1047.34C1379.51 1047.77 1378.68 1047.97 1377.62 1047.97ZM1392.25 1047.72V1026.82H1394.46V1035.49C1395.46 1033.89 1396.97 1032.6 1399.52 1032.6C1403.07 1032.6 1405.19 1035.01 1405.19 1038.53V1047.72H1402.99V1039.07C1402.99 1036.32 1401.53 1034.61 1398.89 1034.61C1396.34 1034.61 1394.46 1036.47 1394.46 1039.24V1047.72H1392.25ZM1414.01 1048.03C1411.26 1048.03 1408.49 1046.48 1408.49 1043.42V1043.36C1408.49 1040.27 1411.06 1038.58 1414.81 1038.58C1416.73 1038.58 1418.02 1038.84 1419.36 1039.21V1038.7C1419.36 1036.04 1417.73 1034.66 1414.96 1034.66C1413.21 1034.66 1411.84 1035.09 1410.46 1035.75L1409.8 1033.95C1411.44 1033.17 1413.01 1032.72 1415.19 1032.72C1417.28 1032.72 1418.88 1033.26 1419.97 1034.35C1420.97 1035.35 1421.48 1036.81 1421.48 1038.67V1047.72H1419.36V1045.48C1418.33 1046.83 1416.65 1048.03 1414.01 1048.03ZM1414.44 1046.28C1417.19 1046.28 1419.39 1044.62 1419.39 1042.28V1040.85C1418.28 1040.53 1416.87 1040.22 1415.04 1040.22C1412.27 1040.22 1410.72 1041.42 1410.72 1043.28V1043.34C1410.72 1045.2 1412.47 1046.28 1414.44 1046.28ZM1430.79 1048C1428.64 1048 1426.35 1047.17 1424.66 1045.83L1425.78 1044.25C1427.38 1045.48 1429.16 1046.14 1430.9 1046.14C1432.71 1046.14 1433.97 1045.25 1433.97 1043.79V1043.74C1433.97 1042.28 1432.22 1041.68 1430.27 1041.13C1427.98 1040.45 1425.38 1039.7 1425.38 1036.95V1036.9C1425.38 1034.35 1427.5 1032.66 1430.42 1032.66C1432.25 1032.66 1434.22 1033.29 1435.74 1034.29L1434.74 1035.95C1433.36 1035.06 1431.82 1034.52 1430.36 1034.52C1428.61 1034.52 1427.5 1035.44 1427.5 1036.67V1036.72C1427.5 1038.13 1429.33 1038.67 1431.3 1039.27C1433.59 1039.96 1436.06 1040.85 1436.06 1043.51V1043.57C1436.06 1046.37 1433.74 1048 1430.79 1048ZM1452.57 1048.03C1449.82 1048.03 1447.04 1046.48 1447.04 1043.42V1043.36C1447.04 1040.27 1449.62 1038.58 1453.37 1038.58C1455.29 1038.58 1456.57 1038.84 1457.92 1039.21V1038.7C1457.92 1036.04 1456.29 1034.66 1453.51 1034.66C1451.77 1034.66 1450.39 1035.09 1449.02 1035.75L1448.36 1033.95C1449.99 1033.17 1451.57 1032.72 1453.74 1032.72C1455.83 1032.72 1457.43 1033.26 1458.52 1034.35C1459.52 1035.35 1460.04 1036.81 1460.04 1038.67V1047.72H1457.92V1045.48C1456.89 1046.83 1455.2 1048.03 1452.57 1048.03ZM1453 1046.28C1455.74 1046.28 1457.95 1044.62 1457.95 1042.28V1040.85C1456.83 1040.53 1455.43 1040.22 1453.6 1040.22C1450.82 1040.22 1449.28 1041.42 1449.28 1043.28V1043.34C1449.28 1045.2 1451.02 1046.28 1453 1046.28ZM1472.74 1052.3V1032.92H1474.95V1035.89C1476.18 1034.15 1477.87 1032.6 1480.62 1032.6C1484.17 1032.6 1487.69 1035.41 1487.69 1040.27V1040.33C1487.69 1045.14 1484.19 1048.03 1480.62 1048.03C1477.87 1048.03 1476.09 1046.57 1474.95 1044.88V1052.3H1472.74ZM1480.22 1046.06C1483.08 1046.06 1485.43 1043.94 1485.43 1040.36V1040.3C1485.43 1036.78 1483.05 1034.58 1480.22 1034.58C1477.47 1034.58 1474.86 1036.92 1474.86 1040.27V1040.33C1474.86 1043.77 1477.47 1046.06 1480.22 1046.06ZM1491.67 1047.72V1026.82H1493.87V1047.72H1491.67ZM1503.11 1048.03C1500.36 1048.03 1497.58 1046.48 1497.58 1043.42V1043.36C1497.58 1040.27 1500.16 1038.58 1503.91 1038.58C1505.83 1038.58 1507.12 1038.84 1508.46 1039.21V1038.7C1508.46 1036.04 1506.83 1034.66 1504.05 1034.66C1502.31 1034.66 1500.93 1035.09 1499.56 1035.75L1498.9 1033.95C1500.53 1033.17 1502.11 1032.72 1504.28 1032.72C1506.37 1032.72 1507.97 1033.26 1509.06 1034.35C1510.06 1035.35 1510.58 1036.81 1510.58 1038.67V1047.72H1508.46V1045.48C1507.43 1046.83 1505.74 1048.03 1503.11 1048.03ZM1503.54 1046.28C1506.29 1046.28 1508.49 1044.62 1508.49 1042.28V1040.85C1507.37 1040.53 1505.97 1040.22 1504.14 1040.22C1501.36 1040.22 1499.82 1041.42 1499.82 1043.28V1043.34C1499.82 1045.2 1501.56 1046.28 1503.54 1046.28ZM1521.66 1048.06C1517.31 1048.06 1514.07 1044.54 1514.07 1040.39V1040.33C1514.07 1036.12 1517.31 1032.6 1521.66 1032.6C1524.46 1032.6 1526.18 1033.75 1527.58 1035.24L1526.12 1036.78C1524.95 1035.55 1523.66 1034.55 1521.63 1034.55C1518.63 1034.55 1516.34 1037.07 1516.34 1040.27V1040.33C1516.34 1043.54 1518.68 1046.08 1521.77 1046.08C1523.69 1046.08 1525.12 1045.14 1526.3 1043.88L1527.7 1045.2C1526.21 1046.89 1524.44 1048.06 1521.66 1048.06ZM1537.11 1048.06C1533.07 1048.06 1529.72 1044.94 1529.72 1040.36V1040.3C1529.72 1036.04 1532.7 1032.6 1536.82 1032.6C1541.2 1032.6 1543.72 1036.09 1543.72 1040.42C1543.72 1040.73 1543.72 1040.87 1543.69 1041.13H1531.95C1532.27 1044.34 1534.53 1046.14 1537.16 1046.14C1539.22 1046.14 1540.6 1045.31 1541.83 1044.05L1543.2 1045.28C1541.71 1046.97 1539.94 1048.06 1537.11 1048.06ZM1531.95 1039.5H1541.49C1541.26 1036.84 1539.74 1034.46 1536.76 1034.46C1534.16 1034.46 1532.27 1036.64 1531.95 1039.5ZM1555.59 1047.72V1026.82H1557.79V1035.49C1558.79 1033.89 1560.31 1032.6 1562.86 1032.6C1566.41 1032.6 1568.52 1035.01 1568.52 1038.53V1047.72H1566.32V1039.07C1566.32 1036.32 1564.86 1034.61 1562.23 1034.61C1559.68 1034.61 1557.79 1036.47 1557.79 1039.24V1047.72H1555.59ZM1579.41 1048.06C1575.37 1048.06 1572.02 1044.94 1572.02 1040.36V1040.3C1572.02 1036.04 1575 1032.6 1579.12 1032.6C1583.5 1032.6 1586.02 1036.09 1586.02 1040.42C1586.02 1040.73 1586.02 1040.87 1585.99 1041.13H1574.25C1574.57 1044.34 1576.83 1046.14 1579.46 1046.14C1581.53 1046.14 1582.9 1045.31 1584.13 1044.05L1585.5 1045.28C1584.02 1046.97 1582.24 1048.06 1579.41 1048.06ZM1574.25 1039.5H1583.79C1583.56 1036.84 1582.04 1034.46 1579.06 1034.46C1576.46 1034.46 1574.57 1036.64 1574.25 1039.5ZM1589.59 1047.72V1032.92H1591.8V1036.78C1592.88 1034.32 1595.03 1032.57 1597.84 1032.66V1035.04H1597.66C1594.43 1035.04 1591.8 1037.35 1591.8 1041.82V1047.72H1589.59ZM1606.73 1048.06C1602.7 1048.06 1599.35 1044.94 1599.35 1040.36V1040.3C1599.35 1036.04 1602.32 1032.6 1606.45 1032.6C1610.83 1032.6 1613.34 1036.09 1613.34 1040.42C1613.34 1040.73 1613.34 1040.87 1613.32 1041.13H1601.58C1601.89 1044.34 1604.16 1046.14 1606.79 1046.14C1608.85 1046.14 1610.22 1045.31 1611.46 1044.05L1612.83 1045.28C1611.34 1046.97 1609.57 1048.06 1606.73 1048.06ZM1601.58 1039.5H1611.11C1610.88 1036.84 1609.37 1034.46 1606.39 1034.46C1603.78 1034.46 1601.89 1036.64 1601.58 1039.5Z" fill="#F7EBE5"/>
<path d="M1654.22 549.873L1647.06 529.693H1649.52L1655.25 546.38L1660.74 529.635H1662.6L1668.1 546.38L1673.82 529.693H1676.2L1669.04 549.873H1667.13L1661.63 533.614L1656.11 549.873H1654.22ZM1684.24 550.073C1680.21 550.073 1676.86 546.953 1676.86 542.373V542.316C1676.86 538.051 1679.84 534.616 1683.96 534.616C1688.34 534.616 1690.86 538.108 1690.86 542.43C1690.86 542.745 1690.86 542.888 1690.83 543.146H1679.09C1679.41 546.352 1681.67 548.155 1684.3 548.155C1686.36 548.155 1687.74 547.325 1688.97 546.066L1690.34 547.296C1688.85 548.985 1687.08 550.073 1684.24 550.073ZM1679.09 541.514H1688.62C1688.39 538.852 1686.88 536.477 1683.9 536.477C1681.3 536.477 1679.41 538.652 1679.09 541.514ZM1709.39 550.073C1705.04 550.073 1701.81 546.552 1701.81 542.402V542.344C1701.81 538.137 1705.04 534.616 1709.39 534.616C1712.2 534.616 1713.92 535.761 1715.32 537.249L1713.86 538.795C1712.68 537.564 1711.4 536.562 1709.36 536.562C1706.36 536.562 1704.07 539.081 1704.07 542.287V542.344C1704.07 545.55 1706.42 548.098 1709.51 548.098C1711.42 548.098 1712.86 547.153 1714.03 545.894L1715.43 547.211C1713.94 548.899 1712.17 550.073 1709.39 550.073ZM1718.79 549.729V528.834H1720.99V537.507C1722 535.904 1723.51 534.616 1726.06 534.616C1729.61 534.616 1731.73 537.02 1731.73 540.541V549.729H1729.52V541.085C1729.52 538.337 1728.06 536.62 1725.43 536.62C1722.88 536.62 1720.99 538.48 1720.99 541.257V549.729H1718.79ZM1742.61 550.073C1738.57 550.073 1735.23 546.953 1735.23 542.373V542.316C1735.23 538.051 1738.2 534.616 1742.32 534.616C1746.7 534.616 1749.22 538.108 1749.22 542.43C1749.22 542.745 1749.22 542.888 1749.19 543.146H1737.46C1737.77 546.352 1740.03 548.155 1742.67 548.155C1744.73 548.155 1746.1 547.325 1747.33 546.066L1748.71 547.296C1747.22 548.985 1745.44 550.073 1742.61 550.073ZM1737.46 541.514H1746.99C1746.76 538.852 1745.24 536.477 1742.27 536.477C1739.66 536.477 1737.77 538.652 1737.46 541.514ZM1759.46 550.073C1755.11 550.073 1751.88 546.552 1751.88 542.402V542.344C1751.88 538.137 1755.11 534.616 1759.46 534.616C1762.27 534.616 1763.99 535.761 1765.39 537.249L1763.93 538.795C1762.76 537.564 1761.47 536.562 1759.44 536.562C1756.43 536.562 1754.14 539.081 1754.14 542.287V542.344C1754.14 545.55 1756.49 548.098 1759.58 548.098C1761.5 548.098 1762.93 547.153 1764.1 545.894L1765.5 547.211C1764.02 548.899 1762.24 550.073 1759.46 550.073ZM1768.86 549.729V528.834H1771.07V543.26L1779.05 534.931H1781.8L1775.59 541.285L1782 549.729H1779.37L1774.07 542.831L1771.07 545.865V549.729H1768.86ZM1793.22 531.696V529.263H1795.74V531.696H1793.22ZM1793.37 549.729V534.931H1795.57V549.729H1793.37ZM1800.4 549.729V534.931H1802.6V537.507C1803.61 535.904 1805.12 534.616 1807.67 534.616C1811.22 534.616 1813.34 537.02 1813.34 540.541V549.729H1811.13V541.085C1811.13 538.337 1809.67 536.62 1807.04 536.62C1804.49 536.62 1802.6 538.48 1802.6 541.257V549.729H1800.4ZM1816.95 553.222L1816.61 552.22C1818.07 551.676 1818.64 550.96 1818.53 549.729H1817.5V546.724H1820.13V549.3C1820.13 551.619 1819.13 552.735 1816.95 553.222ZM1839.25 550.073C1835.21 550.073 1831.86 546.953 1831.86 542.373V542.316C1831.86 538.051 1834.84 534.616 1838.96 534.616C1843.34 534.616 1845.86 538.108 1845.86 542.43C1845.86 542.745 1845.86 542.888 1845.83 543.146H1834.1C1834.41 546.352 1836.67 548.155 1839.3 548.155C1841.37 548.155 1842.74 547.325 1843.97 546.066L1845.34 547.296C1843.86 548.985 1842.08 550.073 1839.25 550.073ZM1834.1 541.514H1843.63C1843.4 538.852 1841.88 536.477 1838.9 536.477C1836.3 536.477 1834.41 538.652 1834.1 541.514ZM1853.66 549.844L1847.25 534.931H1849.68L1854.66 547.211L1859.67 534.931H1862.04L1855.6 549.844H1853.66ZM1870.82 550.073C1866.79 550.073 1863.44 546.953 1863.44 542.373V542.316C1863.44 538.051 1866.41 534.616 1870.53 534.616C1874.91 534.616 1877.43 538.108 1877.43 542.43C1877.43 542.745 1877.43 542.888 1877.4 543.146H1865.67C1865.98 546.352 1868.25 548.155 1870.88 548.155C1872.94 548.155 1874.31 547.325 1875.54 546.066L1876.92 547.296C1875.43 548.985 1873.66 550.073 1870.82 550.073ZM1865.67 541.514H1875.2C1874.97 538.852 1873.45 536.477 1870.48 536.477C1867.87 536.477 1865.98 538.652 1865.67 541.514ZM1881.01 549.729V534.931H1883.21V537.507C1884.21 535.904 1885.73 534.616 1888.28 534.616C1891.83 534.616 1893.94 537.02 1893.94 540.541V549.729H1891.74V541.085C1891.74 538.337 1890.28 536.62 1887.65 536.62C1885.1 536.62 1883.21 538.48 1883.21 541.257V549.729H1881.01ZM1671.09 589.844L1665.91 574.931H1668.25L1672.15 586.81L1676.13 574.874H1677.96L1681.96 586.81L1685.86 574.931H1688.15L1682.94 589.844H1681.02L1677.04 578.165L1673.03 589.844H1671.09ZM1691.59 571.696V569.263H1694.11V571.696H1691.59ZM1691.73 589.729V574.931H1693.94V589.729H1691.73ZM1703.72 589.987C1701.32 589.987 1699.54 588.814 1699.54 585.808V576.877H1697.48V574.931H1699.54V570.465H1701.74V574.931H1706.44V576.877H1701.74V585.522C1701.74 587.354 1702.75 587.983 1704.23 587.983C1705.01 587.983 1705.61 587.84 1706.38 587.468V589.357C1705.61 589.787 1704.78 589.987 1703.72 589.987ZM1710.05 589.729V568.834H1712.26V577.507C1713.26 575.904 1714.78 574.616 1717.32 574.616C1720.87 574.616 1722.99 577.02 1722.99 580.541V589.729H1720.79V581.085C1720.79 578.337 1719.33 576.62 1716.69 576.62C1714.15 576.62 1712.26 578.48 1712.26 581.257V589.729H1710.05ZM1735.76 571.696V569.263H1738.28V571.696H1735.76ZM1734.5 594.395C1733.96 594.395 1733.61 594.367 1733.13 594.252V592.449C1733.47 592.535 1733.9 592.535 1734.21 592.535C1735.22 592.535 1735.9 591.934 1735.9 590.56V574.931H1738.11V590.588C1738.11 593.222 1736.76 594.395 1734.5 594.395ZM1748.37 590.044C1744.82 590.044 1742.71 587.64 1742.71 584.119V574.931H1744.91V583.575C1744.91 586.323 1746.37 588.041 1749 588.041C1751.52 588.041 1753.44 586.18 1753.44 583.404V574.931H1755.62V589.729H1753.44V587.153C1752.44 588.756 1750.92 590.044 1748.37 590.044ZM1765.18 590.016C1763.04 590.016 1760.75 589.186 1759.06 587.84L1760.17 586.266C1761.78 587.497 1763.55 588.155 1765.3 588.155C1767.1 588.155 1768.36 587.268 1768.36 585.808V585.751C1768.36 584.291 1766.61 583.69 1764.67 583.146C1762.38 582.459 1759.77 581.715 1759.77 578.967V578.91C1759.77 576.362 1761.89 574.673 1764.81 574.673C1766.64 574.673 1768.62 575.303 1770.13 576.305L1769.13 577.965C1767.76 577.078 1766.21 576.534 1764.75 576.534C1763.01 576.534 1761.89 577.45 1761.89 578.681V578.738C1761.89 580.14 1763.72 580.684 1765.7 581.285C1767.99 581.972 1770.45 582.86 1770.45 585.522V585.579C1770.45 588.384 1768.13 590.016 1765.18 590.016ZM1778.93 589.987C1776.53 589.987 1774.75 588.814 1774.75 585.808V576.877H1772.69V574.931H1774.75V570.465H1776.95V574.931H1781.65V576.877H1776.95V585.522C1776.95 587.354 1777.96 587.983 1779.44 587.983C1780.22 587.983 1780.82 587.84 1781.59 587.468V589.357C1780.82 589.787 1779.99 589.987 1778.93 589.987ZM1797.97 590.044C1795.22 590.044 1792.44 588.499 1792.44 585.436V585.379C1792.44 582.287 1795.02 580.598 1798.77 580.598C1800.69 580.598 1801.97 580.856 1803.32 581.228V580.713C1803.32 578.051 1801.69 576.677 1798.91 576.677C1797.17 576.677 1795.79 577.106 1794.42 577.765L1793.76 575.961C1795.39 575.188 1796.97 574.73 1799.14 574.73C1801.23 574.73 1802.83 575.274 1803.92 576.362C1804.92 577.364 1805.44 578.824 1805.44 580.684V589.729H1803.32V587.497C1802.29 588.842 1800.6 590.044 1797.97 590.044ZM1798.4 588.298C1801.14 588.298 1803.35 586.638 1803.35 584.291V582.86C1802.23 582.545 1800.83 582.23 1799 582.23C1796.22 582.23 1794.68 583.432 1794.68 585.293V585.35C1794.68 587.211 1796.42 588.298 1798.4 588.298ZM1818.14 589.729V574.931H1820.35V577.507C1821.35 575.904 1822.87 574.616 1825.42 574.616C1828.96 574.616 1831.08 577.02 1831.08 580.541V589.729H1828.88V581.085C1828.88 578.337 1827.42 576.62 1824.79 576.62C1822.24 576.62 1820.35 578.48 1820.35 581.257V589.729H1818.14ZM1842.25 590.073C1837.82 590.073 1834.58 586.581 1834.58 582.402V582.344C1834.58 578.137 1837.82 574.616 1842.31 574.616C1846.78 574.616 1850.01 578.108 1850.01 582.287V582.344C1850.01 586.552 1846.72 590.073 1842.25 590.073ZM1842.31 588.098C1845.52 588.098 1847.75 585.493 1847.75 582.402V582.344C1847.75 579.167 1845.37 576.562 1842.25 576.562C1839.05 576.562 1836.84 579.167 1836.84 582.287V582.344C1836.84 585.522 1839.19 588.098 1842.31 588.098ZM1859.93 590.044C1856.38 590.044 1852.86 587.239 1852.86 582.373V582.316C1852.86 577.507 1856.38 574.616 1859.93 574.616C1862.68 574.616 1864.45 576.076 1865.59 577.765V568.834H1867.8V589.729H1865.59V586.753C1864.36 588.527 1862.68 590.044 1859.93 590.044ZM1860.33 588.069C1863.08 588.069 1865.68 585.751 1865.68 582.344V582.287C1865.68 578.881 1863.08 576.591 1860.33 576.591C1857.47 576.591 1855.12 578.709 1855.12 582.287V582.344C1855.12 585.865 1857.49 588.069 1860.33 588.069ZM1872.15 589.729V586.724H1874.79V589.729H1872.15Z" fill="#F8EBE5"/>
<path d="M465.15 80.8765L457.994 60.6965H460.456L466.181 77.3844L471.676 60.6393H473.537L479.033 77.3844L484.758 60.6965H487.133L479.977 80.8765H478.06L472.564 64.618L467.039 80.8765H465.15ZM495.177 81.0769C491.141 81.0769 487.792 77.9569 487.792 73.377V73.3197C487.792 69.0548 490.769 65.6199 494.89 65.6199C499.27 65.6199 501.789 69.112 501.789 73.4342C501.789 73.7491 501.789 73.8922 501.76 74.1498H490.024C490.339 77.3558 492.6 79.1591 495.234 79.1591C497.295 79.1591 498.669 78.329 499.9 77.0695L501.274 78.3003C499.785 79.9892 498.01 81.0769 495.177 81.0769ZM490.024 72.5183H499.556C499.327 69.8562 497.81 67.4804 494.833 67.4804C492.228 67.4804 490.339 69.6559 490.024 72.5183ZM504.703 67.1942L504.359 66.1923C505.819 65.6485 506.391 64.9329 506.277 63.702H505.247V60.6965H507.88V63.2727C507.88 65.5912 506.878 66.7076 504.703 67.1942ZM512.091 80.7334V65.9347H514.295V69.799C515.383 67.3373 517.53 65.5912 520.335 65.6771V68.0529H520.163C516.928 68.0529 514.295 70.3715 514.295 74.8368V80.7334H512.091ZM529.232 81.0769C525.196 81.0769 521.846 77.9569 521.846 73.377V73.3197C521.846 69.0548 524.823 65.6199 528.945 65.6199C533.325 65.6199 535.844 69.112 535.844 73.4342C535.844 73.7491 535.844 73.8922 535.815 74.1498H524.079C524.394 77.3558 526.655 79.1591 529.289 79.1591C531.35 79.1591 532.724 78.329 533.954 77.0695L535.328 78.3003C533.84 79.9892 532.065 81.0769 529.232 81.0769ZM524.079 72.5183H533.611C533.382 69.8562 531.865 67.4804 528.888 67.4804C526.283 67.4804 524.394 69.6559 524.079 72.5183ZM547.711 80.7334V65.9347H549.915V68.5109C550.917 66.9079 552.434 65.6199 554.982 65.6199C558.531 65.6199 560.649 68.0243 560.649 71.5451V80.7334H558.445V72.0889C558.445 69.341 556.986 67.6235 554.352 67.6235C551.805 67.6235 549.915 69.4841 549.915 72.2607V80.7334H547.711ZM571.819 81.0769C567.382 81.0769 564.148 77.5847 564.148 73.4056V73.3484C564.148 69.1406 567.382 65.6199 571.876 65.6199C576.341 65.6199 579.576 69.112 579.576 73.2911V73.3484C579.576 77.5561 576.284 81.0769 571.819 81.0769ZM571.876 79.1018C575.082 79.1018 577.315 76.497 577.315 73.4056V73.3484C577.315 70.1711 574.939 67.5663 571.819 67.5663C568.613 67.5663 566.409 70.1711 566.409 73.2911V73.3484C566.409 76.5257 568.756 79.1018 571.876 79.1018ZM588.234 80.991C585.83 80.991 584.055 79.8174 584.055 76.8119V67.8812H581.994V65.9347H584.055V61.4694H586.259V65.9347H590.954V67.8812H586.259V76.5257C586.259 78.3576 587.261 78.9873 588.75 78.9873C589.522 78.9873 590.124 78.8442 590.896 78.4721V80.3613C590.124 80.7906 589.293 80.991 588.234 80.991ZM602.921 62.7002V60.2671H605.44V62.7002H602.921ZM601.662 85.3991C601.118 85.3991 600.775 85.3705 600.288 85.256V83.4527C600.632 83.5386 601.061 83.5386 601.376 83.5386C602.378 83.5386 603.065 82.9375 603.065 81.5635V65.9347H605.269V81.5921C605.269 84.2255 603.923 85.3991 601.662 85.3991ZM615.536 81.0483C611.987 81.0483 609.868 78.6438 609.868 75.1231V65.9347H612.072V74.5792C612.072 77.3271 613.532 79.0446 616.166 79.0446C618.685 79.0446 620.602 77.184 620.602 74.4075V65.9347H622.778V80.7334H620.602V78.1572C619.601 79.7602 618.084 81.0483 615.536 81.0483ZM632.344 81.0196C630.198 81.0196 627.908 80.1895 626.219 78.8442L627.335 77.2699C628.938 78.5007 630.713 79.1591 632.459 79.1591C634.262 79.1591 635.522 78.2717 635.522 76.8119V76.7546C635.522 75.2948 633.776 74.6937 631.829 74.1498C629.539 73.4629 626.934 72.7186 626.934 69.9707V69.9135C626.934 67.3659 629.053 65.6771 631.972 65.6771C633.804 65.6771 635.779 66.3068 637.296 67.3087L636.294 68.9689C634.921 68.0815 633.375 67.5377 631.915 67.5377C630.169 67.5377 629.053 68.4536 629.053 69.6845V69.7417C629.053 71.1443 630.885 71.6882 632.86 72.2893C635.15 72.9763 637.611 73.8636 637.611 76.5257V76.5829C637.611 79.3881 635.293 81.0196 632.344 81.0196ZM646.092 80.991C643.688 80.991 641.913 79.8174 641.913 76.8119V67.8812H639.852V65.9347H641.913V61.4694H644.117V65.9347H648.811V67.8812H644.117V76.5257C644.117 78.3576 645.119 78.9873 646.607 78.9873C647.38 78.9873 647.981 78.8442 648.754 78.4721V80.3613C647.981 80.7906 647.151 80.991 646.092 80.991ZM660.722 85.3133V65.9347H662.926V68.9116C664.157 67.1656 665.846 65.6199 668.593 65.6199C672.143 65.6199 675.664 68.425 675.664 73.2911V73.3484C675.664 78.1572 672.171 81.0483 668.593 81.0483C665.846 81.0483 664.071 79.5884 662.926 77.8996V85.3133H660.722ZM668.193 79.0732C671.055 79.0732 673.402 76.955 673.402 73.377V73.3197C673.402 69.799 671.027 67.5949 668.193 67.5949C665.445 67.5949 662.84 69.9421 662.84 73.2911V73.3484C662.84 76.7833 665.445 79.0732 668.193 79.0732ZM679.444 80.7334V65.9347H681.648V69.799C682.736 67.3373 684.882 65.5912 687.688 65.6771V68.0529H687.516C684.281 68.0529 681.648 70.3715 681.648 74.8368V80.7334H679.444ZM696.871 81.0769C692.434 81.0769 689.199 77.5847 689.199 73.4056V73.3484C689.199 69.1406 692.434 65.6199 696.928 65.6199C701.393 65.6199 704.628 69.112 704.628 73.2911V73.3484C704.628 77.5561 701.336 81.0769 696.871 81.0769ZM696.928 79.1018C700.134 79.1018 702.366 76.497 702.366 73.4056V73.3484C702.366 70.1711 699.991 67.5663 696.871 67.5663C693.665 67.5663 691.461 70.1711 691.461 73.2911V73.3484C691.461 76.5257 693.808 79.1018 696.928 79.1018ZM712.419 80.8479L706.008 65.9347H708.441L713.421 78.2145L718.431 65.9347H720.806L714.366 80.8479H712.419ZM724.038 62.7002V60.2671H726.557V62.7002H724.038ZM724.182 80.7334V65.9347H726.386V80.7334H724.182ZM737.426 81.0483C733.876 81.0483 730.356 78.2431 730.356 73.377V73.3197C730.356 68.5109 733.876 65.6199 737.426 65.6199C740.174 65.6199 741.948 67.0797 743.093 68.7685V59.8378H745.297V80.7334H743.093V77.7565C741.863 79.5312 740.174 81.0483 737.426 81.0483ZM737.827 79.0732C740.574 79.0732 743.179 76.7546 743.179 73.3484V73.2911C743.179 69.8849 740.574 67.5949 737.827 67.5949C734.964 67.5949 732.617 69.7131 732.617 73.2911V73.3484C732.617 76.8691 734.993 79.0732 737.827 79.0732ZM756.405 81.0769C752.369 81.0769 749.02 77.9569 749.02 73.377V73.3197C749.02 69.0548 751.997 65.6199 756.119 65.6199C760.499 65.6199 763.018 69.112 763.018 73.4342C763.018 73.7491 763.018 73.8922 762.989 74.1498H751.253C751.568 77.3558 753.829 79.1591 756.463 79.1591C758.524 79.1591 759.898 78.329 761.128 77.0695L762.502 78.3003C761.014 79.9892 759.239 81.0769 756.405 81.0769ZM751.253 72.5183H760.785C760.556 69.8562 759.039 67.4804 756.062 67.4804C753.457 67.4804 751.568 69.6559 751.253 72.5183ZM766.59 80.7334V65.9347H768.794V69.799C769.882 67.3373 772.028 65.5912 774.833 65.6771V68.0529H774.662C771.427 68.0529 768.794 70.3715 768.794 74.8368V80.7334H766.59ZM782.799 81.0196C780.652 81.0196 778.362 80.1895 776.673 78.8442L777.79 77.2699C779.393 78.5007 781.167 79.1591 782.913 79.1591C784.717 79.1591 785.976 78.2717 785.976 76.8119V76.7546C785.976 75.2948 784.23 74.6937 782.284 74.1498C779.994 73.4629 777.389 72.7186 777.389 69.9707V69.9135C777.389 67.3659 779.507 65.6771 782.427 65.6771C784.259 65.6771 786.234 66.3068 787.751 67.3087L786.749 68.9689C785.375 68.0815 783.829 67.5377 782.369 67.5377C780.623 67.5377 779.507 68.4536 779.507 69.6845V69.7417C779.507 71.1443 781.339 71.6882 783.314 72.2893C785.604 72.9763 788.066 73.8636 788.066 76.5257V76.5829C788.066 79.3881 785.747 81.0196 782.799 81.0196ZM791.273 73.2339V71.0298H813.256V73.2339H791.273ZM521.722 120.848L516.541 105.935H518.888L522.781 117.814L526.76 105.877H528.592L532.599 117.814L536.492 105.935H538.782L533.573 120.848H531.655L527.676 109.169L523.669 120.848H521.722ZM547.912 121.077C543.876 121.077 540.527 117.957 540.527 113.377V113.32C540.527 109.055 543.503 105.62 547.625 105.62C552.005 105.62 554.524 109.112 554.524 113.434C554.524 113.749 554.524 113.892 554.495 114.15H542.759C543.074 117.356 545.335 119.159 547.969 119.159C550.03 119.159 551.404 118.329 552.635 117.07L554.008 118.3C552.52 119.989 550.745 121.077 547.912 121.077ZM542.759 112.518H552.291C552.062 109.856 550.545 107.48 547.568 107.48C544.963 107.48 543.074 109.656 542.759 112.518ZM557.438 107.194L557.094 106.192C558.554 105.648 559.126 104.933 559.012 103.702H557.981V100.697H560.615V103.273C560.615 105.591 559.613 106.708 557.438 107.194ZM564.826 120.733V105.935H567.03V109.799C568.118 107.337 570.265 105.591 573.07 105.677V108.053H572.898C569.663 108.053 567.03 110.371 567.03 114.837V120.733H564.826ZM581.966 121.077C577.93 121.077 574.581 117.957 574.581 113.377V113.32C574.581 109.055 577.558 105.62 581.68 105.62C586.06 105.62 588.579 109.112 588.579 113.434C588.579 113.749 588.579 113.892 588.55 114.15H576.814C577.129 117.356 579.39 119.159 582.024 119.159C584.085 119.159 585.459 118.329 586.689 117.07L588.063 118.3C586.575 119.989 584.8 121.077 581.966 121.077ZM576.814 112.518H586.346C586.117 109.856 584.6 107.48 581.623 107.48C579.018 107.48 577.129 109.656 576.814 112.518ZM600.446 125.313V105.935H602.65V108.912C603.881 107.166 605.57 105.62 608.318 105.62C611.867 105.62 615.388 108.425 615.388 113.291V113.348C615.388 118.157 611.896 121.048 608.318 121.048C605.57 121.048 603.795 119.588 602.65 117.9V125.313H600.446ZM607.917 119.073C610.78 119.073 613.127 116.955 613.127 113.377V113.32C613.127 109.799 610.751 107.595 607.917 107.595C605.169 107.595 602.564 109.942 602.564 113.291V113.348C602.564 116.783 605.169 119.073 607.917 119.073ZM625.637 121.077C621.601 121.077 618.252 117.957 618.252 113.377V113.32C618.252 109.055 621.229 105.62 625.351 105.62C629.73 105.62 632.249 109.112 632.249 113.434C632.249 113.749 632.249 113.892 632.221 114.15H620.485C620.8 117.356 623.061 119.159 625.694 119.159C627.755 119.159 629.129 118.329 630.36 117.07L631.734 118.3C630.246 119.989 628.471 121.077 625.637 121.077ZM620.485 112.518H630.017C629.788 109.856 628.271 107.48 625.294 107.48C622.689 107.48 620.8 109.656 620.485 112.518ZM642.577 121.077C638.14 121.077 634.906 117.585 634.906 113.406V113.348C634.906 109.141 638.14 105.62 642.634 105.62C647.1 105.62 650.334 109.112 650.334 113.291V113.348C650.334 117.556 647.042 121.077 642.577 121.077ZM642.634 119.102C645.84 119.102 648.073 116.497 648.073 113.406V113.348C648.073 110.171 645.697 107.566 642.577 107.566C639.371 107.566 637.167 110.171 637.167 113.291V113.348C637.167 116.526 639.514 119.102 642.634 119.102ZM654.04 125.313V105.935H656.244V108.912C657.475 107.166 659.164 105.62 661.912 105.62C665.461 105.62 668.982 108.425 668.982 113.291V113.348C668.982 118.157 665.49 121.048 661.912 121.048C659.164 121.048 657.389 119.588 656.244 117.9V125.313H654.04ZM661.511 119.073C664.374 119.073 666.721 116.955 666.721 113.377V113.32C666.721 109.799 664.345 107.595 661.511 107.595C658.763 107.595 656.159 109.942 656.159 113.291V113.348C656.159 116.783 658.763 119.073 661.511 119.073ZM672.963 120.733V99.8378H675.167V120.733H672.963ZM686.465 121.077C682.429 121.077 679.08 117.957 679.08 113.377V113.32C679.08 109.055 682.057 105.62 686.178 105.62C690.558 105.62 693.077 109.112 693.077 113.434C693.077 113.749 693.077 113.892 693.048 114.15H681.312C681.627 117.356 683.888 119.159 686.522 119.159C688.583 119.159 689.957 118.329 691.188 117.07L692.562 118.3C691.073 119.989 689.298 121.077 686.465 121.077ZM681.312 112.518H690.844C690.615 109.856 689.098 107.48 686.121 107.48C683.516 107.48 681.627 109.656 681.312 112.518ZM709.896 120.991C707.492 120.991 705.717 119.817 705.717 116.812V107.881H703.656V105.935H705.717V101.469H707.921V105.935H712.616V107.881H707.921V116.526C707.921 118.358 708.923 118.987 710.412 118.987C711.184 118.987 711.786 118.844 712.558 118.472V120.361C711.786 120.791 710.956 120.991 709.896 120.991ZM722.567 121.077C718.13 121.077 714.896 117.585 714.896 113.406V113.348C714.896 109.141 718.13 105.62 722.624 105.62C727.089 105.62 730.324 109.112 730.324 113.291V113.348C730.324 117.556 727.032 121.077 722.567 121.077ZM722.624 119.102C725.83 119.102 728.063 116.497 728.063 113.406V113.348C728.063 110.171 725.687 107.566 722.567 107.566C719.361 107.566 717.157 110.171 717.157 113.291V113.348C717.157 116.526 719.504 119.102 722.624 119.102ZM740.786 121.077C736.349 121.077 733.114 117.585 733.114 113.406V113.348C733.114 109.141 736.349 105.62 740.843 105.62C745.308 105.62 748.543 109.112 748.543 113.291V113.348C748.543 117.556 745.251 121.077 740.786 121.077ZM740.843 119.102C744.049 119.102 746.281 116.497 746.281 113.406V113.348C746.281 110.171 743.906 107.566 740.786 107.566C737.58 107.566 735.376 110.171 735.376 113.291V113.348C735.376 116.526 737.723 119.102 740.843 119.102ZM751.404 120.733V117.728H754.037V120.733H751.404Z" fill="#F8EBE5"/>
<path d="M26.5356 549.873L19.3796 529.693H21.8413L27.5661 546.38L33.0619 529.635H34.9225L40.4183 546.38L46.1432 529.693H48.519L41.3629 549.873H39.4451L33.9493 533.614L28.4248 549.873H26.5356ZM56.5621 550.073C52.5261 550.073 49.1771 546.953 49.1771 542.373V542.316C49.1771 538.051 52.154 534.616 56.2759 534.616C60.6554 534.616 63.1743 538.108 63.1743 542.43C63.1743 542.745 63.1743 542.888 63.1457 543.146H51.4098C51.7247 546.352 53.986 548.155 56.6194 548.155C58.6803 548.155 60.0543 547.325 61.2851 546.066L62.6591 547.296C61.1706 548.985 59.3959 550.073 56.5621 550.073ZM51.4098 541.514H60.9416C60.7126 538.852 59.1956 536.477 56.2186 536.477C53.6138 536.477 51.7247 538.652 51.4098 541.514ZM81.7113 550.073C77.3605 550.073 74.1259 546.552 74.1259 542.402V542.344C74.1259 538.137 77.3605 534.616 81.7113 534.616C84.5165 534.616 86.234 535.761 87.6365 537.249L86.1767 538.795C85.0031 537.564 83.715 536.562 81.6827 536.562C78.6772 536.562 76.3873 539.081 76.3873 542.287V542.344C76.3873 545.55 78.7344 548.098 81.8258 548.098C83.7437 548.098 85.1749 547.153 86.3485 545.894L87.751 547.211C86.2626 548.899 84.4879 550.073 81.7113 550.073ZM95.5164 550.044C92.7685 550.044 89.992 548.499 89.992 545.436V545.379C89.992 542.287 92.5682 540.598 96.3179 540.598C98.2357 540.598 99.5238 540.856 100.869 541.228V540.713C100.869 538.051 99.2376 536.677 96.461 536.677C94.715 536.677 93.341 537.106 91.9671 537.765L91.3087 535.961C92.9403 535.188 94.5146 534.73 96.69 534.73C98.7796 534.73 100.383 535.274 101.47 536.362C102.472 537.364 102.987 538.824 102.987 540.684V549.729H100.869V547.497C99.8387 548.842 98.1499 550.044 95.5164 550.044ZM95.9458 548.298C98.6937 548.298 100.898 546.638 100.898 544.291V542.86C99.7814 542.545 98.3789 542.23 96.5469 542.23C93.7704 542.23 92.2247 543.432 92.2247 545.293V545.35C92.2247 547.211 93.9707 548.298 95.9458 548.298ZM107.398 549.729V534.931H109.602V538.795C110.69 536.333 112.837 534.587 115.642 534.673V537.049H115.47C112.236 537.049 109.602 539.368 109.602 543.833V549.729H107.398ZM124.539 550.073C120.503 550.073 117.154 546.953 117.154 542.373V542.316C117.154 538.051 120.131 534.616 124.253 534.616C128.632 534.616 131.151 538.108 131.151 542.43C131.151 542.745 131.151 542.888 131.122 543.146H119.387C119.701 546.352 121.963 548.155 124.596 548.155C126.657 548.155 128.031 547.325 129.262 546.066L130.636 547.296C129.147 548.985 127.373 550.073 124.539 550.073ZM119.387 541.514H128.918C128.689 538.852 127.172 536.477 124.195 536.477C121.591 536.477 119.701 538.652 119.387 541.514ZM149.23 550.044C145.681 550.044 142.16 547.239 142.16 542.373V542.316C142.16 537.507 145.681 534.616 149.23 534.616C151.978 534.616 153.753 536.076 154.898 537.765V528.834H157.102V549.729H154.898V546.753C153.667 548.527 151.978 550.044 149.23 550.044ZM149.631 548.069C152.379 548.069 154.984 545.751 154.984 542.344V542.287C154.984 538.881 152.379 536.591 149.631 536.591C146.768 536.591 144.421 538.709 144.421 542.287V542.344C144.421 545.865 146.797 548.069 149.631 548.069ZM168.21 550.073C164.174 550.073 160.825 546.953 160.825 542.373V542.316C160.825 538.051 163.802 534.616 167.923 534.616C172.303 534.616 174.822 538.108 174.822 542.43C174.822 542.745 174.822 542.888 174.793 543.146H163.057C163.372 546.352 165.633 548.155 168.267 548.155C170.328 548.155 171.702 547.325 172.933 546.066L174.307 547.296C172.818 548.985 171.043 550.073 168.21 550.073ZM163.057 541.514H172.589C172.36 538.852 170.843 536.477 167.866 536.477C165.261 536.477 163.372 538.652 163.057 541.514ZM184.863 550.073C180.827 550.073 177.478 546.953 177.478 542.373V542.316C177.478 538.051 180.455 534.616 184.577 534.616C188.956 534.616 191.475 538.108 191.475 542.43C191.475 542.745 191.475 542.888 191.447 543.146H179.711C180.026 546.352 182.287 548.155 184.92 548.155C186.981 548.155 188.355 547.325 189.586 546.066L190.96 547.296C189.472 548.985 187.697 550.073 184.863 550.073ZM179.711 541.514H189.243C189.014 538.852 187.497 536.477 184.52 536.477C181.915 536.477 180.026 538.652 179.711 541.514ZM195.047 554.309V534.931H197.252V537.908C198.482 536.162 200.171 534.616 202.919 534.616C206.469 534.616 209.989 537.421 209.989 542.287V542.344C209.989 547.153 206.497 550.044 202.919 550.044C200.171 550.044 198.396 548.585 197.252 546.896V554.309H195.047ZM202.518 548.069C205.381 548.069 207.728 545.951 207.728 542.373V542.316C207.728 538.795 205.352 536.591 202.518 536.591C199.77 536.591 197.166 538.938 197.166 542.287V542.344C197.166 545.779 199.77 548.069 202.518 548.069ZM213.97 549.729V528.834H216.174V549.729H213.97ZM227.329 547.268L232.08 534.931H234.427L228.216 550.216C226.956 553.279 225.497 554.395 223.293 554.395C222.062 554.395 221.146 554.138 220.144 553.651L220.888 551.905C221.604 552.277 222.262 552.449 223.207 552.449C224.552 552.449 225.353 551.762 226.241 549.672L219.514 534.931H221.947L227.329 547.268ZM236.608 542.23V540.026H258.591V542.23H236.608ZM267.592 549.987C265.187 549.987 263.412 548.814 263.412 545.808V536.877H261.351V534.931H263.412V530.465H265.616V534.931H270.311V536.877H265.616V545.522C265.616 547.354 266.618 547.983 268.107 547.983C268.88 547.983 269.481 547.84 270.254 547.468V549.357C269.481 549.787 268.651 549.987 267.592 549.987ZM273.926 549.729V528.834H276.13V537.507C277.132 535.904 278.649 534.616 281.196 534.616C284.746 534.616 286.864 537.02 286.864 540.541V549.729H284.66V541.085C284.66 538.337 283.2 536.62 280.567 536.62C278.019 536.62 276.13 538.48 276.13 541.257V549.729H273.926ZM295.686 550.044C292.938 550.044 290.162 548.499 290.162 545.436V545.379C290.162 542.287 292.738 540.598 296.488 540.598C298.406 540.598 299.694 540.856 301.039 541.228V540.713C301.039 538.051 299.407 536.677 296.631 536.677C294.885 536.677 293.511 537.106 292.137 537.765L291.479 535.961C293.11 535.188 294.685 534.73 296.86 534.73C298.95 534.73 300.552 535.274 301.64 536.362C302.642 537.364 303.157 538.824 303.157 540.684V549.729H301.039V547.497C300.009 548.842 298.32 550.044 295.686 550.044ZM296.116 548.298C298.864 548.298 301.068 546.638 301.068 544.291V542.86C299.951 542.545 298.549 542.23 296.717 542.23C293.94 542.23 292.395 543.432 292.395 545.293V545.35C292.395 547.211 294.141 548.298 296.116 548.298ZM312.38 549.987C309.976 549.987 308.201 548.814 308.201 545.808V536.877H306.14V534.931H308.201V530.465H310.405V534.931H315.1V536.877H310.405V545.522C310.405 547.354 311.407 547.983 312.896 547.983C313.669 547.983 314.27 547.84 315.043 547.468V549.357C314.27 549.787 313.44 549.987 312.38 549.987ZM318.14 536.19L317.797 535.188C319.257 534.645 319.829 533.929 319.715 532.698H318.684V529.693H321.318V532.269C321.318 534.587 320.316 535.704 318.14 536.19ZM329.669 550.016C327.522 550.016 325.232 549.186 323.543 547.84L324.66 546.266C326.263 547.497 328.037 548.155 329.783 548.155C331.587 548.155 332.846 547.268 332.846 545.808V545.751C332.846 544.291 331.1 543.69 329.154 543.146C326.864 542.459 324.259 541.715 324.259 538.967V538.91C324.259 536.362 326.377 534.673 329.297 534.673C331.129 534.673 333.104 535.303 334.621 536.305L333.619 537.965C332.245 537.078 330.699 536.534 329.239 536.534C327.493 536.534 326.377 537.45 326.377 538.681V538.738C326.377 540.14 328.209 540.684 330.184 541.285C332.474 541.972 334.936 542.86 334.936 545.522V545.579C334.936 548.384 332.617 550.016 329.669 550.016ZM347.039 549.729V534.931H349.243V537.507C350.245 535.904 351.762 534.616 354.31 534.616C357.859 534.616 359.977 537.02 359.977 540.541V549.729H357.773V541.085C357.773 538.337 356.314 536.62 353.68 536.62C351.133 536.62 349.243 538.48 349.243 541.257V549.729H347.039ZM371.147 550.073C366.71 550.073 363.476 546.581 363.476 542.402V542.344C363.476 538.137 366.71 534.616 371.204 534.616C375.67 534.616 378.904 538.108 378.904 542.287V542.344C378.904 546.552 375.612 550.073 371.147 550.073ZM371.204 548.098C374.41 548.098 376.643 545.493 376.643 542.402V542.344C376.643 539.167 374.267 536.562 371.147 536.562C367.941 536.562 365.737 539.167 365.737 542.287V542.344C365.737 545.522 368.084 548.098 371.204 548.098ZM387.562 549.987C385.158 549.987 383.383 548.814 383.383 545.808V536.877H381.322V534.931H383.383V530.465H385.587V534.931H390.282V536.877H385.587V545.522C385.587 547.354 386.589 547.983 388.078 547.983C388.851 547.983 389.452 547.84 390.224 547.468V549.357C389.452 549.787 388.622 549.987 387.562 549.987ZM54.2356 590.044C51.4877 590.044 48.7112 588.499 48.7112 585.436V585.379C48.7112 582.287 51.2874 580.598 55.0371 580.598C56.9549 580.598 58.243 580.856 59.5883 581.228V580.713C59.5883 578.051 57.9568 576.677 55.1802 576.677C53.4342 576.677 52.0602 577.106 50.6862 577.765L50.0279 575.961C51.6595 575.188 53.2338 574.73 55.4092 574.73C57.4988 574.73 59.1017 575.274 60.1895 576.362C61.1913 577.364 61.7065 578.824 61.7065 580.684V589.729H59.5883V587.497C58.5579 588.842 56.8691 590.044 54.2356 590.044ZM54.665 588.298C57.4129 588.298 59.617 586.638 59.617 584.291V582.86C58.5006 582.545 57.098 582.23 55.2661 582.23C52.4896 582.23 50.9439 583.432 50.9439 585.293V585.35C50.9439 587.211 52.6899 588.298 54.665 588.298ZM75.2431 589.729V576.877H73.2108V574.959H75.2431V573.671C75.2431 571.983 75.6724 570.723 76.5312 569.864C77.304 569.091 78.3631 568.719 79.7084 568.719C80.7389 568.719 81.4259 568.834 82.1415 569.091V571.009C81.34 570.78 80.7675 570.637 79.9947 570.637C78.2772 570.637 77.4185 571.696 77.4185 573.786V574.988H82.1129V576.877H77.4471V589.729H75.2431ZM85.147 589.729V568.834H87.3225V589.729H85.147ZM96.5926 590.044C93.8447 590.044 91.0682 588.499 91.0682 585.436V585.379C91.0682 582.287 93.6444 580.598 97.3941 580.598C99.3119 580.598 100.6 580.856 101.945 581.228V580.713C101.945 578.051 100.314 576.677 97.5372 576.677C95.7912 576.677 94.4172 577.106 93.0433 577.765L92.3849 575.961C94.0165 575.188 95.5908 574.73 97.7662 574.73C99.8558 574.73 101.459 575.274 102.546 576.362C103.548 577.364 104.064 578.824 104.064 580.684V589.729H101.945V587.497C100.915 588.842 99.2261 590.044 96.5926 590.044ZM97.022 588.298C99.7699 588.298 101.974 586.638 101.974 584.291V582.86C100.858 582.545 99.4551 582.23 97.6231 582.23C94.8466 582.23 93.3009 583.432 93.3009 585.293V585.35C93.3009 587.211 95.0469 588.298 97.022 588.298ZM111.837 589.844L106.656 574.931H109.003L112.896 586.81L116.875 574.874H118.707L122.714 586.81L126.607 574.931H128.897L123.687 589.844H121.77L117.791 578.165L113.783 589.844H111.837ZM129.47 593.222L129.126 592.22C130.586 591.676 131.159 590.96 131.044 589.729H130.014V586.724H132.647V589.3C132.647 591.619 131.645 592.735 129.47 593.222ZM145.354 571.696V569.263H147.873V571.696H145.354ZM145.497 589.729V574.931H147.701V589.729H145.497ZM157.482 589.987C155.078 589.987 153.303 588.814 153.303 585.808V576.877H151.242V574.931H153.303V570.465H155.507V574.931H160.201V576.877H155.507V585.522C155.507 587.354 156.509 587.983 157.997 587.983C158.77 587.983 159.371 587.84 160.144 587.468V589.357C159.371 589.787 158.541 589.987 157.482 589.987ZM163.242 576.19L162.898 575.188C164.358 574.645 164.931 573.929 164.816 572.698H163.786V569.693H166.419V572.269C166.419 574.587 165.417 575.704 163.242 576.19ZM174.77 590.016C172.623 590.016 170.334 589.186 168.645 587.84L169.761 586.266C171.364 587.497 173.139 588.155 174.885 588.155C176.688 588.155 177.948 587.268 177.948 585.808V585.751C177.948 584.291 176.201 583.69 174.255 583.146C171.965 582.459 169.36 581.715 169.36 578.967V578.91C169.36 576.362 171.479 574.673 174.398 574.673C176.23 574.673 178.205 575.303 179.722 576.305L178.72 577.965C177.346 577.078 175.801 576.534 174.341 576.534C172.595 576.534 171.479 577.45 171.479 578.681V578.738C171.479 580.14 173.31 580.684 175.286 581.285C177.575 581.972 180.037 582.86 180.037 585.522V585.579C180.037 588.384 177.719 590.016 174.77 590.016ZM198.896 590.073C194.459 590.073 191.225 586.581 191.225 582.402V582.344C191.225 578.137 194.459 574.616 198.953 574.616C203.419 574.616 206.653 578.108 206.653 582.287V582.344C206.653 586.552 203.362 590.073 198.896 590.073ZM198.953 588.098C202.159 588.098 204.392 585.493 204.392 582.402V582.344C204.392 579.167 202.016 576.562 198.896 576.562C195.69 576.562 193.486 579.167 193.486 582.287V582.344C193.486 585.522 195.833 588.098 198.953 588.098ZM215.798 590.044C212.249 590.044 210.131 587.64 210.131 584.119V574.931H212.335V583.575C212.335 586.323 213.795 588.041 216.428 588.041C218.947 588.041 220.865 586.18 220.865 583.404V574.931H223.04V589.729H220.865V587.153C219.863 588.756 218.346 590.044 215.798 590.044ZM227.712 589.729V574.931H229.916V578.795C231.004 576.333 233.151 574.587 235.956 574.673V577.049H235.784C232.549 577.049 229.916 579.368 229.916 583.833V589.729H227.712ZM252.216 590.016C250.07 590.016 247.78 589.186 246.091 587.84L247.207 586.266C248.81 587.497 250.585 588.155 252.331 588.155C254.134 588.155 255.394 587.268 255.394 585.808V585.751C255.394 584.291 253.648 583.69 251.701 583.146C249.411 582.459 246.807 581.715 246.807 578.967V578.91C246.807 576.362 248.925 574.673 251.844 574.673C253.676 574.673 255.651 575.303 257.168 576.305L256.167 577.965C254.793 577.078 253.247 576.534 251.787 576.534C250.041 576.534 248.925 577.45 248.925 578.681V578.738C248.925 580.14 250.757 580.684 252.732 581.285C255.022 581.972 257.483 582.86 257.483 585.522V585.579C257.483 588.384 255.165 590.016 252.216 590.016ZM265.964 589.987C263.56 589.987 261.785 588.814 261.785 585.808V576.877H259.724V574.931H261.785V570.465H263.989V574.931H268.683V576.877H263.989V585.522C263.989 587.354 264.991 587.983 266.479 587.983C267.252 587.983 267.853 587.84 268.626 587.468V589.357C267.853 589.787 267.023 589.987 265.964 589.987ZM272.299 589.729V574.931H274.503V578.795C275.59 576.333 277.737 574.587 280.542 574.673V577.049H280.371C277.136 577.049 274.503 579.368 274.503 583.833V589.729H272.299ZM289.439 590.073C285.403 590.073 282.054 586.953 282.054 582.373V582.316C282.054 578.051 285.031 574.616 289.153 574.616C293.532 574.616 296.051 578.108 296.051 582.43C296.051 582.745 296.051 582.888 296.023 583.146H284.287C284.602 586.352 286.863 588.155 289.496 588.155C291.557 588.155 292.931 587.325 294.162 586.066L295.536 587.296C294.048 588.985 292.273 590.073 289.439 590.073ZM284.287 581.514H293.819C293.59 578.852 292.072 576.477 289.096 576.477C286.491 576.477 284.602 578.652 284.287 581.514ZM299.623 589.729V574.931H301.827V577.507C302.829 575.904 304.346 574.616 306.894 574.616C310.443 574.616 312.561 577.02 312.561 580.541V589.729H310.357V581.085C310.357 578.337 308.898 576.62 306.264 576.62C303.717 576.62 301.827 578.48 301.827 581.257V589.729H299.623ZM323.531 594.367C321.04 594.367 318.779 593.68 316.804 592.306L317.806 590.588C319.523 591.819 321.355 592.477 323.502 592.477C326.794 592.477 328.883 590.674 328.883 587.211V585.464C327.595 587.182 325.792 588.585 323.073 588.585C319.523 588.585 316.117 585.894 316.117 581.657V581.6C316.117 577.278 319.523 574.616 323.073 574.616C325.849 574.616 327.624 575.99 328.855 577.593V574.931H331.059V587.153C331.059 589.443 330.4 591.161 329.17 592.392C327.824 593.737 325.906 594.367 323.531 594.367ZM323.502 586.638C326.307 586.638 328.941 584.606 328.941 581.629V581.572C328.941 578.537 326.307 576.562 323.502 576.562C320.668 576.562 318.378 578.509 318.378 581.543V581.6C318.378 584.577 320.754 586.638 323.502 586.638ZM340.65 589.987C338.245 589.987 336.47 588.814 336.47 585.808V576.877H334.41V574.931H336.47V570.465H338.675V574.931H343.369V576.877H338.675V585.522C338.675 587.354 339.676 587.983 341.165 587.983C341.938 587.983 342.539 587.84 343.312 587.468V589.357C342.539 589.787 341.709 589.987 340.65 589.987ZM346.984 589.729V568.834H349.188V577.507C350.19 575.904 351.707 574.616 354.255 574.616C357.804 574.616 359.922 577.02 359.922 580.541V589.729H357.718V581.085C357.718 578.337 356.258 576.62 353.625 576.62C351.077 576.62 349.188 578.48 349.188 581.257V589.729H346.984Z" fill="#F8EBE5"/>
<defs>
<clipPath id="clip0_419_2">
<rect width="329.178" height="329.178" fill="white" transform="translate(461.281 390.922)"/>
</clipPath>
<clipPath id="clip1_419_2">
<rect width="329.178" height="329.178" fill="white" transform="translate(461.281 390.923)"/>
</clipPath>
<clipPath id="clip2_419_2">
<rect width="329.178" height="329.178" fill="white" transform="translate(1240.74 390.922)"/>
</clipPath>
<clipPath id="clip3_419_2">
<rect width="329.178" height="329.178" fill="white" transform="translate(1240.74 390.923)"/>
</clipPath>
<clipPath id="clip4_419_2">
<rect width="329.178" height="329.178" fill="white" transform="translate(849.906 10)"/>
</clipPath>
<clipPath id="clip5_419_2">
<rect width="329.178" height="329.178" fill="white" transform="translate(849.906 10)"/>
</clipPath>
<clipPath id="clip6_419_2">
<rect width="329.178" height="329.178" fill="white" transform="translate(849.906 10)"/>
</clipPath>
<clipPath id="clip7_419_2">
<rect width="329.178" height="329.178" fill="white" transform="translate(849.906 741.017)"/>
</clipPath>
<clipPath id="clip8_419_2">
<rect width="329.178" height="329.178" fill="white" transform="translate(849.906 741.017)"/>
</clipPath>
<clipPath id="clip9_419_2">
<rect width="329.178" height="329.178" fill="white" transform="translate(849.906 741.017)"/>
</clipPath>
</defs>
</svg>
