<svg width="1735" height="970" viewBox="0 0 1735 970" fill="none" xmlns="http://www.w3.org/2000/svg">
<g clip-path="url(#clip0_363_111)">
<g clip-path="url(#clip1_363_111)">
<path d="M562.064 649.113C645.157 649.113 712.517 581.753 712.517 498.661C712.517 415.568 645.157 348.208 562.064 348.208C478.971 348.208 411.611 415.568 411.611 498.661C411.611 581.753 478.971 649.113 562.064 649.113Z" fill="#554D65"/>
<path d="M481.147 504.424L482.797 505.028C482.193 507.242 481.026 510.422 480.382 511.59C479.134 511.831 475.873 512.636 472.733 512.636C462.388 512.636 457.678 505.793 457.678 499.231C457.678 490.737 464.199 485.222 473.659 485.222C477.121 485.222 479.979 485.947 481.227 486.189C481.509 488.201 481.871 490.858 482.113 492.951L480.462 493.274C479.657 490.375 478.53 488.765 476.598 487.92C475.511 487.437 474.102 487.195 472.492 487.195C465.85 487.195 462.629 492.267 462.629 498.346C462.629 505.914 466.936 510.624 473.015 510.624C477.081 510.624 478.973 508.691 481.147 504.424ZM485.756 503.096C485.756 496.856 490.668 493.274 495.337 493.274C500.852 493.274 504.596 497.46 504.596 502.572C504.596 509.335 499.524 512.475 495.257 512.475C489.299 512.475 485.756 507.725 485.756 503.096ZM500.168 503.539C500.168 498.426 498.155 495.045 494.814 495.045C492.479 495.045 490.185 497.178 490.185 502.009C490.185 507.242 492.519 510.704 495.699 510.704C497.994 510.704 500.168 508.933 500.168 503.539ZM539.328 511.992H530.15V510.462C532.364 510.221 532.807 510.06 532.807 507.484V500.6C532.807 497.621 531.438 496.132 529.345 496.132C527.896 496.132 526.487 496.896 524.957 498.104C524.997 498.587 525.078 499.151 525.078 499.835V507.685C525.078 510.02 525.48 510.221 527.694 510.462V511.992H518.436V510.462C520.851 510.221 521.254 510.1 521.254 507.564V500.56C521.254 497.581 519.965 496.132 517.832 496.132C516.383 496.132 514.934 496.977 513.525 498.104V507.564C513.525 510.06 513.847 510.221 515.859 510.462V511.992H506.802V510.462C509.499 510.181 509.7 510.02 509.7 507.564V499.151C509.7 496.655 509.499 496.494 507.245 496.172V494.763C509.338 494.481 511.512 493.958 513.525 493.193V496.413C514.41 495.769 515.256 495.125 516.584 494.36C517.55 493.757 518.516 493.274 519.885 493.274C521.978 493.274 523.669 494.481 524.555 496.574C525.682 495.689 526.728 495.045 527.775 494.36C528.701 493.797 529.868 493.274 531.156 493.274C534.498 493.274 536.631 495.608 536.631 499.755V507.564C536.631 510.02 536.953 510.221 539.328 510.462V511.992ZM540.856 496.091V494.642C542.788 494.401 545.566 493.636 547.458 492.871V496.051C548.223 495.608 550.397 494.36 551.202 493.958C551.926 493.636 552.812 493.274 553.536 493.274C558.045 493.274 560.903 497.38 560.903 501.445C560.903 507.645 555.912 511.59 550.517 512.475C549.269 512.435 548.062 512.073 547.458 511.791V516.38C547.458 518.876 547.699 519.158 551 519.48V521.009H540.574V519.48C543.312 519.198 543.593 518.916 543.593 516.501V498.869C543.593 496.494 543.392 496.333 540.856 496.091ZM547.458 497.742V508.651C548.344 509.537 549.914 510.261 551.282 510.261C554.623 510.261 556.797 507.403 556.797 502.975C556.797 498.466 554.261 496.132 551.524 496.132C550.195 496.132 548.464 496.937 547.458 497.742ZM581.123 510.342L577.218 512.475C576.453 512.475 575.648 512.113 575.165 511.71C574.602 511.147 574.32 510.503 574.119 509.859C572.388 511.026 570.294 512.475 568.966 512.475C565.947 512.475 563.692 509.979 563.692 507.162C563.692 505.109 564.82 503.74 567.195 502.935C569.851 502.049 573.152 500.962 573.957 500.278V499.392C573.957 496.735 572.549 495.367 570.576 495.367C569.69 495.367 569.046 495.729 568.604 496.212C568.08 496.776 567.879 497.702 567.476 498.829C567.235 499.594 566.752 499.916 566.067 499.916C565.222 499.916 564.014 499.03 564.014 497.943C564.014 497.259 564.578 496.735 565.423 496.132C566.631 495.327 569.288 493.837 571.743 493.274C573.072 493.274 574.481 493.676 575.527 494.481C577.097 495.729 577.661 497.38 577.661 499.392V506.88C577.661 508.812 578.345 509.335 579.07 509.335C579.553 509.335 580.117 509.134 580.64 508.893L581.123 510.342ZM573.957 508.208V502.049C572.991 502.532 571.26 503.257 570.174 503.7C568.805 504.303 567.839 505.068 567.839 506.598C567.839 508.772 569.489 509.617 570.616 509.617C571.663 509.617 572.871 509.174 573.957 508.208ZM594.817 498.627L593.288 498.99C592.402 496.333 591.114 494.964 589.02 494.964C587.491 494.964 586.364 495.89 586.364 497.46C586.364 498.99 587.491 499.795 590.027 500.801C593.569 502.291 595.542 503.659 595.542 506.598C595.542 510.382 591.999 512.475 588.336 512.475C586.203 512.475 584.109 511.791 583.224 511.308C582.982 510.261 582.499 507.363 582.419 506.276L583.989 505.954C584.874 508.772 586.484 510.744 589.061 510.744C590.711 510.744 591.919 509.738 591.919 508.168C591.919 506.477 590.832 505.592 588.537 504.585C585.478 503.257 583.022 501.928 583.022 498.788C583.022 495.729 585.518 493.274 589.785 493.274C591.677 493.274 593.167 493.676 594.052 493.837C594.294 495.125 594.656 497.742 594.817 498.627ZM610.521 498.627L608.991 498.99C608.106 496.333 606.818 494.964 604.724 494.964C603.195 494.964 602.068 495.89 602.068 497.46C602.068 498.99 603.195 499.795 605.731 500.801C609.273 502.291 611.246 503.659 611.246 506.598C611.246 510.382 607.703 512.475 604.04 512.475C601.907 512.475 599.813 511.791 598.928 511.308C598.686 510.261 598.203 507.363 598.123 506.276L599.693 505.954C600.578 508.772 602.188 510.744 604.765 510.744C606.415 510.744 607.623 509.738 607.623 508.168C607.623 506.477 606.536 505.592 604.241 504.585C601.182 503.257 598.726 501.928 598.726 498.788C598.726 495.729 601.222 493.274 605.489 493.274C607.381 493.274 608.871 493.676 609.756 493.837C609.998 495.125 610.36 497.742 610.521 498.627ZM620.632 487.598C620.632 488.926 619.545 490.093 618.095 490.093C616.767 490.093 615.6 488.926 615.6 487.598C615.6 486.148 616.767 485.021 618.136 485.021C619.545 485.021 620.632 486.148 620.632 487.598ZM623.248 511.992H613.587V510.462C616.203 510.221 616.485 510.02 616.485 507.242V499.272C616.485 496.695 616.364 496.534 613.869 496.212V494.803C616.405 494.441 618.538 493.918 620.35 493.274V507.242C620.35 509.979 620.591 510.221 623.248 510.462V511.992ZM625.089 503.096C625.089 496.856 630 493.274 634.67 493.274C640.185 493.274 643.929 497.46 643.929 502.572C643.929 509.335 638.856 512.475 634.589 512.475C628.632 512.475 625.089 507.725 625.089 503.096ZM639.501 503.539C639.501 498.426 637.488 495.045 634.147 495.045C631.812 495.045 629.517 497.178 629.517 502.009C629.517 507.242 631.852 510.704 635.032 510.704C637.327 510.704 639.501 508.933 639.501 503.539ZM667.349 511.992H658.372V510.462C660.546 510.221 660.788 509.939 660.788 507.443V500.519C660.788 497.661 659.54 496.132 657.245 496.132C655.675 496.132 654.226 496.937 652.898 498.064V507.524C652.898 510.14 653.099 510.221 655.474 510.462V511.992H646.175V510.462C648.872 510.14 649.033 509.979 649.033 507.524V499.231C649.033 496.615 648.711 496.494 646.537 496.172V494.763C648.832 494.441 651.006 493.918 652.898 493.193V496.333C653.663 495.769 654.629 495.125 655.635 494.481C656.802 493.757 657.889 493.274 659.097 493.274C662.398 493.274 664.652 495.689 664.652 499.755V507.524C664.652 510.02 664.894 510.181 667.349 510.462V511.992Z" fill="#F8EBE5"/>
</g>
</g>
<g clip-path="url(#clip2_363_111)">
<g clip-path="url(#clip3_363_111)">
<path d="M1274.58 649.113C1357.67 649.113 1425.03 581.753 1425.03 498.661C1425.03 415.568 1357.67 348.208 1274.58 348.208C1191.49 348.208 1124.13 415.568 1124.13 498.661C1124.13 581.753 1191.49 649.113 1274.58 649.113Z" fill="#554D65"/>
<path d="M1224.23 492.509L1222.58 492.67C1222.18 490.979 1221.66 489.691 1221.13 488.966C1220.41 488 1219.93 487.799 1217.35 487.799H1214.09V506.678C1214.09 509.818 1214.45 510.181 1218.48 510.422V511.992H1205.63V510.422C1209.58 510.181 1209.9 509.899 1209.9 506.678V487.799H1206.64C1204.19 487.799 1203.42 488.121 1202.82 489.047C1202.29 489.892 1201.93 490.898 1201.41 492.67H1199.76C1199.96 489.852 1200.2 487.316 1200.28 484.86H1201.49C1202.17 485.826 1202.54 485.826 1203.78 485.826H1220.45C1221.62 485.826 1221.94 485.625 1222.58 484.86H1223.79C1223.83 486.792 1224.03 489.973 1224.23 492.509ZM1223.33 503.096C1223.33 496.856 1228.25 493.274 1232.91 493.274C1238.43 493.274 1242.17 497.46 1242.17 502.572C1242.17 509.335 1237.1 512.475 1232.83 512.475C1226.88 512.475 1223.33 507.725 1223.33 503.096ZM1237.75 503.539C1237.75 498.426 1235.73 495.045 1232.39 495.045C1230.06 495.045 1227.76 497.178 1227.76 502.009C1227.76 507.242 1230.1 510.704 1233.28 510.704C1235.57 510.704 1237.75 508.933 1237.75 503.539ZM1260.32 499.634C1260.32 503.861 1256.61 505.994 1252.67 505.994C1251.86 505.994 1251.06 505.873 1250.29 505.672C1249.57 506.316 1249.37 506.96 1249.37 507.363C1249.37 508.007 1250.05 508.852 1251.9 508.852C1253.51 508.852 1255.33 508.812 1256.69 508.812C1259.43 508.812 1262.89 509.738 1262.89 513.683C1262.89 518.232 1257.62 521.774 1252.06 521.774C1247.15 521.774 1244.46 519.037 1244.46 516.702C1244.46 515.655 1244.9 514.971 1245.62 514.327C1246.55 513.522 1247.88 512.556 1248.64 511.992C1247.19 511.549 1246.27 510.744 1245.66 509.899C1245.22 509.255 1245.1 508.369 1245.1 507.967C1246.51 507.323 1248 506.075 1248.76 505.109C1246.79 504.142 1245.34 502.411 1245.34 499.875C1245.34 495.327 1249.69 493.233 1253.03 493.233C1254.52 493.233 1256.01 493.596 1257.38 494.24C1259.43 494.24 1261.81 493.958 1263.09 493.676L1263.38 494.079C1263.05 494.723 1262.25 496.091 1261.65 496.454C1261.36 496.454 1259.43 496.252 1259.19 496.252C1259.83 497.058 1260.32 498.185 1260.32 499.634ZM1256.37 499.755C1256.37 496.937 1254.92 494.884 1252.71 494.884C1251.02 494.884 1249.41 496.413 1249.41 499.433C1249.41 502.291 1250.9 504.344 1253.03 504.344C1254.88 504.303 1256.37 502.814 1256.37 499.755ZM1257.74 512.636C1256.65 512.234 1255.45 512.153 1253.72 512.153C1251.46 512.153 1250.78 512.314 1250.13 512.797C1248.68 513.723 1248.08 514.81 1248.08 515.857C1248.08 517.91 1250.17 519.56 1253.59 519.56C1257.34 519.56 1259.55 517.708 1259.55 515.293C1259.55 513.965 1258.83 513.039 1257.74 512.636ZM1278.96 507.202L1279.76 508.45C1276.94 511.791 1273.88 512.475 1272.35 512.475C1267.16 512.475 1263.94 508.329 1263.94 503.337C1263.94 500.519 1265.07 497.983 1266.68 496.252C1268.53 494.24 1270.74 493.274 1273.08 493.274C1277.1 493.274 1279.92 496.615 1279.92 500.238C1279.88 501.123 1279.8 501.566 1279.08 501.687C1277.71 501.928 1272.48 502.21 1267.81 502.371C1267.93 507.121 1270.99 509.255 1273.84 509.255C1275.61 509.255 1277.43 508.53 1278.96 507.202ZM1275.82 499.352C1275.86 497.299 1274.45 495.125 1272.19 495.125C1270.22 495.125 1268.41 497.017 1268.01 500.318C1270.1 500.278 1272.52 500.278 1274.85 500.197C1275.61 500.157 1275.82 499.996 1275.82 499.352ZM1293.59 510.462L1290.81 511.871C1290 512.314 1289.24 512.475 1288.84 512.475C1286.1 512.475 1284.49 510.905 1284.49 507.524V495.81H1281.63L1281.35 495.246L1282.56 493.757H1284.49V490.214C1284.81 489.852 1287.43 487.839 1287.79 487.517L1288.48 487.638C1288.39 489.208 1288.31 492.146 1288.31 493.757H1292.9C1293.39 494.199 1293.27 495.447 1292.62 495.81H1288.31V505.954C1288.31 509.174 1289.68 509.698 1290.65 509.698C1291.53 509.698 1292.54 509.295 1293.14 509.013L1293.59 510.462ZM1315.56 511.992H1306.43V510.462C1308.68 510.221 1309 510.02 1309 507.524V500.801C1309 497.541 1307.71 496.051 1305.22 496.051C1303.73 496.051 1302.24 496.735 1301.07 498.024V507.524C1301.07 509.979 1301.31 510.221 1303.69 510.462V511.992H1294.31V510.462C1296.77 510.261 1297.21 510.06 1297.21 507.524V488.966C1297.21 486.672 1297.01 486.39 1294.35 486.189V484.699C1296.85 484.458 1299.58 483.894 1301.11 483.371C1301.11 484.739 1301.07 487.074 1301.07 488.845V496.172C1302.6 494.682 1304.82 493.274 1307.07 493.274C1310.53 493.274 1312.87 495.528 1312.87 500.238V507.524C1312.87 510.06 1313.15 510.221 1315.56 510.462V511.992ZM1332.63 507.202L1333.44 508.45C1330.62 511.791 1327.56 512.475 1326.03 512.475C1320.84 512.475 1317.62 508.329 1317.62 503.337C1317.62 500.519 1318.74 497.983 1320.36 496.252C1322.21 494.24 1324.42 493.274 1326.76 493.274C1330.78 493.274 1333.6 496.615 1333.6 500.238C1333.56 501.123 1333.48 501.566 1332.75 501.687C1331.39 501.928 1326.15 502.21 1321.48 502.371C1321.6 507.121 1324.66 509.255 1327.52 509.255C1329.29 509.255 1331.1 508.53 1332.63 507.202ZM1329.49 499.352C1329.53 497.299 1328.12 495.125 1325.87 495.125C1323.9 495.125 1322.09 497.017 1321.68 500.318C1323.78 500.278 1326.19 500.278 1328.53 500.197C1329.29 500.157 1329.49 499.996 1329.49 499.352ZM1345.82 510.462V511.992H1335.68V510.462C1338.29 510.221 1338.53 510.02 1338.53 507.524V499.111C1338.53 496.615 1338.33 496.494 1336.04 496.172V494.763C1338.29 494.441 1340.27 493.958 1342.4 493.193V497.621C1344.09 495.085 1345.9 493.274 1347.67 493.274C1349.28 493.274 1350.29 494.32 1350.29 495.447C1350.29 496.655 1349.48 497.661 1348.64 498.104C1348.16 498.346 1347.83 498.225 1347.51 497.983C1346.87 497.42 1346.3 496.977 1345.54 496.977C1344.65 496.977 1343.16 498.225 1342.4 500.358V507.524C1342.4 510.02 1342.56 510.261 1345.82 510.462Z" fill="#F8EBE5"/>
</g>
</g>
<g clip-path="url(#clip4_363_111)">
<g clip-path="url(#clip5_363_111)">
<g clip-path="url(#clip6_363_111)">
<path d="M917.316 300.905C1000.41 300.905 1067.77 233.545 1067.77 150.453C1067.77 67.3599 1000.41 0 917.316 0C834.223 0 766.863 67.3599 766.863 150.453C766.863 233.545 834.223 300.905 917.316 300.905Z" fill="#554D65"/>
<path d="M861.576 137.619V139.189C858.194 139.431 857.832 139.632 857.832 142.973V158.471C857.832 161.813 858.194 161.933 861.576 162.215V163.785H849.821V162.215C853.323 161.893 853.565 161.692 853.565 158.431V150.984H840.321V158.431C840.321 161.732 840.643 161.933 844.065 162.215V163.785H832.31V162.215C835.732 161.933 836.054 161.772 836.054 158.431V142.973C836.054 139.632 835.692 139.431 832.31 139.189V137.619H844.065V139.189C840.724 139.431 840.321 139.672 840.321 142.973V148.77H853.565V142.973C853.565 139.672 853.162 139.431 849.821 139.189V137.619H861.576ZM883.511 161.33V162.819C881.297 163.141 879.002 163.664 876.587 164.268C876.587 163.423 876.627 162.215 876.627 161.249C874.494 162.9 872.763 164.268 870.388 164.268C867.449 164.268 865.034 162.457 865.034 157.948V150.3C865.034 148.086 864.752 147.884 863.584 147.643L862.417 147.401V145.992C864.51 145.912 867.006 145.63 869.019 145.308C868.858 146.797 868.858 149.092 868.858 151.346V157.022C868.858 160.323 870.669 161.33 872.441 161.33C873.89 161.33 875.258 160.726 876.627 159.478V150.3C876.627 148.045 876.305 147.844 874.896 147.603L873.407 147.401V145.992C875.862 145.912 878.519 145.63 880.451 145.308V158.834C880.451 160.967 880.814 161.249 882.384 161.33H883.511ZM917.655 163.785H908.477V162.255C910.691 162.014 911.134 161.853 911.134 159.277V152.393C911.134 149.414 909.765 147.925 907.672 147.925C906.223 147.925 904.814 148.689 903.284 149.897C903.324 150.38 903.405 150.944 903.405 151.628V159.478C903.405 161.813 903.807 162.014 906.021 162.255V163.785H896.763V162.255C899.178 162.014 899.581 161.893 899.581 159.357V152.353C899.581 149.374 898.292 147.925 896.159 147.925C894.71 147.925 893.26 148.77 891.852 149.897V159.357C891.852 161.853 892.174 162.014 894.186 162.255V163.785H885.129V162.255C887.826 161.974 888.027 161.813 888.027 159.357V150.944C888.027 148.448 887.826 148.287 885.572 147.965V146.556C887.665 146.274 889.839 145.751 891.852 144.986V148.206C892.737 147.562 893.582 146.918 894.911 146.153C895.877 145.55 896.843 145.066 898.212 145.066C900.305 145.066 901.996 146.274 902.881 148.367C904.009 147.482 905.055 146.838 906.102 146.153C907.028 145.59 908.195 145.066 909.483 145.066C912.824 145.066 914.958 147.401 914.958 151.548V159.357C914.958 161.813 915.28 162.014 917.655 162.255V163.785ZM937.102 162.135L933.197 164.268C932.433 164.268 931.627 163.906 931.144 163.503C930.581 162.94 930.299 162.296 930.098 161.652C928.367 162.819 926.273 164.268 924.945 164.268C921.926 164.268 919.672 161.772 919.672 158.955C919.672 156.902 920.799 155.533 923.174 154.728C925.831 153.842 929.132 152.755 929.937 152.071V151.185C929.937 148.528 928.528 147.16 926.555 147.16C925.67 147.16 925.026 147.522 924.583 148.005C924.059 148.569 923.858 149.495 923.456 150.622C923.214 151.387 922.731 151.709 922.047 151.709C921.201 151.709 919.994 150.823 919.994 149.736C919.994 149.052 920.557 148.528 921.403 147.925C922.61 147.119 925.267 145.63 927.723 145.066C929.051 145.066 930.46 145.469 931.507 146.274C933.077 147.522 933.64 149.173 933.64 151.185V158.673C933.64 160.605 934.325 161.128 935.049 161.128C935.532 161.128 936.096 160.927 936.619 160.686L937.102 162.135ZM929.937 160.001V153.842C928.971 154.325 927.24 155.05 926.153 155.493C924.784 156.096 923.818 156.861 923.818 158.391C923.818 160.565 925.468 161.41 926.596 161.41C927.642 161.41 928.85 160.967 929.937 160.001ZM959.451 163.785H950.474V162.255C952.648 162.014 952.89 161.732 952.89 159.236V152.312C952.89 149.454 951.642 147.925 949.347 147.925C947.777 147.925 946.328 148.73 945 149.857V159.317C945 161.933 945.201 162.014 947.576 162.255V163.785H938.277V162.255C940.974 161.933 941.135 161.772 941.135 159.317V151.024C941.135 148.408 940.813 148.287 938.639 147.965V146.556C940.934 146.234 943.108 145.711 945 144.986V148.126C945.765 147.562 946.731 146.918 947.737 146.274C948.904 145.55 949.991 145.066 951.199 145.066C954.5 145.066 956.754 147.482 956.754 151.548V159.317C956.754 161.813 956.996 161.974 959.451 162.255V163.785ZM968.337 139.39C968.337 140.719 967.25 141.886 965.801 141.886C964.472 141.886 963.305 140.719 963.305 139.39C963.305 137.941 964.472 136.814 965.841 136.814C967.25 136.814 968.337 137.941 968.337 139.39ZM970.953 163.785H961.292V162.255C963.909 162.014 964.19 161.813 964.19 159.035V151.065C964.19 148.488 964.07 148.327 961.574 148.005V146.596C964.11 146.234 966.243 145.711 968.055 145.066V159.035C968.055 161.772 968.296 162.014 970.953 162.255V163.785ZM983.985 162.255L981.208 163.664C980.403 164.107 979.638 164.268 979.235 164.268C976.498 164.268 974.888 162.698 974.888 159.317V147.603H972.03L971.748 147.039L972.955 145.55H974.888V142.007C975.21 141.645 977.826 139.632 978.189 139.31L978.873 139.431C978.792 141.001 978.712 143.939 978.712 145.55H983.301C983.784 145.992 983.663 147.24 983.019 147.603H978.712V157.747C978.712 160.967 980.081 161.491 981.047 161.491C981.932 161.491 982.939 161.088 983.543 160.806L983.985 162.255ZM1005.05 145.55V147.039C1002.92 147.321 1002.39 147.683 1001.39 149.937C1000.42 152.151 999.134 155.171 996.557 161.652C993.86 168.213 993.216 170.266 992.572 172.36C992.25 173.326 991.767 173.527 991.123 173.527C989.714 173.527 988.265 172.36 988.265 171.273C988.265 170.588 988.506 170.226 989.271 169.743C990.64 168.857 991.566 168.012 992.129 167.086C992.773 165.878 993.377 164.55 993.538 164.147C993.619 163.705 993.699 163.383 993.458 162.739C991.727 158.109 989.11 152.312 988.023 149.817C987.057 147.643 986.695 147.321 984.44 147.039V145.55H993.498V147.039C991.686 147.321 991.405 147.643 991.847 148.891L995.792 158.673C996.799 156.056 998.449 151.749 999.295 149.213C999.737 147.804 999.496 147.361 997.121 147.039V145.55H1005.05Z" fill="#F8EBE5"/>
</g>
</g>
</g>
<g clip-path="url(#clip7_363_111)">
<g clip-path="url(#clip8_363_111)">
<g clip-path="url(#clip9_363_111)">
<path d="M917.316 969.142C1000.41 969.142 1067.77 901.782 1067.77 818.689C1067.77 735.596 1000.41 668.236 917.316 668.236C834.223 668.236 766.863 735.596 766.863 818.689C766.863 901.782 834.223 969.142 917.316 969.142Z" fill="#554D65"/>
<path d="M863.442 805.855V807.425C860.946 807.626 859.94 808.069 859.739 809.759C859.618 811.048 859.537 812.819 859.537 816.563V832.343H857.404L840.215 811.853V821.192C840.215 824.694 840.295 826.586 840.416 827.753C840.617 829.686 841.664 830.29 844.603 830.451V832.021H833.975V830.451C836.552 830.29 837.518 829.686 837.719 827.914C837.92 826.546 837.961 824.694 837.961 821.192V812.215C837.961 810.001 837.88 809.719 837.196 808.834C836.431 807.867 835.344 807.586 833.492 807.425V805.855H840.376L857.243 825.298V816.563C857.243 812.819 857.162 811.088 857.001 809.92C856.84 808.149 855.794 807.626 852.694 807.425V805.855H863.442ZM864.378 823.124C864.378 816.885 869.289 813.302 873.959 813.302C879.474 813.302 883.218 817.488 883.218 822.601C883.218 829.364 878.145 832.504 873.878 832.504C867.921 832.504 864.378 827.753 864.378 823.124ZM878.789 823.567C878.789 818.454 876.777 815.073 873.436 815.073C871.101 815.073 868.806 817.207 868.806 822.037C868.806 827.27 871.141 830.732 874.321 830.732C876.616 830.732 878.789 828.961 878.789 823.567ZM895.608 830.491V832.021H885.464V830.491C888.081 830.249 888.322 830.048 888.322 827.552V819.139C888.322 816.643 888.121 816.522 885.826 816.2V814.791C888.081 814.469 890.053 813.986 892.187 813.221V817.649C893.877 815.113 895.689 813.302 897.46 813.302C899.07 813.302 900.077 814.348 900.077 815.476C900.077 816.683 899.272 817.69 898.426 818.132C897.943 818.374 897.621 818.253 897.299 818.012C896.655 817.448 896.091 817.005 895.327 817.005C894.441 817.005 892.951 818.253 892.187 820.387V827.552C892.187 830.048 892.348 830.29 895.608 830.491ZM933.654 832.021H924.476V830.491C926.69 830.249 927.133 830.088 927.133 827.512V820.628C927.133 817.649 925.764 816.16 923.671 816.16C922.221 816.16 920.812 816.925 919.283 818.132C919.323 818.616 919.404 819.179 919.404 819.863V827.713C919.404 830.048 919.806 830.249 922.02 830.491V832.021H912.761V830.491C915.177 830.249 915.579 830.129 915.579 827.592V820.588C915.579 817.609 914.291 816.16 912.158 816.16C910.708 816.16 909.259 817.005 907.85 818.132V827.592C907.85 830.088 908.172 830.249 910.185 830.491V832.021H901.128V830.491C903.825 830.209 904.026 830.048 904.026 827.592V819.179C904.026 816.683 903.825 816.522 901.57 816.2V814.791C903.664 814.509 905.838 813.986 907.85 813.221V816.442C908.736 815.798 909.581 815.154 910.91 814.389C911.876 813.785 912.842 813.302 914.211 813.302C916.304 813.302 917.995 814.509 918.88 816.603C920.007 815.717 921.054 815.073 922.101 814.389C923.027 813.825 924.194 813.302 925.482 813.302C928.823 813.302 930.957 815.637 930.957 819.783V827.592C930.957 830.048 931.279 830.249 933.654 830.491V832.021ZM953.101 830.37L949.196 832.504C948.431 832.504 947.626 832.141 947.143 831.739C946.58 831.175 946.298 830.531 946.097 829.887C944.366 831.054 942.272 832.504 940.944 832.504C937.925 832.504 935.67 830.008 935.67 827.19C935.67 825.137 936.798 823.768 939.173 822.963C941.829 822.077 945.13 820.991 945.936 820.306V819.421C945.936 816.764 944.527 815.395 942.554 815.395C941.668 815.395 941.024 815.757 940.582 816.24C940.058 816.804 939.857 817.73 939.454 818.857C939.213 819.622 938.73 819.944 938.045 819.944C937.2 819.944 935.992 819.058 935.992 817.971C935.992 817.287 936.556 816.764 937.401 816.16C938.609 815.355 941.266 813.865 943.721 813.302C945.05 813.302 946.459 813.704 947.505 814.509C949.075 815.757 949.639 817.408 949.639 819.421V826.908C949.639 828.84 950.323 829.364 951.048 829.364C951.531 829.364 952.095 829.162 952.618 828.921L953.101 830.37ZM945.936 828.237V822.077C944.969 822.561 943.238 823.285 942.152 823.728C940.783 824.332 939.817 825.097 939.817 826.626C939.817 828.8 941.467 829.645 942.594 829.645C943.641 829.645 944.849 829.203 945.936 828.237ZM963.535 832.021H953.672V830.491C956.329 830.249 956.611 830.008 956.611 827.512V809.075C956.611 806.66 956.409 806.458 953.793 806.217V804.727C956.329 804.526 958.986 803.882 960.475 803.399V827.512C960.475 830.048 960.797 830.249 963.535 830.491V832.021ZM980.402 827.109L981.247 828.277C979.315 830.773 976.497 832.504 974.002 832.504C968.527 832.504 965.266 828.075 965.266 823.647C965.266 820.346 966.796 817.69 969.453 815.677C971.828 813.906 974.485 813.302 976.095 813.302C978.108 813.302 979.436 813.906 980.08 814.389C980.644 814.872 980.764 815.234 980.764 815.757C980.764 816.764 979.637 817.851 979.074 817.851C978.832 817.851 978.591 817.77 978.228 817.488C976.779 816.361 975.451 815.596 974.082 815.596C971.627 815.596 969.251 817.649 969.251 821.876C969.211 827.472 973.156 829.283 975.37 829.283C977.021 829.283 978.55 828.8 980.402 827.109ZM1003.14 813.785V815.274C1001.01 815.556 1000.49 815.918 999.481 818.173C998.515 820.387 997.227 823.406 994.651 829.887C991.953 836.449 991.309 838.502 990.665 840.595C990.343 841.561 989.86 841.762 989.216 841.762C987.807 841.762 986.358 840.595 986.358 839.508C986.358 838.824 986.6 838.461 987.364 837.978C988.733 837.093 989.659 836.247 990.223 835.321C990.867 834.114 991.47 832.785 991.631 832.383C991.712 831.94 991.792 831.618 991.551 830.974C989.82 826.345 987.203 820.548 986.116 818.052C985.15 815.878 984.788 815.556 982.534 815.274V813.785H991.591V815.274C989.78 815.556 989.498 815.878 989.941 817.126L993.886 826.908C994.892 824.292 996.543 819.984 997.388 817.448C997.831 816.039 997.589 815.596 995.214 815.274V813.785H1003.14Z" fill="#F8EBE5"/>
</g>
</g>
</g>
<path d="M1276.62 315.474C1278 316.848 1280.23 316.848 1281.6 315.474L1303.99 293.079C1305.37 291.704 1305.37 289.476 1303.99 288.102C1302.62 286.728 1300.39 286.728 1299.02 288.102L1279.11 308.009L1259.2 288.102C1257.83 286.728 1255.6 286.728 1254.23 288.102C1252.85 289.476 1252.85 291.705 1254.23 293.079L1276.62 315.474ZM1128.18 154.392C1130.12 154.476 1131.76 152.971 1131.85 151.029C1131.93 149.087 1130.43 147.445 1128.48 147.361L1128.33 150.876L1128.18 154.392ZM1155.16 149.86C1153.24 149.574 1151.45 150.9 1151.16 152.823C1150.88 154.745 1152.2 156.535 1154.12 156.822L1154.64 153.341L1155.16 149.86ZM1179.51 162.298C1181.38 162.841 1183.33 161.768 1183.88 159.902C1184.42 158.036 1183.34 156.083 1181.48 155.54L1180.5 158.919L1179.51 162.298ZM1206.73 165.22C1204.99 164.365 1202.88 165.086 1202.02 166.832C1201.17 168.577 1201.89 170.685 1203.63 171.54L1205.18 168.38L1206.73 165.22ZM1225.43 185.122C1226.96 186.319 1229.18 186.049 1230.37 184.519C1231.57 182.988 1231.3 180.776 1229.77 179.579L1227.6 182.35L1225.43 185.122ZM1249.17 198.635C1247.94 197.125 1245.73 196.894 1244.22 198.118C1242.71 199.342 1242.48 201.558 1243.7 203.068L1246.44 200.851L1249.17 198.635ZM1257.62 224.639C1258.5 226.372 1260.62 227.064 1262.35 226.185C1264.09 225.305 1264.78 223.187 1263.9 221.454L1260.76 223.046L1257.62 224.639ZM1273.87 246.585C1273.31 244.724 1271.35 243.67 1269.49 244.23C1267.63 244.79 1266.58 246.753 1267.14 248.614L1270.51 247.599L1273.87 246.585ZM1272.79 273.939C1273.09 275.86 1274.88 277.177 1276.8 276.881C1278.73 276.585 1280.04 274.788 1279.75 272.867L1276.27 273.403L1272.79 273.939ZM1282.34 299.571C1282.25 297.63 1280.6 296.126 1278.66 296.214C1276.72 296.301 1275.22 297.945 1275.3 299.887L1278.82 299.729L1282.34 299.571ZM1115.07 150.594L1115.07 154.113C1119.54 154.113 1123.91 154.207 1128.18 154.392L1128.33 150.876L1128.48 147.361C1124.11 147.171 1119.64 147.075 1115.07 147.075L1115.07 150.594ZM1154.64 153.341L1154.12 156.822C1163.14 158.164 1171.6 159.996 1179.51 162.298L1180.5 158.919L1181.48 155.54C1173.23 153.143 1164.46 151.246 1155.16 149.86L1154.64 153.341ZM1205.18 168.38L1203.63 171.54C1211.61 175.449 1218.87 179.986 1225.43 185.122L1227.6 182.35L1229.77 179.579C1222.81 174.129 1215.13 169.335 1206.73 165.22L1205.18 168.38ZM1246.44 200.851L1243.7 203.068C1249.03 209.635 1253.66 216.832 1257.62 224.639L1260.76 223.046L1263.9 221.454C1259.73 213.227 1254.82 205.608 1249.17 198.635L1246.44 200.851ZM1270.51 247.599L1267.14 248.614C1269.54 256.59 1271.42 265.037 1272.79 273.939L1276.27 273.403L1279.75 272.867C1278.33 263.671 1276.38 254.902 1273.87 246.585L1270.51 247.599ZM1278.82 299.729L1275.3 299.887C1275.5 304.169 1275.59 308.536 1275.59 312.985L1279.11 312.985L1282.63 312.985C1282.63 308.435 1282.53 303.963 1282.34 299.571L1278.82 299.729Z" fill="#554D65"/>
<path d="M1101.33 814.695C1099.96 816.069 1099.96 818.298 1101.33 819.672L1123.73 842.067C1125.1 843.441 1127.33 843.441 1128.7 842.067C1130.08 840.692 1130.08 838.464 1128.7 837.09L1108.8 817.184L1128.7 797.277C1130.08 795.903 1130.08 793.675 1128.7 792.3C1127.33 790.926 1125.1 790.926 1123.72 792.3L1101.33 814.695ZM1262.41 666.252C1262.33 668.194 1263.83 669.836 1265.77 669.92C1267.72 670.004 1269.36 668.499 1269.44 666.557L1265.93 666.404L1262.41 666.252ZM1266.94 693.233C1267.23 691.311 1265.9 689.52 1263.98 689.234C1262.06 688.948 1260.27 690.274 1259.98 692.197L1263.46 692.715L1266.94 693.233ZM1254.51 717.586C1253.96 719.452 1255.04 721.405 1256.9 721.948C1258.77 722.49 1260.72 721.417 1261.26 719.551L1257.88 718.569L1254.51 717.586ZM1251.58 744.803C1252.44 743.058 1251.72 740.95 1249.97 740.095C1248.23 739.24 1246.12 739.961 1245.26 741.707L1248.42 743.255L1251.58 744.803ZM1231.68 763.506C1230.48 765.037 1230.75 767.249 1232.28 768.446C1233.82 769.644 1236.03 769.374 1237.22 767.844L1234.45 765.675L1231.68 763.506ZM1218.17 787.241C1219.68 786.017 1219.91 783.801 1218.69 782.291C1217.46 780.782 1215.25 780.551 1213.74 781.775L1215.95 784.508L1218.17 787.241ZM1192.16 795.697C1190.43 796.576 1189.74 798.694 1190.62 800.427C1191.5 802.16 1193.62 802.852 1195.35 801.973L1193.76 798.835L1192.16 795.697ZM1170.22 811.947C1172.08 811.387 1173.13 809.424 1172.57 807.563C1172.01 805.702 1170.05 804.648 1168.19 805.208L1169.2 808.578L1170.22 811.947ZM1142.86 810.863C1140.94 811.159 1139.63 812.956 1139.92 814.877C1140.22 816.798 1142.02 818.115 1143.94 817.819L1143.4 814.341L1142.86 810.863ZM1117.23 820.408C1119.17 820.321 1120.68 818.676 1120.59 816.734C1120.5 814.793 1118.86 813.29 1116.92 813.377L1117.07 816.892L1117.23 820.408ZM1266.21 653.141L1262.69 653.141C1262.69 657.615 1262.6 661.984 1262.41 666.252L1265.93 666.404L1269.44 666.557C1269.63 662.184 1269.73 657.712 1269.73 653.141L1266.21 653.141ZM1263.46 692.715L1259.98 692.197C1258.64 701.211 1256.81 709.669 1254.51 717.586L1257.88 718.569L1261.26 719.551C1263.66 711.305 1265.56 702.536 1266.94 693.233L1263.46 692.715ZM1248.42 743.255L1245.26 741.707C1241.35 749.686 1236.82 756.943 1231.68 763.506L1234.45 765.675L1237.22 767.844C1242.67 760.879 1247.47 753.203 1251.58 744.803L1248.42 743.255ZM1215.95 784.508L1213.74 781.775C1207.17 787.101 1199.97 791.735 1192.16 795.697L1193.76 798.835L1195.35 801.973C1203.58 797.798 1211.2 792.896 1218.17 787.241L1215.95 784.508ZM1169.2 808.578L1168.19 805.208C1160.21 807.609 1151.77 809.491 1142.86 810.863L1143.4 814.341L1143.94 817.819C1153.13 816.401 1161.9 814.451 1170.22 811.947L1169.2 808.578ZM1117.07 816.892L1116.92 813.377C1112.63 813.569 1108.27 813.665 1103.82 813.665L1103.82 817.184L1103.82 820.703C1108.37 820.703 1112.84 820.605 1117.23 820.408L1117.07 816.892Z" fill="#554D65"/>
<path d="M563.975 666.68C562.6 665.306 560.372 665.306 558.998 666.68L536.603 689.075C535.229 690.449 535.229 692.677 536.603 694.051C537.978 695.425 540.206 695.425 541.58 694.051L561.486 674.145L581.393 694.051C582.767 695.425 584.995 695.425 586.37 694.051C587.744 692.677 587.744 690.449 586.37 689.075L563.975 666.68ZM712.418 827.761C710.476 827.677 708.834 829.183 708.75 831.124C708.665 833.066 710.171 834.708 712.113 834.793L712.265 831.277L712.418 827.761ZM685.437 832.293C687.359 832.579 689.149 831.253 689.436 829.331C689.722 827.408 688.396 825.618 686.473 825.332L685.955 828.812L685.437 832.293ZM661.084 819.855C659.218 819.313 657.265 820.385 656.722 822.252C656.18 824.118 657.253 826.071 659.119 826.613L660.101 823.234L661.084 819.855ZM633.867 816.934C635.612 817.789 637.72 817.067 638.575 815.322C639.43 813.576 638.709 811.468 636.963 810.613L635.415 813.774L633.867 816.934ZM615.163 797.032C613.633 795.834 611.421 796.104 610.223 797.635C609.026 799.165 609.296 801.377 610.826 802.575L612.995 799.803L615.163 797.032ZM591.429 783.519C592.653 785.028 594.869 785.259 596.378 784.035C597.888 782.811 598.119 780.595 596.895 779.086L594.162 781.302L591.429 783.519ZM582.973 757.515C582.094 755.781 579.976 755.089 578.243 755.969C576.51 756.848 575.818 758.966 576.697 760.699L579.835 759.107L582.973 757.515ZM566.723 735.568C567.283 737.429 569.246 738.484 571.107 737.924C572.968 737.363 574.022 735.4 573.462 733.539L570.092 734.554L566.723 735.568ZM567.807 708.214C567.511 706.293 565.714 704.976 563.793 705.272C561.872 705.568 560.555 707.366 560.851 709.286L564.329 708.75L567.807 708.214ZM558.262 682.582C558.349 684.524 559.994 686.027 561.936 685.94C563.877 685.853 565.38 684.208 565.293 682.267L561.778 682.424L558.262 682.582ZM725.529 831.559L725.529 828.04C721.055 828.04 716.685 827.947 712.418 827.761L712.265 831.277L712.113 834.793C716.486 834.983 720.958 835.078 725.529 835.078L725.529 831.559ZM685.955 828.812L686.473 825.332C677.459 823.989 669.001 822.157 661.084 819.855L660.101 823.234L659.119 826.613C667.365 829.011 676.134 830.908 685.437 832.293L685.955 828.812ZM635.415 813.774L636.963 810.613C628.984 806.704 621.727 802.167 615.163 797.032L612.995 799.803L610.826 802.575C617.791 808.024 625.467 812.819 633.867 816.934L635.415 813.774ZM594.162 781.302L596.895 779.086C591.568 772.518 586.934 765.321 582.973 757.515L579.835 759.107L576.697 760.699C580.872 768.927 585.773 776.546 591.429 783.519L594.162 781.302ZM570.092 734.554L573.462 733.539C571.061 725.563 569.179 717.116 567.807 708.214L564.329 708.75L560.851 709.286C562.269 718.482 564.219 727.251 566.723 735.568L570.092 734.554ZM561.778 682.424L565.293 682.267C565.101 677.984 565.005 673.617 565.005 669.168L561.486 669.168L557.967 669.168C557.967 673.718 558.065 678.19 558.262 682.582L561.778 682.424Z" fill="#554D65"/>
<path d="M739.266 167.458C740.64 166.084 740.64 163.856 739.266 162.482L716.871 140.087C715.496 138.713 713.268 138.713 711.894 140.087C710.52 141.461 710.52 143.689 711.894 145.063L731.801 164.97L711.894 184.876C710.52 186.251 710.52 188.479 711.894 189.853C713.268 191.227 715.497 191.227 716.871 189.853L739.266 167.458ZM578.184 315.901C578.268 313.96 576.763 312.317 574.821 312.233C572.879 312.149 571.237 313.655 571.153 315.596L574.668 315.749L578.184 315.901ZM573.652 288.92C573.366 290.842 574.692 292.633 576.615 292.919C578.537 293.205 580.327 291.879 580.613 289.957L577.133 289.438L573.652 288.92ZM586.09 264.567C586.633 262.701 585.56 260.748 583.694 260.206C581.827 259.663 579.875 260.736 579.332 262.602L582.711 263.585L586.09 264.567ZM589.012 237.35C588.157 239.096 588.878 241.204 590.624 242.059C592.369 242.914 594.477 242.192 595.332 240.447L592.172 238.899L589.012 237.35ZM608.913 218.647C610.111 217.116 609.841 214.905 608.311 213.707C606.78 212.509 604.568 212.779 603.371 214.31L606.142 216.478L608.913 218.647ZM622.427 194.912C620.917 196.136 620.686 198.352 621.91 199.862C623.134 201.371 625.35 201.603 626.86 200.378L624.643 197.645L622.427 194.912ZM648.431 186.457C650.164 185.577 650.856 183.459 649.976 181.726C649.097 179.993 646.979 179.301 645.246 180.18L646.838 183.319L648.431 186.457ZM670.377 170.206C668.516 170.766 667.462 172.729 668.022 174.59C668.582 176.451 670.545 177.506 672.406 176.945L671.391 173.576L670.377 170.206ZM697.731 171.291C699.652 170.994 700.969 169.197 700.673 167.276C700.377 165.356 698.58 164.039 696.659 164.335L697.195 167.813L697.731 171.291ZM723.363 161.746C721.422 161.833 719.918 163.477 720.005 165.419C720.093 167.36 721.737 168.864 723.679 168.777L723.521 165.261L723.363 161.746ZM574.386 329.012L577.905 329.012C577.905 324.539 577.999 320.169 578.184 315.901L574.668 315.749L571.153 315.596C570.963 319.969 570.867 324.441 570.867 329.012L574.386 329.012ZM577.133 289.438L580.613 289.957C581.956 280.942 583.788 272.484 586.09 264.567L582.711 263.585L579.332 262.602C576.935 270.848 575.037 279.618 573.652 288.92L577.133 289.438ZM592.172 238.899L595.332 240.447C599.241 232.467 603.778 225.21 608.913 218.647L606.142 216.478L603.371 214.31C597.921 221.274 593.127 228.95 589.012 237.35L592.172 238.899ZM624.643 197.645L626.86 200.378C633.427 195.052 640.624 190.418 648.431 186.457L646.838 183.319L645.246 180.18C637.018 184.355 629.4 189.257 622.427 194.912L624.643 197.645ZM671.391 173.576L672.406 176.945C680.382 174.544 688.829 172.663 697.731 171.291L697.195 167.813L696.659 164.335C687.463 165.752 678.694 167.702 670.377 170.206L671.391 173.576ZM723.521 165.261L723.679 168.777C727.961 168.584 732.328 168.489 736.777 168.489L736.777 164.97L736.777 161.451C732.227 161.451 727.755 161.549 723.363 161.746L723.521 165.261Z" fill="#554D65"/>
<path d="M1137.38 912.921C1131.62 912.921 1128.06 908.735 1128.06 903.502V903.449C1128.06 898.426 1131.75 893.977 1137.25 893.977C1140.33 893.977 1142.24 894.867 1144.08 896.411L1142.74 897.981C1141.35 896.751 1139.73 895.887 1137.17 895.887C1133.11 895.887 1130.21 899.315 1130.21 903.397V903.449C1130.21 907.819 1133.01 911.064 1137.46 911.064C1139.55 911.064 1141.49 910.252 1142.74 909.232V904.679H1137.17V902.821H1144.73V910.122C1143.03 911.665 1140.49 912.921 1137.38 912.921ZM1148.79 912.607V899.08H1150.81V902.612C1151.8 900.362 1153.76 898.766 1156.33 898.844V901.016H1156.17C1153.21 901.016 1150.81 903.135 1150.81 907.217V912.607H1148.79ZM1159.19 896.123V893.899H1161.49V896.123H1159.19ZM1159.32 912.607V899.08H1161.33V912.607H1159.32ZM1171.66 912.921C1167.97 912.921 1164.91 910.069 1164.91 905.883V905.83C1164.91 901.932 1167.63 898.792 1171.4 898.792C1175.4 898.792 1177.7 901.984 1177.7 905.935C1177.7 906.223 1177.7 906.354 1177.68 906.589H1166.95C1167.24 909.52 1169.3 911.168 1171.71 911.168C1173.59 911.168 1174.85 910.409 1175.98 909.258L1177.23 910.383C1175.87 911.927 1174.25 912.921 1171.66 912.921ZM1166.95 905.098H1175.66C1175.45 902.664 1174.07 900.493 1171.34 900.493C1168.96 900.493 1167.24 902.481 1166.95 905.098ZM1181.73 912.607V900.859H1179.87V899.106H1181.73V897.928C1181.73 896.385 1182.12 895.233 1182.9 894.448C1183.61 893.742 1184.58 893.402 1185.81 893.402C1186.75 893.402 1187.38 893.506 1188.03 893.742V895.495C1187.3 895.286 1186.78 895.155 1186.07 895.155C1184.5 895.155 1183.72 896.123 1183.72 898.033V899.132H1188.01V900.859H1183.74V912.607H1181.73ZM1197.95 896.123V893.899H1200.25V896.123H1197.95ZM1198.08 912.607V899.08H1200.1V912.607H1198.08ZM1208.98 912.869C1207.02 912.869 1204.93 912.11 1203.38 910.88L1204.4 909.441C1205.87 910.566 1207.49 911.168 1209.09 911.168C1210.74 911.168 1211.89 910.357 1211.89 909.023V908.97C1211.89 907.636 1210.29 907.086 1208.51 906.589C1206.42 905.961 1204.04 905.281 1204.04 902.769V902.717C1204.04 900.388 1205.97 898.844 1208.64 898.844C1210.32 898.844 1212.12 899.42 1213.51 900.336L1212.59 901.853C1211.34 901.042 1209.93 900.545 1208.59 900.545C1207 900.545 1205.97 901.382 1205.97 902.507V902.56C1205.97 903.842 1207.65 904.339 1209.45 904.888C1211.55 905.516 1213.8 906.328 1213.8 908.761V908.813C1213.8 911.378 1211.68 912.869 1208.98 912.869ZM1228.89 912.895C1226.38 912.895 1223.84 911.482 1223.84 908.683V908.63C1223.84 905.804 1226.2 904.261 1229.62 904.261C1231.38 904.261 1232.56 904.496 1233.79 904.836V904.365C1233.79 901.932 1232.29 900.676 1229.76 900.676C1228.16 900.676 1226.9 901.068 1225.65 901.67L1225.05 900.022C1226.54 899.315 1227.98 898.896 1229.96 898.896C1231.87 898.896 1233.34 899.394 1234.33 900.388C1235.25 901.304 1235.72 902.638 1235.72 904.339V912.607H1233.79V910.566C1232.84 911.796 1231.3 912.895 1228.89 912.895ZM1229.28 911.299C1231.8 911.299 1233.81 909.782 1233.81 907.636V906.328C1232.79 906.04 1231.51 905.752 1229.83 905.752C1227.3 905.752 1225.88 906.851 1225.88 908.552V908.604C1225.88 910.305 1227.48 911.299 1229.28 911.299ZM1247.34 912.607V899.08H1249.35V901.435C1250.27 899.969 1251.65 898.792 1253.98 898.792C1257.23 898.792 1259.16 900.99 1259.16 904.208V912.607H1257.15V904.705C1257.15 902.193 1255.81 900.623 1253.41 900.623C1251.08 900.623 1249.35 902.324 1249.35 904.862V912.607H1247.34ZM1267.23 912.895C1264.72 912.895 1262.18 911.482 1262.18 908.683V908.63C1262.18 905.804 1264.53 904.261 1267.96 904.261C1269.71 904.261 1270.89 904.496 1272.12 904.836V904.365C1272.12 901.932 1270.63 900.676 1268.09 900.676C1266.5 900.676 1265.24 901.068 1263.98 901.67L1263.38 900.022C1264.87 899.315 1266.31 898.896 1268.3 898.896C1270.21 898.896 1271.68 899.394 1272.67 900.388C1273.59 901.304 1274.06 902.638 1274.06 904.339V912.607H1272.12V910.566C1271.18 911.796 1269.64 912.895 1267.23 912.895ZM1267.62 911.299C1270.13 911.299 1272.15 909.782 1272.15 907.636V906.328C1271.13 906.04 1269.84 905.752 1268.17 905.752C1265.63 905.752 1264.22 906.851 1264.22 908.552V908.604C1264.22 910.305 1265.82 911.299 1267.62 911.299ZM1282.49 912.843C1280.29 912.843 1278.67 911.77 1278.67 909.023V900.859H1276.78V899.08H1278.67V894.998H1280.68V899.08H1284.97V900.859H1280.68V908.761C1280.68 910.436 1281.6 911.011 1282.96 911.011C1283.67 911.011 1284.22 910.88 1284.92 910.54V912.267C1284.22 912.66 1283.46 912.843 1282.49 912.843ZM1293.25 912.895C1290.01 912.895 1288.07 910.697 1288.07 907.479V899.08H1290.08V906.982C1290.08 909.494 1291.42 911.064 1293.83 911.064C1296.13 911.064 1297.88 909.363 1297.88 906.825V899.08H1299.87V912.607H1297.88V910.252C1296.97 911.718 1295.58 912.895 1293.25 912.895ZM1304.14 912.607V899.08H1306.16V902.612C1307.15 900.362 1309.11 898.766 1311.68 898.844V901.016H1311.52C1308.56 901.016 1306.16 903.135 1306.16 907.217V912.607H1304.14ZM1317.85 912.895C1315.34 912.895 1312.8 911.482 1312.8 908.683V908.63C1312.8 905.804 1315.15 904.261 1318.58 904.261C1320.33 904.261 1321.51 904.496 1322.74 904.836V904.365C1322.74 901.932 1321.25 900.676 1318.71 900.676C1317.12 900.676 1315.86 901.068 1314.6 901.67L1314 900.022C1315.49 899.315 1316.93 898.896 1318.92 898.896C1320.83 898.896 1322.3 899.394 1323.29 900.388C1324.21 901.304 1324.68 902.638 1324.68 904.339V912.607H1322.74V910.566C1321.8 911.796 1320.26 912.895 1317.85 912.895ZM1318.24 911.299C1320.75 911.299 1322.77 909.782 1322.77 907.636V906.328C1321.75 906.04 1320.47 905.752 1318.79 905.752C1316.25 905.752 1314.84 906.851 1314.84 908.552V908.604C1314.84 910.305 1316.44 911.299 1318.24 911.299ZM1328.89 912.607V893.506H1330.91V912.607H1328.89ZM1342.91 916.794V899.08H1344.92V901.801C1346.05 900.205 1347.59 898.792 1350.1 898.792C1353.35 898.792 1356.56 901.356 1356.56 905.804V905.857C1356.56 910.252 1353.37 912.895 1350.1 912.895C1347.59 912.895 1345.97 911.561 1344.92 910.017V916.794H1342.91ZM1349.73 911.09C1352.35 911.09 1354.5 909.154 1354.5 905.883V905.83C1354.5 902.612 1352.33 900.597 1349.73 900.597C1347.22 900.597 1344.84 902.743 1344.84 905.804V905.857C1344.84 908.997 1347.22 911.09 1349.73 911.09ZM1364.05 912.895C1361.54 912.895 1359 911.482 1359 908.683V908.63C1359 905.804 1361.35 904.261 1364.78 904.261C1366.53 904.261 1367.71 904.496 1368.94 904.836V904.365C1368.94 901.932 1367.45 900.676 1364.91 900.676C1363.32 900.676 1362.06 901.068 1360.8 901.67L1360.2 900.022C1361.69 899.315 1363.13 898.896 1365.12 898.896C1367.03 898.896 1368.5 899.394 1369.49 900.388C1370.41 901.304 1370.88 902.638 1370.88 904.339V912.607H1368.94V910.566C1368 911.796 1366.46 912.895 1364.05 912.895ZM1364.44 911.299C1366.95 911.299 1368.97 909.782 1368.97 907.636V906.328C1367.95 906.04 1366.67 905.752 1364.99 905.752C1362.45 905.752 1361.04 906.851 1361.04 908.552V908.604C1361.04 910.305 1362.64 911.299 1364.44 911.299ZM1374.91 912.607V899.08H1376.93V902.612C1377.92 900.362 1379.88 898.766 1382.45 898.844V901.016H1382.29C1379.33 901.016 1376.93 903.135 1376.93 907.217V912.607H1374.91ZM1389.78 912.843C1387.58 912.843 1385.96 911.77 1385.96 909.023V900.859H1384.08V899.08H1385.96V894.998H1387.97V899.08H1392.27V900.859H1387.97V908.761C1387.97 910.436 1388.89 911.011 1390.25 911.011C1390.96 911.011 1391.51 910.88 1392.21 910.54V912.267C1391.51 912.66 1390.75 912.843 1389.78 912.843ZM1409.33 912.921C1405.27 912.921 1402.32 909.729 1402.32 905.909V905.857C1402.32 902.01 1405.27 898.792 1409.38 898.792C1413.46 898.792 1416.42 901.984 1416.42 905.804V905.857C1416.42 909.703 1413.41 912.921 1409.33 912.921ZM1409.38 911.116C1412.31 911.116 1414.35 908.735 1414.35 905.909V905.857C1414.35 902.952 1412.18 900.571 1409.33 900.571C1406.4 900.571 1404.38 902.952 1404.38 905.804V905.857C1404.38 908.761 1406.53 911.116 1409.38 911.116ZM1420.57 912.607V900.859H1418.71V899.106H1420.57V897.928C1420.57 896.385 1420.96 895.233 1421.74 894.448C1422.45 893.742 1423.42 893.402 1424.65 893.402C1425.59 893.402 1426.22 893.506 1426.87 893.742V895.495C1426.14 895.286 1425.62 895.155 1424.91 895.155C1423.34 895.155 1422.55 896.123 1422.55 898.033V899.132H1426.85V900.859H1422.58V912.607H1420.57ZM1095.52 949.921C1091.54 949.921 1088.59 946.703 1088.59 942.909V942.857C1088.59 939.01 1091.54 935.792 1095.52 935.792C1098.09 935.792 1099.66 936.838 1100.94 938.199L1099.6 939.612C1098.53 938.487 1097.35 937.571 1095.49 937.571C1092.75 937.571 1090.65 939.874 1090.65 942.804V942.857C1090.65 945.787 1092.8 948.116 1095.63 948.116C1097.38 948.116 1098.69 947.252 1099.76 946.101L1101.04 947.305C1099.68 948.849 1098.06 949.921 1095.52 949.921ZM1108.14 949.895C1105.63 949.895 1103.09 948.482 1103.09 945.683V945.63C1103.09 942.804 1105.45 941.261 1108.87 941.261C1110.63 941.261 1111.8 941.496 1113.03 941.836V941.365C1113.03 938.932 1111.54 937.676 1109 937.676C1107.41 937.676 1106.15 938.068 1104.9 938.67L1104.29 937.022C1105.79 936.315 1107.22 935.896 1109.21 935.896C1111.12 935.896 1112.59 936.394 1113.58 937.388C1114.5 938.304 1114.97 939.638 1114.97 941.339V949.607H1113.03V947.566C1112.09 948.796 1110.55 949.895 1108.14 949.895ZM1108.53 948.299C1111.04 948.299 1113.06 946.782 1113.06 944.636V943.328C1112.04 943.04 1110.76 942.752 1109.08 942.752C1106.54 942.752 1105.13 943.851 1105.13 945.552V945.604C1105.13 947.305 1106.73 948.299 1108.53 948.299ZM1119 949.607V936.08H1121.02V939.612C1122.01 937.362 1123.97 935.766 1126.54 935.844V938.016H1126.38C1123.42 938.016 1121.02 940.135 1121.02 944.217V949.607H1119ZM1129.4 933.123V930.899H1131.7V933.123H1129.4ZM1129.53 949.607V936.08H1131.54V949.607H1129.53ZM1135.96 949.607V936.08H1137.97V938.435C1138.89 936.969 1140.27 935.792 1142.6 935.792C1145.85 935.792 1147.78 937.99 1147.78 941.208V949.607H1145.77V941.705C1145.77 939.193 1144.43 937.623 1142.03 937.623C1139.7 937.623 1137.97 939.324 1137.97 941.862V949.607H1135.96ZM1157.81 953.846C1155.53 953.846 1153.47 953.218 1151.66 951.962L1152.58 950.392C1154.15 951.518 1155.82 952.119 1157.78 952.119C1160.79 952.119 1162.7 950.471 1162.7 947.305V945.709C1161.53 947.279 1159.88 948.561 1157.39 948.561C1154.15 948.561 1151.03 946.101 1151.03 942.229V942.176C1151.03 938.225 1154.15 935.792 1157.39 935.792C1159.93 935.792 1161.55 937.048 1162.68 938.513V936.08H1164.69V947.252C1164.69 949.346 1164.09 950.916 1162.97 952.041C1161.74 953.271 1159.98 953.846 1157.81 953.846ZM1157.78 946.782C1160.35 946.782 1162.76 944.924 1162.76 942.202V942.15C1162.76 939.377 1160.35 937.571 1157.78 937.571C1155.19 937.571 1153.1 939.35 1153.1 942.124V942.176C1153.1 944.898 1155.27 946.782 1157.78 946.782ZM1168.2 952.8L1167.89 951.884C1169.22 951.387 1169.74 950.733 1169.64 949.607H1168.7V946.86H1171.1V949.215C1171.1 951.334 1170.19 952.355 1168.2 952.8ZM1186.7 949.895C1184.19 949.895 1181.65 948.482 1181.65 945.683V945.63C1181.65 942.804 1184 941.261 1187.43 941.261C1189.18 941.261 1190.36 941.496 1191.59 941.836V941.365C1191.59 938.932 1190.1 937.676 1187.56 937.676C1185.96 937.676 1184.71 938.068 1183.45 938.67L1182.85 937.022C1184.34 936.315 1185.78 935.896 1187.77 935.896C1189.68 935.896 1191.15 936.394 1192.14 937.388C1193.06 938.304 1193.53 939.638 1193.53 941.339V949.607H1191.59V947.566C1190.65 948.796 1189.1 949.895 1186.7 949.895ZM1187.09 948.299C1189.6 948.299 1191.62 946.782 1191.62 944.636V943.328C1190.6 943.04 1189.31 942.752 1187.64 942.752C1185.1 942.752 1183.69 943.851 1183.69 945.552V945.604C1183.69 947.305 1185.28 948.299 1187.09 948.299ZM1197.56 949.607V936.08H1199.57V938.435C1200.49 936.969 1201.88 935.792 1204.21 935.792C1207.45 935.792 1209.39 937.99 1209.39 941.208V949.607H1207.37V941.705C1207.37 939.193 1206.04 937.623 1203.63 937.623C1201.3 937.623 1199.57 939.324 1199.57 941.862V949.607H1197.56ZM1219.1 949.895C1215.85 949.895 1212.64 947.331 1212.64 942.883V942.83C1212.64 938.435 1215.85 935.792 1219.1 935.792C1221.61 935.792 1223.23 937.126 1224.28 938.67V930.506H1226.29V949.607H1224.28V946.886C1223.15 948.508 1221.61 949.895 1219.1 949.895ZM1219.47 948.09C1221.98 948.09 1224.36 945.97 1224.36 942.857V942.804C1224.36 939.691 1221.98 937.597 1219.47 937.597C1216.85 937.597 1214.7 939.534 1214.7 942.804V942.857C1214.7 946.075 1216.87 948.09 1219.47 948.09ZM1238.17 933.123V930.899H1240.47V933.123H1238.17ZM1238.3 949.607V936.08H1240.32V949.607H1238.3ZM1249.26 949.843C1247.06 949.843 1245.44 948.77 1245.44 946.023V937.859H1243.55V936.08H1245.44V931.998H1247.45V936.08H1251.74V937.859H1247.45V945.761C1247.45 947.436 1248.37 948.011 1249.73 948.011C1250.43 948.011 1250.98 947.88 1251.69 947.54V949.267C1250.98 949.66 1250.22 949.843 1249.26 949.843ZM1262.63 949.607V930.506H1264.65V938.435C1265.56 936.969 1266.95 935.792 1269.28 935.792C1272.52 935.792 1274.46 937.99 1274.46 941.208V949.607H1272.44V941.705C1272.44 939.193 1271.11 937.623 1268.7 937.623C1266.37 937.623 1264.65 939.324 1264.65 941.862V949.607H1262.63ZM1282.52 949.895C1280.01 949.895 1277.47 948.482 1277.47 945.683V945.63C1277.47 942.804 1279.83 941.261 1283.25 941.261C1285.01 941.261 1286.19 941.496 1287.41 941.836V941.365C1287.41 938.932 1285.92 937.676 1283.39 937.676C1281.79 937.676 1280.53 938.068 1279.28 938.67L1278.68 937.022C1280.17 936.315 1281.61 935.896 1283.59 935.896C1285.5 935.896 1286.97 936.394 1287.96 937.388C1288.88 938.304 1289.35 939.638 1289.35 941.339V949.607H1287.41V947.566C1286.47 948.796 1284.93 949.895 1282.52 949.895ZM1282.91 948.299C1285.43 948.299 1287.44 946.782 1287.44 944.636V943.328C1286.42 943.04 1285.14 942.752 1283.46 942.752C1280.93 942.752 1279.51 943.851 1279.51 945.552V945.604C1279.51 947.305 1281.11 948.299 1282.91 948.299ZM1297.86 949.869C1295.9 949.869 1293.8 949.11 1292.26 947.88L1293.28 946.441C1294.74 947.566 1296.37 948.168 1297.96 948.168C1299.61 948.168 1300.76 947.357 1300.76 946.023V945.97C1300.76 944.636 1299.17 944.086 1297.39 943.589C1295.29 942.961 1292.91 942.281 1292.91 939.769V939.717C1292.91 937.388 1294.85 935.844 1297.52 935.844C1299.19 935.844 1301 936.42 1302.38 937.336L1301.47 938.853C1300.21 938.042 1298.8 937.545 1297.47 937.545C1295.87 937.545 1294.85 938.382 1294.85 939.507V939.56C1294.85 940.842 1296.52 941.339 1298.33 941.888C1300.42 942.516 1302.67 943.328 1302.67 945.761V945.813C1302.67 948.378 1300.55 949.869 1297.86 949.869ZM1317.77 949.895C1315.25 949.895 1312.72 948.482 1312.72 945.683V945.63C1312.72 942.804 1315.07 941.261 1318.5 941.261C1320.25 941.261 1321.43 941.496 1322.66 941.836V941.365C1322.66 938.932 1321.17 937.676 1318.63 937.676C1317.03 937.676 1315.78 938.068 1314.52 938.67L1313.92 937.022C1315.41 936.315 1316.85 935.896 1318.84 935.896C1320.75 935.896 1322.21 936.394 1323.21 937.388C1324.12 938.304 1324.6 939.638 1324.6 941.339V949.607H1322.66V947.566C1321.72 948.796 1320.17 949.895 1317.77 949.895ZM1318.16 948.299C1320.67 948.299 1322.69 946.782 1322.69 944.636V943.328C1321.66 943.04 1320.38 942.752 1318.71 942.752C1316.17 942.752 1314.76 943.851 1314.76 945.552V945.604C1314.76 947.305 1316.35 948.299 1318.16 948.299ZM1336.21 953.794V936.08H1338.23V938.801C1339.35 937.205 1340.89 935.792 1343.41 935.792C1346.65 935.792 1349.87 938.356 1349.87 942.804V942.857C1349.87 947.252 1346.68 949.895 1343.41 949.895C1340.89 949.895 1339.27 948.561 1338.23 947.017V953.794H1336.21ZM1343.04 948.09C1345.66 948.09 1347.8 946.154 1347.8 942.883V942.83C1347.8 939.612 1345.63 937.597 1343.04 937.597C1340.53 937.597 1338.15 939.743 1338.15 942.804V942.857C1338.15 945.997 1340.53 948.09 1343.04 948.09ZM1353.51 949.607V930.506H1355.52V949.607H1353.51ZM1363.97 949.895C1361.45 949.895 1358.92 948.482 1358.92 945.683V945.63C1358.92 942.804 1361.27 941.261 1364.7 941.261C1366.45 941.261 1367.63 941.496 1368.86 941.836V941.365C1368.86 938.932 1367.37 937.676 1364.83 937.676C1363.23 937.676 1361.98 938.068 1360.72 938.67L1360.12 937.022C1361.61 936.315 1363.05 935.896 1365.04 935.896C1366.95 935.896 1368.41 936.394 1369.41 937.388C1370.32 938.304 1370.8 939.638 1370.8 941.339V949.607H1368.86V947.566C1367.92 948.796 1366.37 949.895 1363.97 949.895ZM1364.36 948.299C1366.87 948.299 1368.89 946.782 1368.89 944.636V943.328C1367.86 943.04 1366.58 942.752 1364.91 942.752C1362.37 942.752 1360.96 943.851 1360.96 945.552V945.604C1360.96 947.305 1362.55 948.299 1364.36 948.299ZM1380.92 949.921C1376.95 949.921 1373.99 946.703 1373.99 942.909V942.857C1373.99 939.01 1376.95 935.792 1380.92 935.792C1383.49 935.792 1385.06 936.838 1386.34 938.199L1385.01 939.612C1383.93 938.487 1382.76 937.571 1380.9 937.571C1378.15 937.571 1376.06 939.874 1376.06 942.804V942.857C1376.06 945.787 1378.2 948.116 1381.03 948.116C1382.78 948.116 1384.09 947.252 1385.16 946.101L1386.45 947.305C1385.08 948.849 1383.46 949.921 1380.92 949.921ZM1395.04 949.921C1391.36 949.921 1388.29 947.069 1388.29 942.883V942.83C1388.29 938.932 1391.02 935.792 1394.78 935.792C1398.79 935.792 1401.09 938.984 1401.09 942.935C1401.09 943.223 1401.09 943.354 1401.06 943.589H1390.33C1390.62 946.52 1392.69 948.168 1395.1 948.168C1396.98 948.168 1398.24 947.409 1399.36 946.258L1400.62 947.383C1399.26 948.927 1397.64 949.921 1395.04 949.921ZM1390.33 942.098H1399.05C1398.84 939.664 1397.45 937.493 1394.73 937.493C1392.35 937.493 1390.62 939.481 1390.33 942.098ZM1411.94 949.607V930.506H1413.95V938.435C1414.87 936.969 1416.25 935.792 1418.58 935.792C1421.83 935.792 1423.76 937.99 1423.76 941.208V949.607H1421.75V941.705C1421.75 939.193 1420.42 937.623 1418.01 937.623C1415.68 937.623 1413.95 939.324 1413.95 941.862V949.607H1411.94ZM1433.71 949.921C1430.02 949.921 1426.96 947.069 1426.96 942.883V942.83C1426.96 938.932 1429.68 935.792 1433.45 935.792C1437.45 935.792 1439.76 938.984 1439.76 942.935C1439.76 943.223 1439.76 943.354 1439.73 943.589H1429C1429.29 946.52 1431.36 948.168 1433.77 948.168C1435.65 948.168 1436.91 947.409 1438.03 946.258L1439.29 947.383C1437.93 948.927 1436.3 949.921 1433.71 949.921ZM1429 942.098H1437.72C1437.51 939.664 1436.12 937.493 1433.4 937.493C1431.02 937.493 1429.29 939.481 1429 942.098ZM1443.02 949.607V936.08H1445.04V939.612C1446.03 937.362 1447.99 935.766 1450.56 935.844V938.016H1450.4C1447.44 938.016 1445.04 940.135 1445.04 944.217V949.607H1443.02ZM1458.69 949.921C1455 949.921 1451.94 947.069 1451.94 942.883V942.83C1451.94 938.932 1454.66 935.792 1458.43 935.792C1462.43 935.792 1464.74 938.984 1464.74 942.935C1464.74 943.223 1464.74 943.354 1464.71 943.589H1453.98C1454.27 946.52 1456.34 948.168 1458.74 948.168C1460.63 948.168 1461.88 947.409 1463.01 946.258L1464.26 947.383C1462.9 948.927 1461.28 949.921 1458.69 949.921ZM1453.98 942.098H1462.69C1462.49 939.664 1461.1 937.493 1458.38 937.493C1456 937.493 1454.27 939.481 1453.98 942.098Z" fill="#554D65"/>
<path d="M1502.1 494.085L1495.56 475.638H1497.81L1503.04 490.893L1508.06 475.586H1509.76L1514.79 490.893L1520.02 475.638H1522.19L1515.65 494.085H1513.9L1508.87 479.223L1503.82 494.085H1502.1ZM1529.54 494.268C1525.86 494.268 1522.79 491.416 1522.79 487.229V487.177C1522.79 483.278 1525.51 480.139 1529.28 480.139C1533.29 480.139 1535.59 483.331 1535.59 487.282C1535.59 487.57 1535.59 487.7 1535.56 487.936H1524.83C1525.12 490.867 1527.19 492.515 1529.6 492.515C1531.48 492.515 1532.74 491.756 1533.86 490.605L1535.12 491.73C1533.76 493.274 1532.13 494.268 1529.54 494.268ZM1524.83 486.444H1533.55C1533.34 484.011 1531.95 481.839 1529.23 481.839C1526.85 481.839 1525.12 483.828 1524.83 486.444ZM1552.53 494.268C1548.56 494.268 1545.6 491.05 1545.6 487.256V487.203C1545.6 483.357 1548.56 480.139 1552.53 480.139C1555.1 480.139 1556.67 481.185 1557.95 482.546L1556.62 483.959C1555.54 482.834 1554.37 481.918 1552.51 481.918C1549.76 481.918 1547.67 484.22 1547.67 487.151V487.203C1547.67 490.134 1549.81 492.463 1552.64 492.463C1554.39 492.463 1555.7 491.599 1556.77 490.448L1558.05 491.652C1556.69 493.195 1555.07 494.268 1552.53 494.268ZM1561.12 493.954V474.853H1563.14V482.781C1564.05 481.316 1565.44 480.139 1567.77 480.139C1571.01 480.139 1572.95 482.336 1572.95 485.555V493.954H1570.94V486.052C1570.94 483.54 1569.6 481.97 1567.19 481.97C1564.87 481.97 1563.14 483.671 1563.14 486.209V493.954H1561.12ZM1582.9 494.268C1579.21 494.268 1576.15 491.416 1576.15 487.229V487.177C1576.15 483.278 1578.87 480.139 1582.64 480.139C1586.64 480.139 1588.94 483.331 1588.94 487.282C1588.94 487.57 1588.94 487.7 1588.92 487.936H1578.19C1578.48 490.867 1580.54 492.515 1582.95 492.515C1584.84 492.515 1586.09 491.756 1587.22 490.605L1588.47 491.73C1587.11 493.274 1585.49 494.268 1582.9 494.268ZM1578.19 486.444H1586.9C1586.69 484.011 1585.31 481.839 1582.59 481.839C1580.2 481.839 1578.48 483.828 1578.19 486.444ZM1598.31 494.268C1594.33 494.268 1591.37 491.05 1591.37 487.256V487.203C1591.37 483.357 1594.33 480.139 1598.31 480.139C1600.87 480.139 1602.44 481.185 1603.72 482.546L1602.39 483.959C1601.31 482.834 1600.14 481.918 1598.28 481.918C1595.53 481.918 1593.44 484.22 1593.44 487.151V487.203C1593.44 490.134 1595.58 492.463 1598.41 492.463C1600.16 492.463 1601.47 491.599 1602.54 490.448L1603.83 491.652C1602.47 493.195 1600.84 494.268 1598.31 494.268ZM1606.9 493.954V474.853H1608.91V488.041L1616.21 480.426H1618.72L1613.04 486.235L1618.91 493.954H1616.5L1611.66 487.648L1608.91 490.422V493.954H1606.9ZM1629.17 477.47V475.245H1631.47V477.47H1629.17ZM1629.3 493.954V480.426H1631.31V493.954H1629.3ZM1635.73 493.954V480.426H1637.74V482.781C1638.66 481.316 1640.04 480.139 1642.37 480.139C1645.62 480.139 1647.55 482.336 1647.55 485.555V493.954H1645.54V486.052C1645.54 483.54 1644.2 481.97 1641.8 481.97C1639.47 481.97 1637.74 483.671 1637.74 486.209V493.954H1635.73ZM1650.86 497.146L1650.54 496.231C1651.88 495.733 1652.4 495.079 1652.29 493.954H1651.35V491.207H1653.76V493.562C1653.76 495.681 1652.84 496.702 1650.86 497.146ZM1671.24 494.268C1667.55 494.268 1664.49 491.416 1664.49 487.229V487.177C1664.49 483.278 1667.21 480.139 1670.98 480.139C1674.98 480.139 1677.28 483.331 1677.28 487.282C1677.28 487.57 1677.28 487.7 1677.26 487.936H1666.53C1666.81 490.867 1668.88 492.515 1671.29 492.515C1673.17 492.515 1674.43 491.756 1675.55 490.605L1676.81 491.73C1675.45 493.274 1673.83 494.268 1671.24 494.268ZM1666.53 486.444H1675.24C1675.03 484.011 1673.64 481.839 1670.92 481.839C1668.54 481.839 1666.81 483.828 1666.53 486.444ZM1684.41 494.059L1678.55 480.426H1680.77L1685.32 491.652L1689.9 480.426H1692.08L1686.19 494.059H1684.41ZM1700.1 494.268C1696.41 494.268 1693.35 491.416 1693.35 487.229V487.177C1693.35 483.278 1696.07 480.139 1699.84 480.139C1703.84 480.139 1706.14 483.331 1706.14 487.282C1706.14 487.57 1706.14 487.7 1706.12 487.936H1695.39C1695.68 490.867 1697.74 492.515 1700.15 492.515C1702.04 492.515 1703.29 491.756 1704.42 490.605L1705.67 491.73C1704.31 493.274 1702.69 494.268 1700.1 494.268ZM1695.39 486.444H1704.1C1703.89 484.011 1702.51 481.839 1699.79 481.839C1697.4 481.839 1695.68 483.828 1695.39 486.444ZM1709.41 493.954V480.426H1711.42V482.781C1712.34 481.316 1713.73 480.139 1716.06 480.139C1719.3 480.139 1721.24 482.336 1721.24 485.555V493.954H1719.22V486.052C1719.22 483.54 1717.89 481.97 1715.48 481.97C1713.15 481.97 1711.42 483.671 1711.42 486.209V493.954H1709.41ZM1517.52 531.059L1512.78 517.426H1514.93L1518.49 528.285L1522.12 517.374H1523.8L1527.46 528.285L1531.02 517.426H1533.11L1528.35 531.059H1526.6L1522.96 520.383L1519.3 531.059H1517.52ZM1536.26 514.47V512.245H1538.56V514.47H1536.26ZM1536.39 530.954V517.426H1538.41V530.954H1536.39ZM1547.35 531.19C1545.15 531.19 1543.53 530.117 1543.53 527.369V519.206H1541.64V517.426H1543.53V513.344H1545.54V517.426H1549.83V519.206H1545.54V527.108C1545.54 528.782 1546.46 529.358 1547.82 529.358C1548.53 529.358 1549.08 529.227 1549.78 528.887V530.614C1549.08 531.006 1548.32 531.19 1547.35 531.19ZM1553.14 530.954V511.853H1555.15V519.781C1556.07 518.316 1557.46 517.139 1559.78 517.139C1563.03 517.139 1564.97 519.336 1564.97 522.555V530.954H1562.95V523.052C1562.95 520.54 1561.62 518.97 1559.21 518.97C1556.88 518.97 1555.15 520.671 1555.15 523.209V530.954H1553.14ZM1576.64 514.47V512.245H1578.94V514.47H1576.64ZM1575.48 535.219C1574.99 535.219 1574.67 535.193 1574.23 535.088V533.44C1574.54 533.518 1574.94 533.518 1575.22 533.518C1576.14 533.518 1576.77 532.969 1576.77 531.713V517.426H1578.78V531.739C1578.78 534.146 1577.55 535.219 1575.48 535.219ZM1588.17 531.242C1584.92 531.242 1582.99 529.044 1582.99 525.826V517.426H1585V525.328C1585 527.84 1586.34 529.41 1588.74 529.41C1591.05 529.41 1592.8 527.71 1592.8 525.171V517.426H1594.79V530.954H1592.8V528.599C1591.88 530.064 1590.5 531.242 1588.17 531.242ZM1603.53 531.216C1601.57 531.216 1599.48 530.457 1597.93 529.227L1598.95 527.788C1600.42 528.913 1602.04 529.515 1603.64 529.515C1605.29 529.515 1606.44 528.704 1606.44 527.369V527.317C1606.44 525.983 1604.84 525.433 1603.06 524.936C1600.97 524.308 1598.59 523.628 1598.59 521.116V521.063C1598.59 518.735 1600.52 517.191 1603.19 517.191C1604.87 517.191 1606.67 517.766 1608.06 518.682L1607.14 520.2C1605.89 519.389 1604.47 518.892 1603.14 518.892C1601.54 518.892 1600.52 519.729 1600.52 520.854V520.906C1600.52 522.189 1602.2 522.686 1604 523.235C1606.1 523.863 1608.35 524.674 1608.35 527.108V527.16C1608.35 529.724 1606.23 531.216 1603.53 531.216ZM1616.1 531.19C1613.9 531.19 1612.28 530.117 1612.28 527.369V519.206H1610.39V517.426H1612.28V513.344H1614.29V517.426H1618.58V519.206H1614.29V527.108C1614.29 528.782 1615.21 529.358 1616.57 529.358C1617.28 529.358 1617.83 529.227 1618.53 528.887V530.614C1617.83 531.006 1617.07 531.19 1616.1 531.19ZM1633.5 531.242C1630.99 531.242 1628.45 529.829 1628.45 527.029V526.977C1628.45 524.151 1630.81 522.607 1634.23 522.607C1635.99 522.607 1637.17 522.843 1638.4 523.183V522.712C1638.4 520.278 1636.9 519.022 1634.37 519.022C1632.77 519.022 1631.51 519.415 1630.26 520.017L1629.66 518.368C1631.15 517.662 1632.59 517.243 1634.57 517.243C1636.49 517.243 1637.95 517.74 1638.94 518.735C1639.86 519.65 1640.33 520.985 1640.33 522.686V530.954H1638.4V528.913C1637.45 530.143 1635.91 531.242 1633.5 531.242ZM1633.89 529.646C1636.41 529.646 1638.42 528.128 1638.42 525.983V524.674C1637.4 524.386 1636.12 524.099 1634.44 524.099C1631.91 524.099 1630.49 525.198 1630.49 526.898V526.951C1630.49 528.652 1632.09 529.646 1633.89 529.646ZM1651.95 530.954V517.426H1653.96V519.781C1654.88 518.316 1656.26 517.139 1658.59 517.139C1661.84 517.139 1663.77 519.336 1663.77 522.555V530.954H1661.76V523.052C1661.76 520.54 1660.42 518.97 1658.02 518.97C1655.69 518.97 1653.96 520.671 1653.96 523.209V530.954H1651.95ZM1673.98 531.268C1669.93 531.268 1666.97 528.076 1666.97 524.256V524.203C1666.97 520.357 1669.93 517.139 1674.04 517.139C1678.12 517.139 1681.07 520.331 1681.07 524.151V524.203C1681.07 528.05 1678.07 531.268 1673.98 531.268ZM1674.04 529.463C1676.97 529.463 1679.01 527.082 1679.01 524.256V524.203C1679.01 521.299 1676.84 518.918 1673.98 518.918C1671.05 518.918 1669.04 521.299 1669.04 524.151V524.203C1669.04 527.108 1671.18 529.463 1674.04 529.463ZM1690.14 531.242C1686.9 531.242 1683.68 528.678 1683.68 524.229V524.177C1683.68 519.781 1686.9 517.139 1690.14 517.139C1692.65 517.139 1694.28 518.473 1695.32 520.017V511.853H1697.34V530.954H1695.32V528.233C1694.2 529.855 1692.65 531.242 1690.14 531.242ZM1690.51 529.436C1693.02 529.436 1695.4 527.317 1695.4 524.203V524.151C1695.4 521.037 1693.02 518.944 1690.51 518.944C1687.89 518.944 1685.74 520.88 1685.74 524.151V524.203C1685.74 527.422 1687.92 529.436 1690.51 529.436ZM1701.32 530.954V528.207H1703.72V530.954H1701.32Z" fill="#554D65"/>
<path d="M415.145 65.3672L408.604 46.9202H410.854L416.087 62.1749L421.111 46.8679H422.812L427.836 62.1749L433.069 46.9202H435.241L428.699 65.3672H426.946L421.922 50.5049L416.872 65.3672H415.145ZM442.593 65.5503C438.904 65.5503 435.842 62.6982 435.842 58.5117V58.4594C435.842 54.5606 438.564 51.4207 442.332 51.4207C446.335 51.4207 448.638 54.613 448.638 58.564C448.638 58.8519 448.638 58.9827 448.611 59.2182H437.883C438.171 62.1488 440.238 63.7972 442.646 63.7972C444.529 63.7972 445.785 63.0384 446.911 61.8871L448.167 63.0122C446.806 64.556 445.184 65.5503 442.593 65.5503ZM437.883 57.7267H446.597C446.387 55.2933 445 53.1215 442.279 53.1215C439.898 53.1215 438.171 55.1101 437.883 57.7267ZM451.301 52.8599L450.987 51.9441C452.322 51.4469 452.845 50.7928 452.74 49.6676H451.798V46.9202H454.206V49.2751C454.206 51.3946 453.29 52.415 451.301 52.8599ZM458.055 65.2363V51.7086H460.07V55.241C461.064 52.9907 463.027 51.3946 465.591 51.4731V53.6448H465.434C462.477 53.6448 460.07 55.7643 460.07 59.8462V65.2363H458.055ZM473.723 65.5503C470.034 65.5503 466.973 62.6982 466.973 58.5117V58.4594C466.973 54.5606 469.694 51.4207 473.462 51.4207C477.465 51.4207 479.768 54.613 479.768 58.564C479.768 58.8519 479.768 58.9827 479.742 59.2182H469.014C469.301 62.1488 471.369 63.7972 473.776 63.7972C475.66 63.7972 476.916 63.0384 478.041 61.8871L479.297 63.0122C477.936 64.556 476.314 65.5503 473.723 65.5503ZM469.014 57.7267H477.727C477.518 55.2933 476.131 53.1215 473.409 53.1215C471.028 53.1215 469.301 55.1101 469.014 57.7267ZM490.616 65.2363V51.7086H492.631V54.0635C493.547 52.5982 494.934 51.4207 497.262 51.4207C500.507 51.4207 502.443 53.6187 502.443 56.8371V65.2363H500.428V57.3342C500.428 54.8223 499.094 53.2523 496.687 53.2523C494.358 53.2523 492.631 54.9531 492.631 57.4912V65.2363H490.616ZM512.653 65.5503C508.598 65.5503 505.641 62.3581 505.641 58.5379V58.4855C505.641 54.6391 508.598 51.4207 512.706 51.4207C516.788 51.4207 519.744 54.613 519.744 58.4332V58.4855C519.744 62.3319 516.735 65.5503 512.653 65.5503ZM512.706 63.7449C515.636 63.7449 517.677 61.3638 517.677 58.5379V58.4855C517.677 55.5811 515.505 53.2 512.653 53.2C509.723 53.2 507.708 55.5811 507.708 58.4332V58.4855C507.708 61.3899 509.854 63.7449 512.706 63.7449ZM527.659 65.4718C525.461 65.4718 523.839 64.399 523.839 61.6516V53.4878H521.955V51.7086H523.839V47.6267H525.854V51.7086H530.145V53.4878H525.854V61.3899C525.854 63.0646 526.769 63.6402 528.13 63.6402C528.837 63.6402 529.386 63.5094 530.093 63.1692V64.8962C529.386 65.2887 528.627 65.4718 527.659 65.4718ZM541.085 48.7518V46.5277H543.387V48.7518H541.085ZM539.934 69.5014C539.436 69.5014 539.122 69.4752 538.678 69.3705V67.7221C538.992 67.8006 539.384 67.8006 539.672 67.8006C540.588 67.8006 541.216 67.2511 541.216 65.9951V51.7086H543.23V66.0213C543.23 68.4286 542.001 69.5014 539.934 69.5014ZM552.616 65.5242C549.372 65.5242 547.435 63.3262 547.435 60.1078V51.7086H549.45V59.6107C549.45 62.1226 550.784 63.6925 553.192 63.6925C555.494 63.6925 557.247 61.9918 557.247 59.4537V51.7086H559.236V65.2363H557.247V62.8814C556.332 64.3467 554.945 65.5242 552.616 65.5242ZM567.981 65.498C566.019 65.498 563.925 64.7392 562.381 63.5094L563.402 62.0703C564.867 63.1954 566.49 63.7972 568.086 63.7972C569.734 63.7972 570.885 62.9861 570.885 61.6516V61.5993C570.885 60.2648 569.289 59.7153 567.51 59.2182C565.417 58.5902 563.036 57.9099 563.036 55.398V55.3456C563.036 53.0169 564.972 51.4731 567.641 51.4731C569.315 51.4731 571.121 52.0487 572.508 52.9645L571.592 54.4821C570.336 53.671 568.923 53.1739 567.588 53.1739C565.992 53.1739 564.972 54.0112 564.972 55.1363V55.1886C564.972 56.4708 566.647 56.9679 568.452 57.5174C570.545 58.1454 572.796 58.9565 572.796 61.3899V61.4423C572.796 64.0065 570.676 65.498 567.981 65.498ZM580.548 65.4718C578.35 65.4718 576.728 64.399 576.728 61.6516V53.4878H574.844V51.7086H576.728V47.6267H578.743V51.7086H583.034V53.4878H578.743V61.3899C578.743 63.0646 579.658 63.6402 581.019 63.6402C581.725 63.6402 582.275 63.5094 582.981 63.1692V64.8962C582.275 65.2887 581.516 65.4718 580.548 65.4718ZM593.921 69.4229V51.7086H595.936V54.4298C597.061 52.8337 598.605 51.4207 601.117 51.4207C604.362 51.4207 607.58 53.985 607.58 58.4332V58.4855C607.58 62.8814 604.388 65.5242 601.117 65.5242C598.605 65.5242 596.983 64.1897 595.936 62.6459V69.4229H593.921ZM600.751 63.7187C603.367 63.7187 605.513 61.7824 605.513 58.5117V58.4594C605.513 55.241 603.341 53.2262 600.751 53.2262C598.239 53.2262 595.858 55.3718 595.858 58.4332V58.4855C595.858 61.6254 598.239 63.7187 600.751 63.7187ZM611.036 65.2363V51.7086H613.05V55.241C614.045 52.9907 616.007 51.3946 618.571 51.4731V53.6448H618.414C615.458 53.6448 613.05 55.7643 613.05 59.8462V65.2363H611.036ZM626.966 65.5503C622.91 65.5503 619.953 62.3581 619.953 58.5379V58.4855C619.953 54.6391 622.91 51.4207 627.018 51.4207C631.1 51.4207 634.057 54.613 634.057 58.4332V58.4855C634.057 62.3319 631.048 65.5503 626.966 65.5503ZM627.018 63.7449C629.949 63.7449 631.989 61.3638 631.989 58.5379V58.4855C631.989 55.5811 629.818 53.2 626.966 53.2C624.035 53.2 622.02 55.5811 622.02 58.4332V58.4855C622.02 61.3899 624.166 63.7449 627.018 63.7449ZM641.179 65.341L635.318 51.7086H637.542L642.095 62.9337L646.674 51.7086H648.846L642.959 65.341H641.179ZM651.8 48.7518V46.5277H654.103V48.7518H651.8ZM651.931 65.2363V51.7086H653.946V65.2363H651.931ZM664.038 65.5242C660.793 65.5242 657.575 62.9599 657.575 58.5117V58.4594C657.575 54.0635 660.793 51.4207 664.038 51.4207C666.55 51.4207 668.172 52.7552 669.219 54.299V46.1352H671.234V65.2363H669.219V62.5151C668.094 64.1374 666.55 65.5242 664.038 65.5242ZM664.404 63.7187C666.916 63.7187 669.297 61.5993 669.297 58.4855V58.4332C669.297 55.3195 666.916 53.2262 664.404 53.2262C661.788 53.2262 659.642 55.1625 659.642 58.4332V58.4855C659.642 61.7039 661.814 63.7187 664.404 63.7187ZM681.388 65.5503C677.698 65.5503 674.637 62.6982 674.637 58.5117V58.4594C674.637 54.5606 677.358 51.4207 681.126 51.4207C685.129 51.4207 687.432 54.613 687.432 58.564C687.432 58.8519 687.432 58.9827 687.406 59.2182H676.678C676.966 62.1488 679.033 63.7972 681.44 63.7972C683.324 63.7972 684.58 63.0384 685.705 61.8871L686.961 63.0122C685.6 64.556 683.978 65.5503 681.388 65.5503ZM676.678 57.7267H685.391C685.182 55.2933 683.795 53.1215 681.074 53.1215C678.693 53.1215 676.966 55.1101 676.678 57.7267ZM690.697 65.2363V51.7086H692.712V55.241C693.706 52.9907 695.669 51.3946 698.233 51.4731V53.6448H698.076C695.119 53.6448 692.712 55.7643 692.712 59.8462V65.2363H690.697ZM705.514 65.498C703.552 65.498 701.459 64.7392 699.915 63.5094L700.935 62.0703C702.401 63.1954 704.023 63.7972 705.619 63.7972C707.268 63.7972 708.419 62.9861 708.419 61.6516V61.5993C708.419 60.2648 706.823 59.7153 705.043 59.2182C702.95 58.5902 700.569 57.9099 700.569 55.398V55.3456C700.569 53.0169 702.505 51.4731 705.174 51.4731C706.849 51.4731 708.654 52.0487 710.041 52.9645L709.125 54.4821C707.869 53.671 706.456 53.1739 705.122 53.1739C703.526 53.1739 702.505 54.0112 702.505 55.1363V55.1886C702.505 56.4708 704.18 56.9679 705.985 57.5174C708.079 58.1454 710.329 58.9565 710.329 61.3899V61.4423C710.329 64.0065 708.21 65.498 705.514 65.498ZM713.261 58.3809V56.3661H733.356V58.3809H713.261ZM466.859 102.341L462.123 88.7086H464.269L467.827 99.5674L471.464 88.6562H473.139L476.802 99.5674L480.361 88.7086H482.454L477.692 102.341H475.939L472.302 91.6653L468.638 102.341H466.859ZM490.799 102.55C487.11 102.55 484.048 99.6982 484.048 95.5117V95.4594C484.048 91.5606 486.77 88.4207 490.538 88.4207C494.541 88.4207 496.844 91.613 496.844 95.564C496.844 95.8519 496.844 95.9827 496.817 96.2182H486.089C486.377 99.1488 488.444 100.797 490.852 100.797C492.736 100.797 493.992 100.038 495.117 98.8871L496.373 100.012C495.012 101.556 493.39 102.55 490.799 102.55ZM486.089 94.7267H494.803C494.593 92.2933 493.207 90.1215 490.485 90.1215C488.104 90.1215 486.377 92.1101 486.089 94.7267ZM499.507 89.8599L499.193 88.9441C500.528 88.4469 501.051 87.7928 500.946 86.6676H500.004V83.9202H502.412V86.2751C502.412 88.3946 501.496 89.415 499.507 89.8599ZM506.261 102.236V88.7086H508.276V92.241C509.27 89.9907 511.233 88.3946 513.797 88.4731V90.6448H513.64C510.683 90.6448 508.276 92.7643 508.276 96.8462V102.236H506.261ZM521.93 102.55C518.24 102.55 515.179 99.6982 515.179 95.5117V95.4594C515.179 91.5606 517.9 88.4207 521.668 88.4207C525.671 88.4207 527.974 91.613 527.974 95.564C527.974 95.8519 527.974 95.9827 527.948 96.2182H517.22C517.507 99.1488 519.575 100.797 521.982 100.797C523.866 100.797 525.122 100.038 526.247 98.8871L527.503 100.012C526.142 101.556 524.52 102.55 521.93 102.55ZM517.22 94.7267H525.933C525.724 92.2933 524.337 90.1215 521.616 90.1215C519.234 90.1215 517.507 92.1101 517.22 94.7267ZM538.822 106.423V88.7086H540.837V91.4298C541.962 89.8337 543.506 88.4207 546.018 88.4207C549.262 88.4207 552.481 90.985 552.481 95.4332V95.4855C552.481 99.8814 549.289 102.524 546.018 102.524C543.506 102.524 541.884 101.19 540.837 99.6459V106.423H538.822ZM545.652 100.719C548.268 100.719 550.414 98.7824 550.414 95.5117V95.4594C550.414 92.241 548.242 90.2262 545.652 90.2262C543.14 90.2262 540.759 92.3718 540.759 95.4332V95.4855C540.759 98.6254 543.14 100.719 545.652 100.719ZM561.85 102.55C558.16 102.55 555.099 99.6982 555.099 95.5117V95.4594C555.099 91.5606 557.82 88.4207 561.588 88.4207C565.592 88.4207 567.894 91.613 567.894 95.564C567.894 95.8519 567.894 95.9827 567.868 96.2182H557.14C557.428 99.1488 559.495 100.797 561.902 100.797C563.786 100.797 565.042 100.038 566.167 98.8871L567.423 100.012C566.063 101.556 564.44 102.55 561.85 102.55ZM557.14 94.7267H565.853C565.644 92.2933 564.257 90.1215 561.536 90.1215C559.155 90.1215 557.428 92.1101 557.14 94.7267ZM577.335 102.55C573.279 102.55 570.322 99.3581 570.322 95.5379V95.4855C570.322 91.6391 573.279 88.4207 577.387 88.4207C581.469 88.4207 584.426 91.613 584.426 95.4332V95.4855C584.426 99.3319 581.417 102.55 577.335 102.55ZM577.387 100.745C580.318 100.745 582.359 98.3638 582.359 95.5379V95.4855C582.359 92.5811 580.187 90.2 577.335 90.2C574.404 90.2 572.389 92.5811 572.389 95.4332V95.4855C572.389 98.3899 574.535 100.745 577.387 100.745ZM587.814 106.423V88.7086H589.829V91.4298C590.954 89.8337 592.497 88.4207 595.009 88.4207C598.254 88.4207 601.472 90.985 601.472 95.4332V95.4855C601.472 99.8814 598.28 102.524 595.009 102.524C592.497 102.524 590.875 101.19 589.829 99.6459V106.423H587.814ZM594.643 100.719C597.26 100.719 599.405 98.7824 599.405 95.5117V95.4594C599.405 92.241 597.234 90.2262 594.643 90.2262C592.131 90.2262 589.75 92.3718 589.75 95.4332V95.4855C589.75 98.6254 592.131 100.719 594.643 100.719ZM605.111 102.236V83.1352H607.126V102.236H605.111ZM617.453 102.55C613.764 102.55 610.703 99.6982 610.703 95.5117V95.4594C610.703 91.5606 613.424 88.4207 617.192 88.4207C621.195 88.4207 623.498 91.613 623.498 95.564C623.498 95.8519 623.498 95.9827 623.472 96.2182H612.744C613.031 99.1488 615.099 100.797 617.506 100.797C619.39 100.797 620.646 100.038 621.771 98.8871L623.027 100.012C621.666 101.556 620.044 102.55 617.453 102.55ZM612.744 94.7267H621.457C621.247 92.2933 619.861 90.1215 617.139 90.1215C614.758 90.1215 613.031 92.1101 612.744 94.7267ZM638.873 102.472C636.675 102.472 635.053 101.399 635.053 98.6516V90.4878H633.169V88.7086H635.053V84.6267H637.067V88.7086H641.359V90.4878H637.067V98.3899C637.067 100.065 637.983 100.64 639.344 100.64C640.05 100.64 640.6 100.509 641.306 100.169V101.896C640.6 102.289 639.841 102.472 638.873 102.472ZM650.455 102.55C646.399 102.55 643.443 99.3581 643.443 95.5379V95.4855C643.443 91.6391 646.399 88.4207 650.507 88.4207C654.589 88.4207 657.546 91.613 657.546 95.4332V95.4855C657.546 99.3319 654.537 102.55 650.455 102.55ZM650.507 100.745C653.438 100.745 655.479 98.3638 655.479 95.5379V95.4855C655.479 92.5811 653.307 90.2 650.455 90.2C647.525 90.2 645.51 92.5811 645.51 95.4332V95.4855C645.51 98.3899 647.655 100.745 650.507 100.745ZM667.109 102.55C663.054 102.55 660.097 99.3581 660.097 95.5379V95.4855C660.097 91.6391 663.054 88.4207 667.162 88.4207C671.244 88.4207 674.2 91.613 674.2 95.4332V95.4855C674.2 99.3319 671.191 102.55 667.109 102.55ZM667.162 100.745C670.092 100.745 672.133 98.3638 672.133 95.5379V95.4855C672.133 92.5811 669.961 90.2 667.109 90.2C664.179 90.2 662.164 92.5811 662.164 95.4332V95.4855C662.164 98.3899 664.31 100.745 667.162 100.745ZM676.816 102.236V99.4889H679.223V102.236H676.816Z" fill="#554D65"/>
<path d="M14.2015 494.085L7.66001 475.638H9.91028L15.1435 490.893L20.1673 475.586H21.8681L26.8919 490.893L32.1251 475.638H34.2969L27.7554 494.085H26.0023L20.9784 479.223L15.9284 494.085H14.2015ZM41.6493 494.268C37.9599 494.268 34.8985 491.416 34.8985 487.229V487.177C34.8985 483.278 37.6197 480.139 41.3876 480.139C45.391 480.139 47.6936 483.331 47.6936 487.282C47.6936 487.57 47.6936 487.7 47.6675 487.936H36.9394C37.2273 490.867 39.2944 492.515 41.7016 492.515C43.5856 492.515 44.8415 491.756 45.9667 490.605L47.2226 491.73C45.862 493.274 44.2397 494.268 41.6493 494.268ZM36.9394 486.444H45.6527C45.4434 484.011 44.0566 481.839 41.3353 481.839C38.9542 481.839 37.2273 483.828 36.9394 486.444ZM64.6387 494.268C60.6615 494.268 57.7047 491.05 57.7047 487.256V487.203C57.7047 483.357 60.6615 480.139 64.6387 480.139C67.2029 480.139 68.7729 481.185 70.055 482.546L68.7206 483.959C67.6478 482.834 66.4703 481.918 64.6125 481.918C61.8651 481.918 59.7718 484.22 59.7718 487.151V487.203C59.7718 490.134 61.9174 492.463 64.7434 492.463C66.4965 492.463 67.8048 491.599 68.8776 490.448L70.1597 491.652C68.7991 493.195 67.1768 494.268 64.6387 494.268ZM77.2582 494.242C74.7463 494.242 72.2082 492.829 72.2082 490.029V489.977C72.2082 487.151 74.5631 485.607 77.9909 485.607C79.744 485.607 80.9214 485.843 82.1512 486.183V485.712C82.1512 483.278 80.6598 482.022 78.1217 482.022C76.5256 482.022 75.2696 482.415 74.0136 483.017L73.4118 481.368C74.9033 480.662 76.3424 480.243 78.331 480.243C80.2411 480.243 81.7064 480.74 82.7007 481.735C83.6165 482.65 84.0875 483.985 84.0875 485.686V493.954H82.1512V491.913C81.2093 493.143 79.6655 494.242 77.2582 494.242ZM77.6507 492.646C80.1626 492.646 82.1774 491.128 82.1774 488.983V487.674C81.1569 487.386 79.8748 487.099 78.2002 487.099C75.6621 487.099 74.2491 488.198 74.2491 489.898V489.951C74.2491 491.652 75.8453 492.646 77.6507 492.646ZM88.1197 493.954V480.426H90.1345V483.959C91.1288 481.708 93.0912 480.112 95.6555 480.191V482.363H95.4985C92.5418 482.363 90.1345 484.482 90.1345 488.564V493.954H88.1197ZM103.788 494.268C100.099 494.268 97.0374 491.416 97.0374 487.229V487.177C97.0374 483.278 99.7586 480.139 103.527 480.139C107.53 480.139 109.833 483.331 109.833 487.282C109.833 487.57 109.833 487.7 109.806 487.936H99.0783C99.3661 490.867 101.433 492.515 103.841 492.515C105.724 492.515 106.98 491.756 108.106 490.605L109.362 491.73C108.001 493.274 106.379 494.268 103.788 494.268ZM99.0783 486.444H107.792C107.582 484.011 106.195 481.839 103.474 481.839C101.093 481.839 99.3661 483.828 99.0783 486.444ZM126.359 494.242C123.114 494.242 119.896 491.678 119.896 487.229V487.177C119.896 482.781 123.114 480.139 126.359 480.139C128.871 480.139 130.493 481.473 131.54 483.017V474.853H133.555V493.954H131.54V491.233C130.415 492.855 128.871 494.242 126.359 494.242ZM126.725 492.436C129.237 492.436 131.618 490.317 131.618 487.203V487.151C131.618 484.037 129.237 481.944 126.725 481.944C124.109 481.944 121.963 483.88 121.963 487.151V487.203C121.963 490.422 124.135 492.436 126.725 492.436ZM143.709 494.268C140.019 494.268 136.958 491.416 136.958 487.229V487.177C136.958 483.278 139.679 480.139 143.447 480.139C147.45 480.139 149.753 483.331 149.753 487.282C149.753 487.57 149.753 487.7 149.727 487.936H138.999C139.287 490.867 141.354 492.515 143.761 492.515C145.645 492.515 146.901 491.756 148.026 490.605L149.282 491.73C147.921 493.274 146.299 494.268 143.709 494.268ZM138.999 486.444H147.712C147.503 484.011 146.116 481.839 143.395 481.839C141.013 481.839 139.287 483.828 138.999 486.444ZM158.932 494.268C155.242 494.268 152.181 491.416 152.181 487.229V487.177C152.181 483.278 154.902 480.139 158.67 480.139C162.674 480.139 164.976 483.331 164.976 487.282C164.976 487.57 164.976 487.7 164.95 487.936H154.222C154.51 490.867 156.577 492.515 158.984 492.515C160.868 492.515 162.124 491.756 163.249 490.605L164.505 491.73C163.144 493.274 161.522 494.268 158.932 494.268ZM154.222 486.444H162.935C162.726 484.011 161.339 481.839 158.618 481.839C156.237 481.839 154.51 483.828 154.222 486.444ZM168.242 498.141V480.426H170.256V483.148C171.381 481.551 172.925 480.139 175.437 480.139C178.682 480.139 181.9 482.703 181.9 487.151V487.203C181.9 491.599 178.708 494.242 175.437 494.242C172.925 494.242 171.303 492.907 170.256 491.364V498.141H168.242ZM175.071 492.436C177.687 492.436 179.833 490.5 179.833 487.229V487.177C179.833 483.959 177.661 481.944 175.071 481.944C172.559 481.944 170.178 484.09 170.178 487.151V487.203C170.178 490.343 172.559 492.436 175.071 492.436ZM185.539 493.954V474.853H187.554V493.954H185.539ZM197.75 491.704L202.094 480.426H204.239L198.561 494.399C197.41 497.199 196.076 498.219 194.061 498.219C192.936 498.219 192.098 497.984 191.183 497.539L191.863 495.943C192.517 496.283 193.119 496.44 193.982 496.44C195.212 496.44 195.945 495.812 196.756 493.902L190.607 480.426H192.831L197.75 491.704ZM206.233 487.099V485.084H226.328V487.099H206.233ZM234.555 494.19C232.358 494.19 230.735 493.117 230.735 490.369V482.206H228.851V480.426H230.735V476.344H232.75V480.426H237.041V482.206H232.75V490.108C232.75 491.782 233.666 492.358 235.026 492.358C235.733 492.358 236.282 492.227 236.989 491.887V493.614C236.282 494.006 235.524 494.19 234.555 494.19ZM240.346 493.954V474.853H242.361V482.781C243.277 481.316 244.663 480.139 246.992 480.139C250.237 480.139 252.173 482.336 252.173 485.555V493.954H250.158V486.052C250.158 483.54 248.824 481.97 246.416 481.97C244.088 481.97 242.361 483.671 242.361 486.209V493.954H240.346ZM260.238 494.242C257.726 494.242 255.187 492.829 255.187 490.029V489.977C255.187 487.151 257.542 485.607 260.97 485.607C262.723 485.607 263.901 485.843 265.131 486.183V485.712C265.131 483.278 263.639 482.022 261.101 482.022C259.505 482.022 258.249 482.415 256.993 483.017L256.391 481.368C257.883 480.662 259.322 480.243 261.31 480.243C263.22 480.243 264.686 480.74 265.68 481.735C266.596 482.65 267.067 483.985 267.067 485.686V493.954H265.131V491.913C264.189 493.143 262.645 494.242 260.238 494.242ZM260.63 492.646C263.142 492.646 265.157 491.128 265.157 488.983V487.674C264.136 487.386 262.854 487.099 261.179 487.099C258.641 487.099 257.228 488.198 257.228 489.898V489.951C257.228 491.652 258.825 492.646 260.63 492.646ZM275.498 494.19C273.3 494.19 271.678 493.117 271.678 490.369V482.206H269.794V480.426H271.678V476.344H273.693V480.426H277.984V482.206H273.693V490.108C273.693 491.782 274.608 492.358 275.969 492.358C276.675 492.358 277.225 492.227 277.931 491.887V493.614C277.225 494.006 276.466 494.19 275.498 494.19ZM280.763 481.578L280.449 480.662C281.784 480.165 282.307 479.511 282.202 478.385H281.26V475.638H283.668V477.993C283.668 480.112 282.752 481.133 280.763 481.578ZM291.302 494.216C289.339 494.216 287.246 493.457 285.702 492.227L286.723 490.788C288.188 491.913 289.81 492.515 291.406 492.515C293.055 492.515 294.206 491.704 294.206 490.369V490.317C294.206 488.983 292.61 488.433 290.831 487.936C288.737 487.308 286.356 486.628 286.356 484.116V484.063C286.356 481.735 288.292 480.191 290.961 480.191C292.636 480.191 294.441 480.766 295.828 481.682L294.912 483.2C293.656 482.389 292.244 481.892 290.909 481.892C289.313 481.892 288.292 482.729 288.292 483.854V483.906C288.292 485.189 289.967 485.686 291.773 486.235C293.866 486.863 296.116 487.674 296.116 490.108V490.16C296.116 492.724 293.997 494.216 291.302 494.216ZM307.18 493.954V480.426H309.195V482.781C310.111 481.316 311.498 480.139 313.826 480.139C317.071 480.139 319.007 482.336 319.007 485.555V493.954H316.993V486.052C316.993 483.54 315.658 481.97 313.251 481.97C310.922 481.97 309.195 483.671 309.195 486.209V493.954H307.18ZM329.218 494.268C325.162 494.268 322.205 491.076 322.205 487.256V487.203C322.205 483.357 325.162 480.139 329.27 480.139C333.352 480.139 336.309 483.331 336.309 487.151V487.203C336.309 491.05 333.299 494.268 329.218 494.268ZM329.27 492.463C332.2 492.463 334.241 490.082 334.241 487.256V487.203C334.241 484.299 332.07 481.918 329.218 481.918C326.287 481.918 324.272 484.299 324.272 487.151V487.203C324.272 490.108 326.418 492.463 329.27 492.463ZM344.223 494.19C342.025 494.19 340.403 493.117 340.403 490.369V482.206H338.519V480.426H340.403V476.344H342.418V480.426H346.709V482.206H342.418V490.108C342.418 491.782 343.334 492.358 344.694 492.358C345.401 492.358 345.95 492.227 346.657 491.887V493.614C345.95 494.006 345.191 494.19 344.223 494.19ZM39.5226 531.242C37.0107 531.242 34.4726 529.829 34.4726 527.029V526.977C34.4726 524.151 36.8275 522.607 40.2553 522.607C42.0084 522.607 43.1858 522.843 44.4156 523.183V522.712C44.4156 520.278 42.9242 519.022 40.3861 519.022C38.79 519.022 37.534 519.415 36.278 520.017L35.6762 518.368C37.1677 517.662 38.6068 517.243 40.5954 517.243C42.5055 517.243 43.9708 517.74 44.9651 518.735C45.8809 519.65 46.3519 520.985 46.3519 522.686V530.954H44.4156V528.913C43.4737 530.143 41.9299 531.242 39.5226 531.242ZM39.9151 529.646C42.427 529.646 44.4418 528.128 44.4418 525.983V524.674C43.4213 524.386 42.1392 524.099 40.4646 524.099C37.9265 524.099 36.5135 525.198 36.5135 526.898V526.951C36.5135 528.652 38.1097 529.646 39.9151 529.646ZM58.7259 530.954V519.206H56.8681V517.453H58.7259V516.275C58.7259 514.731 59.1184 513.58 59.9034 512.795C60.6099 512.088 61.578 511.748 62.8078 511.748C63.7498 511.748 64.3778 511.853 65.0319 512.088V513.842C64.2993 513.632 63.7759 513.501 63.0695 513.501C61.4995 513.501 60.7145 514.47 60.7145 516.38V517.479H65.0057V519.206H60.7407V530.954H58.7259ZM67.7793 530.954V511.853H69.7679V530.954H67.7793ZM78.242 531.242C75.7301 531.242 73.192 529.829 73.192 527.029V526.977C73.192 524.151 75.5469 522.607 78.9746 522.607C80.7278 522.607 81.9052 522.843 83.135 523.183V522.712C83.135 520.278 81.6436 519.022 79.1055 519.022C77.5094 519.022 76.2534 519.415 74.9974 520.017L74.3956 518.368C75.8871 517.662 77.3262 517.243 79.3148 517.243C81.2249 517.243 82.6902 517.74 83.6845 518.735C84.6003 519.65 85.0713 520.985 85.0713 522.686V530.954H83.135V528.913C82.1931 530.143 80.6493 531.242 78.242 531.242ZM78.6345 529.646C81.1464 529.646 83.1612 528.128 83.1612 525.983V524.674C82.1407 524.386 80.8586 524.099 79.184 524.099C76.6459 524.099 75.2329 525.198 75.2329 526.898V526.951C75.2329 528.652 76.829 529.646 78.6345 529.646ZM92.1772 531.059L87.4411 517.426H89.5867L93.1453 528.285L96.7824 517.374H98.457L102.12 528.285L105.679 517.426H107.772L103.01 531.059H101.257L97.6197 520.383L93.9565 531.059H92.1772ZM108.296 534.146L107.982 533.231C109.316 532.733 109.84 532.079 109.735 530.954H108.793V528.207H111.2V530.562C111.2 532.681 110.284 533.702 108.296 534.146ZM122.816 514.47V512.245H125.118V514.47H122.816ZM122.947 530.954V517.426H124.961V530.954H122.947ZM133.902 531.19C131.704 531.19 130.082 530.117 130.082 527.369V519.206H128.198V517.426H130.082V513.344H132.097V517.426H136.388V519.206H132.097V527.108C132.097 528.782 133.013 529.358 134.373 529.358C135.08 529.358 135.629 529.227 136.336 528.887V530.614C135.629 531.006 134.87 531.19 133.902 531.19ZM139.167 518.578L138.853 517.662C140.188 517.165 140.711 516.511 140.607 515.385H139.665V512.638H142.072V514.993C142.072 517.112 141.156 518.133 139.167 518.578ZM149.706 531.216C147.743 531.216 145.65 530.457 144.106 529.227L145.127 527.788C146.592 528.913 148.214 529.515 149.81 529.515C151.459 529.515 152.61 528.704 152.61 527.369V527.317C152.61 525.983 151.014 525.433 149.235 524.936C147.141 524.308 144.76 523.628 144.76 521.116V521.063C144.76 518.735 146.697 517.191 149.366 517.191C151.04 517.191 152.846 517.766 154.232 518.682L153.317 520.2C152.061 519.389 150.648 518.892 149.313 518.892C147.717 518.892 146.697 519.729 146.697 520.854V520.906C146.697 522.189 148.371 522.686 150.177 523.235C152.27 523.863 154.52 524.674 154.52 527.108V527.16C154.52 529.724 152.401 531.216 149.706 531.216ZM171.76 531.268C167.704 531.268 164.747 528.076 164.747 524.256V524.203C164.747 520.357 167.704 517.139 171.812 517.139C175.894 517.139 178.851 520.331 178.851 524.151V524.203C178.851 528.05 175.842 531.268 171.76 531.268ZM171.812 529.463C174.743 529.463 176.784 527.082 176.784 524.256V524.203C176.784 521.299 174.612 518.918 171.76 518.918C168.829 518.918 166.814 521.299 166.814 524.151V524.203C166.814 527.108 168.96 529.463 171.812 529.463ZM187.21 531.242C183.966 531.242 182.029 529.044 182.029 525.826V517.426H184.044V525.328C184.044 527.84 185.379 529.41 187.786 529.41C190.089 529.41 191.842 527.71 191.842 525.171V517.426H193.83V530.954H191.842V528.599C190.926 530.064 189.539 531.242 187.21 531.242ZM198.101 530.954V517.426H200.116V520.959C201.11 518.708 203.072 517.112 205.637 517.191V519.363H205.48C202.523 519.363 200.116 521.482 200.116 525.564V530.954H198.101ZM220.501 531.216C218.538 531.216 216.445 530.457 214.901 529.227L215.922 527.788C217.387 528.913 219.009 529.515 220.606 529.515C222.254 529.515 223.405 528.704 223.405 527.369V527.317C223.405 525.983 221.809 525.433 220.03 524.936C217.937 524.308 215.555 523.628 215.555 521.116V521.063C215.555 518.735 217.492 517.191 220.161 517.191C221.835 517.191 223.641 517.766 225.028 518.682L224.112 520.2C222.856 519.389 221.443 518.892 220.108 518.892C218.512 518.892 217.492 519.729 217.492 520.854V520.906C217.492 522.189 219.166 522.686 220.972 523.235C223.065 523.863 225.315 524.674 225.315 527.108V527.16C225.315 529.724 223.196 531.216 220.501 531.216ZM233.068 531.19C230.87 531.19 229.248 530.117 229.248 527.369V519.206H227.364V517.426H229.248V513.344H231.262V517.426H235.554V519.206H231.262V527.108C231.262 528.782 232.178 529.358 233.539 529.358C234.245 529.358 234.795 529.227 235.501 528.887V530.614C234.795 531.006 234.036 531.19 233.068 531.19ZM238.858 530.954V517.426H240.873V520.959C241.867 518.708 243.83 517.112 246.394 517.191V519.363H246.237C243.28 519.363 240.873 521.482 240.873 525.564V530.954H238.858ZM254.527 531.268C250.837 531.268 247.776 528.416 247.776 524.229V524.177C247.776 520.278 250.497 517.139 254.265 517.139C258.268 517.139 260.571 520.331 260.571 524.282C260.571 524.57 260.571 524.7 260.545 524.936H249.817C250.105 527.867 252.172 529.515 254.579 529.515C256.463 529.515 257.719 528.756 258.844 527.605L260.1 528.73C258.739 530.274 257.117 531.268 254.527 531.268ZM249.817 523.444H258.53C258.321 521.011 256.934 518.839 254.213 518.839C251.832 518.839 250.105 520.828 249.817 523.444ZM263.836 530.954V517.426H265.851V519.781C266.767 518.316 268.154 517.139 270.483 517.139C273.727 517.139 275.663 519.336 275.663 522.555V530.954H273.649V523.052C273.649 520.54 272.314 518.97 269.907 518.97C267.578 518.97 265.851 520.671 265.851 523.209V530.954H263.836ZM285.69 535.193C283.414 535.193 281.347 534.565 279.542 533.309L280.457 531.739C282.027 532.864 283.702 533.466 285.664 533.466C288.673 533.466 290.584 531.818 290.584 528.652V527.055C289.406 528.625 287.758 529.907 285.272 529.907C282.027 529.907 278.914 527.448 278.914 523.575V523.523C278.914 519.572 282.027 517.139 285.272 517.139C287.81 517.139 289.432 518.394 290.557 519.86V517.426H292.572V528.599C292.572 530.692 291.97 532.262 290.845 533.388C289.615 534.617 287.862 535.193 285.69 535.193ZM285.664 528.128C288.229 528.128 290.636 526.27 290.636 523.549V523.497C290.636 520.723 288.229 518.918 285.664 518.918C283.074 518.918 280.981 520.697 280.981 523.471V523.523C280.981 526.244 283.152 528.128 285.664 528.128ZM301.339 531.19C299.141 531.19 297.519 530.117 297.519 527.369V519.206H295.635V517.426H297.519V513.344H299.534V517.426H303.825V519.206H299.534V527.108C299.534 528.782 300.45 529.358 301.81 529.358C302.517 529.358 303.066 529.227 303.773 528.887V530.614C303.066 531.006 302.307 531.19 301.339 531.19ZM307.13 530.954V511.853H309.145V519.781C310.06 518.316 311.447 517.139 313.776 517.139C317.02 517.139 318.957 519.336 318.957 522.555V530.954H316.942V523.052C316.942 520.54 315.608 518.97 313.2 518.97C310.872 518.97 309.145 520.671 309.145 523.209V530.954H307.13Z" fill="#554D65"/>
<defs>
<clipPath id="clip0_363_111">
<rect width="300.908" height="300.908" fill="white" transform="translate(411.611 348.208)"/>
</clipPath>
<clipPath id="clip1_363_111">
<rect width="300.908" height="300.908" fill="white" transform="translate(411.611 348.208)"/>
</clipPath>
<clipPath id="clip2_363_111">
<rect width="300.908" height="300.908" fill="white" transform="translate(1124.13 348.208)"/>
</clipPath>
<clipPath id="clip3_363_111">
<rect width="300.908" height="300.908" fill="white" transform="translate(1124.13 348.208)"/>
</clipPath>
<clipPath id="clip4_363_111">
<rect width="300.908" height="300.908" fill="white" transform="translate(766.863)"/>
</clipPath>
<clipPath id="clip5_363_111">
<rect width="300.908" height="300.908" fill="white" transform="translate(766.863)"/>
</clipPath>
<clipPath id="clip6_363_111">
<rect width="300.908" height="300.908" fill="white" transform="translate(766.863)"/>
</clipPath>
<clipPath id="clip7_363_111">
<rect width="300.908" height="300.908" fill="white" transform="translate(766.863 668.236)"/>
</clipPath>
<clipPath id="clip8_363_111">
<rect width="300.908" height="300.908" fill="white" transform="translate(766.863 668.236)"/>
</clipPath>
<clipPath id="clip9_363_111">
<rect width="300.908" height="300.908" fill="white" transform="translate(766.863 668.236)"/>
</clipPath>
</defs>
</svg>
